STARTFONT 2.1
COMMENT 
COMMENT Converted from OpenType font "SymbolsNerdFontMono-Regular.ttf" by "otf2bdf 3.0".
COMMENT 
FONT -FreeType-Symbols Nerd Font Mono-Medium-R-Normal--20-130-100-100-M-170-ISO10646-1
SIZE 13 100 100
FONTBOUNDINGBOX 20 20 -1 -4
STARTPROPERTIES 20
FOUNDRY "FreeType"
FAMILY_NAME "Symbols Nerd Font Mono"
WEIGHT_NAME "Medium"
SLANT "R"
SETWIDTH_NAME "Normal"
ADD_STYLE_NAME ""
PIXEL_SIZE 20
POINT_SIZE 130
RESOLUTION_X 100
RESOLUTION_Y 100
SPACING "C"
AVERAGE_WIDTH 170
CHARSET_REGISTRY "ISO10646"
CHARSET_ENCODING "1"
FONT_ASCENT 20
FONT_DESCENT 0
COPYRIGHT "Copyright (c) 2016, Ryan McIntyre"
_OTF_FONTFILE "SymbolsNerdFontMono-Regular.ttf"
_OTF_PSNAME "SymbolsNFM"
_GBDFED_INFO "Edited with gbdfed 1.6."
ENDPROPERTIES
CHARS 3189
STARTCHAR 23FB
ENCODING 9211
SWIDTH 1107 0
DWIDTH 20 0
BBX 20 20 0 0
BITMAP
000000
000000
006000
006000
006000
006000
0C6300
1E6780
1C6380
3861C0
3861C0
3861C0
3861C0
3801C0
1C0380
1C0380
0F0F00
07FE00
03FC00
006000
ENDCHAR
STARTCHAR 23FC
ENCODING 9212
SWIDTH 1107 0
DWIDTH 20 0
BBX 20 20 0 0
BITMAP
000000
000000
03FC00
0FFF00
1FFF80
1E0780
3C63C0
38F1C0
70F0E0
70F0E0
70F0E0
70F0E0
70F0E0
78F1E0
3C63C0
3E07C0
1F9F80
0FFF00
03FC00
006000
ENDCHAR
STARTCHAR 23FD
ENCODING 9213
SWIDTH 1107 0
DWIDTH 20 0
BBX 20 20 0 0
BITMAP
000000
000000
006000
00F000
00F000
00F000
00F000
00F000
00F000
00F000
00F000
00F000
00F000
00F000
00F000
00F000
00F000
00F000
006000
006000
ENDCHAR
STARTCHAR 23FE
ENCODING 9214
SWIDTH 1107 0
DWIDTH 20 0
BBX 20 20 0 0
BITMAP
000000
000000
018000
030000
070000
070000
0F0000
0F0000
0F0000
1F0000
1F0000
0F0000
0F8000
0F8000
0FC000
07E000
03F000
01F800
00FE00
001C00
ENDCHAR
STARTCHAR 2630
ENCODING 9776
SWIDTH 1107 0
DWIDTH 20 0
BBX 20 20 0 0
BITMAP
000000
000000
3FFFC0
3FFFC0
3FFFC0
3FFFC0
000000
000000
000000
3FFFC0
3FFFC0
3FFFC0
000000
000000
000000
3FFFC0
3FFFC0
3FFFC0
3FFFC0
000000
ENDCHAR
STARTCHAR 2665
ENCODING 9829
SWIDTH 1107 0
DWIDTH 20 0
BBX 20 20 0 0
BITMAP
000000
000000
000000
1F0F80
39FDC0
30F060
606060
606060
600060
600060
200040
3000C0
180180
1C0380
0E0700
070E00
01F800
00F000
000000
000000
ENDCHAR
STARTCHAR 26A1
ENCODING 9889
SWIDTH 1107 0
DWIDTH 20 0
BBX 20 20 0 0
BITMAP
000000
000000
001C00
003E00
007C00
00EC00
01D800
039800
071F80
0E0180
180180
180300
1F8600
018C00
019800
033000
036000
02C000
038000
030000
ENDCHAR
STARTCHAR 276C
ENCODING 10092
SWIDTH 1107 0
DWIDTH 20 0
BBX 20 20 0 0
BITMAP
000000
000000
000000
000000
000000
003000
002000
006000
004000
00C000
008000
00C000
004000
006000
002000
003000
000000
000000
000000
000000
ENDCHAR
STARTCHAR 276D
ENCODING 10093
SWIDTH 1107 0
DWIDTH 20 0
BBX 20 20 0 0
BITMAP
000000
000000
000000
000000
000000
00C000
004000
006000
002000
003000
001000
003000
002000
006000
004000
00C000
000000
000000
000000
000000
ENDCHAR
STARTCHAR 276E
ENCODING 10094
SWIDTH 1107 0
DWIDTH 20 0
BBX 20 20 0 0
BITMAP
000000
000000
000000
000000
000000
003800
003000
006000
00E000
00C000
018000
00C000
00E000
006000
007000
003800
000000
000000
000000
000000
ENDCHAR
STARTCHAR 276F
ENCODING 10095
SWIDTH 1107 0
DWIDTH 20 0
BBX 20 20 0 0
BITMAP
000000
000000
000000
000000
000000
01C000
00C000
006000
007000
003000
001800
003000
007000
006000
00E000
01C000
000000
000000
000000
000000
ENDCHAR
STARTCHAR 2770
ENCODING 10096
SWIDTH 1107 0
DWIDTH 20 0
BBX 20 20 0 0
BITMAP
000000
000000
000000
000000
003800
007000
007000
00E000
00E000
01C000
01C000
01C000
00E000
00E000
007000
007000
003800
000000
000000
000000
ENDCHAR
STARTCHAR 2771
ENCODING 10097
SWIDTH 1107 0
DWIDTH 20 0
BBX 20 20 0 0
BITMAP
000000
000000
000000
000000
01C000
00E000
00E000
007000
007000
003800
003800
003800
007000
007000
00E000
00E000
01C000
000000
000000
000000
ENDCHAR
STARTCHAR 2B58
ENCODING 11096
SWIDTH 1107 0
DWIDTH 20 0
BBX 20 20 0 0
BITMAP
000000
000000
03FC00
0FFF00
1FFF80
1E0780
3C03C0
3801C0
7000E0
7000E0
7000E0
7000E0
7000E0
7801E0
3C03C0
3E07C0
1FFF80
0FFF00
03FC00
006000
ENDCHAR
STARTCHAR E000
ENCODING 57344
SWIDTH 1107 0
DWIDTH 20 0
BBX 20 20 0 0
BITMAP
000000
000000
000000
030300
7BFFE0
7BFFE0
060300
062100
07FD00
37FDE0
060180
060180
060180
060180
040180
040180
0C0180
0C0180
0C0180
000000
ENDCHAR
STARTCHAR E001
ENCODING 57345
SWIDTH 1107 0
DWIDTH 20 0
BBX 20 20 0 0
BITMAP
000000
000000
00C000
0EC600
37DF80
01D800
0FDF00
1FFF80
3FF9C0
3FF8C0
7FFCE0
7FFCE0
7FFEC0
3FFEC0
3FFFC0
3FFFC0
1FFF80
0FFF00
07FE00
00F000
ENDCHAR
STARTCHAR E002
ENCODING 57346
SWIDTH 1107 0
DWIDTH 20 0
BBX 20 20 0 0
BITMAP
000000
000000
00C000
0EC600
37DF80
01D800
0FDF00
1FFF80
3000C0
200040
600060
600060
600040
3000C0
3000C0
3801C0
1C0380
0F0F00
07FE00
00F000
ENDCHAR
STARTCHAR E003
ENCODING 57347
SWIDTH 1107 0
DWIDTH 20 0
BBX 20 20 0 0
BITMAP
000000
000000
00C000
0EC600
37DF80
01D800
0FDF00
1FFF80
3FFFC0
3CFFC0
7E7FE0
7F1FE0
7F9FC0
3F9FC0
3F9FC0
3F9FC0
1F9F80
0FFF00
07FE00
00F000
ENDCHAR
STARTCHAR E004
ENCODING 57348
SWIDTH 1107 0
DWIDTH 20 0
BBX 20 20 0 0
BITMAP
000000
000000
00C000
0EC600
37DF80
01D800
0FDF00
1DFB80
3000C0
200040
600060
600060
600040
3FFFC0
3FFFC0
3FFFC0
1FFF80
0FFF00
07FE00
00F000
ENDCHAR
STARTCHAR E005
ENCODING 57349
SWIDTH 1107 0
DWIDTH 20 0
BBX 20 20 0 0
BITMAP
000000
000000
008000
028000
03C000
034000
010000
010000
000000
7FFC00
7FFFC0
7FFFE0
7FFE60
7FFE60
7FFFC0
7FF980
3FF800
1FF000
0FE000
010000
ENDCHAR
STARTCHAR E006
ENCODING 57350
SWIDTH 1107 0
DWIDTH 20 0
BBX 20 20 0 0
BITMAP
000000
000000
07E700
0FFFC0
007E00
03FF80
07FF80
0F7DC0
186EC0
00E640
00E300
00E200
00E000
01C000
01C000
1FDC00
3FDE00
3FFF00
1FFC00
01E000
ENDCHAR
STARTCHAR E007
ENCODING 57351
SWIDTH 1107 0
DWIDTH 20 0
BBX 20 20 0 0
BITMAP
000000
000000
0F0000
1F8000
3F8000
3EC000
364000
266000
27F000
3FFE00
3FFFC0
1FFFC0
1FFF00
0FFF00
0FFF00
07FF00
07F000
03F000
00F000
002000
ENDCHAR
STARTCHAR E008
ENCODING 57352
SWIDTH 1107 0
DWIDTH 20 0
BBX 20 20 0 0
BITMAP
000000
000000
00C000
0E6700
1FEF80
01E800
0FEF00
1FEF80
3FEFC0
3E6FC0
3C1FC0
3DFFC0
3DFFC0
3DFFC0
3C0FC0
3E4F80
1FEF00
0FEE00
07EC00
00E000
ENDCHAR
STARTCHAR E009
ENCODING 57353
SWIDTH 1107 0
DWIDTH 20 0
BBX 20 20 0 0
BITMAP
000000
000000
01F800
01F800
00F000
00F000
00F000
00F000
00F000
00F000
00F000
00F000
00F000
000000
000000
006000
00F000
00F000
00F000
006000
ENDCHAR
STARTCHAR E00A
ENCODING 57354
SWIDTH 1107 0
DWIDTH 20 0
BBX 20 20 0 0
BITMAP
000000
000000
03F000
03E000
03E000
03E000
03E000
03CE00
07FC00
07FC00
07F800
067800
007000
007000
006000
00E000
00C000
00C000
008000
008000
ENDCHAR
STARTCHAR E0A0
ENCODING 57504
SWIDTH 1107 0
DWIDTH 20 0
BBX 20 20 0 0
BITMAP
000000
000000
030000
030000
031000
033800
031000
031000
031000
031000
033000
023000
00E000
01C000
018000
030000
030000
030000
030000
030000
ENDCHAR
STARTCHAR E0A1
ENCODING 57505
SWIDTH 1107 0
DWIDTH 20 0
BBX 20 20 0 0
BITMAP
000000
000000
010000
010000
010000
010000
010000
010000
010000
01F000
000000
00C800
00C800
00E800
00E800
00A800
00B800
009800
009800
008800
ENDCHAR
STARTCHAR E0A2
ENCODING 57506
SWIDTH 1107 0
DWIDTH 20 0
BBX 20 20 0 0
BITMAP
000000
000000
00F000
019800
010800
010800
010800
010800
010800
03FC00
07FE00
079E00
079E00
079E00
079E00
079E00
079E00
07FE00
07FE00
03FC00
ENDCHAR
STARTCHAR E0A3
ENCODING 57507
SWIDTH 1107 0
DWIDTH 20 0
BBX 20 20 0 0
BITMAP
000000
000000
03F000
030000
030000
030000
030000
030000
030000
03F000
000000
00CC00
00CC00
00EC00
00EC00
00BC00
00BC00
009C00
009C00
008C00
ENDCHAR
STARTCHAR E0B0
ENCODING 57520
SWIDTH 1107 0
DWIDTH 20 0
BBX 20 20 0 0
BITMAP
000000
000000
C00000
E00000
F80000
FC0000
FE0000
FF8000
FFC000
FFE000
FFF800
FFE000
FFC000
FF8000
FF0000
FC0000
F80000
F00000
C00000
800000
ENDCHAR
STARTCHAR E0B1
ENCODING 57521
SWIDTH 1107 0
DWIDTH 20 0
BBX 20 20 0 0
BITMAP
000000
000000
000000
600000
380000
0C0000
060000
030000
00C000
006000
003000
001800
003000
006000
00C000
018000
060000
0C0000
180000
600000
ENDCHAR
STARTCHAR E0B2
ENCODING 57522
SWIDTH 1107 0
DWIDTH 20 0
BBX 20 20 0 0
BITMAP
000000
000000
000030
000070
0001F0
0003F0
0007F0
001FF0
003FF0
007FF0
00FFF0
007FF0
003FF0
001FF0
000FF0
0003F0
0001F0
0000F0
000030
000010
ENDCHAR
STARTCHAR E0B3
ENCODING 57523
SWIDTH 1107 0
DWIDTH 20 0
BBX 20 20 0 0
BITMAP
000000
000000
000000
000060
0000C0
000300
000600
000C00
003000
006000
00C000
018000
00C000
006000
003000
001800
000600
000300
000180
000060
ENDCHAR
STARTCHAR E0B4
ENCODING 57524
SWIDTH 1107 0
DWIDTH 20 0
BBX 20 20 0 0
BITMAP
000000
000000
F80000
FE0000
FF0000
FF8000
FFC000
FFC000
FFC000
FFE000
FFE000
FFE000
FFC000
FFC000
FFC000
FF8000
FF0000
FE0000
F80000
C00000
ENDCHAR
STARTCHAR E0B5
ENCODING 57525
SWIDTH 1107 0
DWIDTH 20 0
BBX 20 20 0 0
BITMAP
000000
000000
180000
0C0000
020000
030000
018000
008000
00C000
00C000
00C000
00C000
00C000
008000
018000
010000
030000
060000
180000
600000
ENDCHAR
STARTCHAR E0B6
ENCODING 57526
SWIDTH 1107 0
DWIDTH 20 0
BBX 20 20 0 0
BITMAP
000000
000000
0001F0
0007F0
000FF0
001FF0
003FF0
003FF0
003FF0
007FF0
007FF0
007FF0
003FF0
003FF0
003FF0
001FF0
000FF0
0007F0
0001F0
000030
ENDCHAR
STARTCHAR E0B7
ENCODING 57527
SWIDTH 1107 0
DWIDTH 20 0
BBX 20 20 0 0
BITMAP
000000
000000
000180
000300
000400
000C00
001800
001000
003000
003000
003000
003000
003000
001000
001800
000800
000C00
000600
000180
000060
ENDCHAR
STARTCHAR E0B8
ENCODING 57528
SWIDTH 1107 0
DWIDTH 20 0
BBX 20 20 0 0
BITMAP
000000
000000
400000
600000
700000
780000
7C0000
7E0000
7F0000
7F8000
7FC000
7FE000
7FF000
7FF800
7FFC00
7FFE00
7FFF00
7FFF80
7FFFC0
7FFFE0
ENDCHAR
STARTCHAR E0B9
ENCODING 57529
SWIDTH 1107 0
DWIDTH 20 0
BBX 20 20 0 0
BITMAP
000000
000000
200000
100000
080000
040000
000000
000000
000000
000000
004000
002000
001000
000800
000400
000200
000100
000080
000040
000020
ENDCHAR
STARTCHAR E0BA
ENCODING 57530
SWIDTH 1107 0
DWIDTH 20 0
BBX 20 20 0 0
BITMAP
000000
000000
000020
000060
0000E0
0001E0
0003E0
0007E0
000FE0
001FE0
003FE0
007FE0
00FFE0
01FFE0
03FFE0
07FFE0
0FFFE0
1FFFE0
3FFFE0
7FFFE0
ENDCHAR
STARTCHAR E0BB
ENCODING 57531
SWIDTH 1107 0
DWIDTH 20 0
BBX 20 20 0 0
BITMAP
000000
000000
000040
000080
000100
000200
000000
000000
000000
000000
002000
004000
008000
010000
020000
040000
080000
100000
200000
400000
ENDCHAR
STARTCHAR E0BC
ENCODING 57532
SWIDTH 1107 0
DWIDTH 20 0
BBX 20 20 0 0
BITMAP
000000
000000
000000
7FFFC0
7FFF80
7FFF00
7FFE00
7FFC00
7FF800
7FF000
7FE000
7FC000
7F8000
7F0000
7E0000
7C0000
780000
700000
600000
400000
ENDCHAR
STARTCHAR E0BD
ENCODING 57533
SWIDTH 1107 0
DWIDTH 20 0
BBX 20 20 0 0
BITMAP
000000
000000
000040
000080
000100
000200
000000
000000
000000
000000
002000
004000
008000
010000
020000
040000
080000
100000
200000
400000
ENDCHAR
STARTCHAR E0BE
ENCODING 57534
SWIDTH 1107 0
DWIDTH 20 0
BBX 20 20 0 0
BITMAP
000000
000000
000000
3FFFE0
1FFFE0
0FFFE0
07FFE0
03FFE0
01FFE0
00FFE0
007FE0
003FE0
001FE0
000FE0
0007E0
0003E0
0001E0
0000E0
000060
000020
ENDCHAR
STARTCHAR E0BF
ENCODING 57535
SWIDTH 1107 0
DWIDTH 20 0
BBX 20 20 0 0
BITMAP
000000
000000
200000
100000
080000
040000
000000
000000
000000
000000
004000
002000
001000
000800
000400
000200
000100
000080
000040
000020
ENDCHAR
STARTCHAR E0C0
ENCODING 57536
SWIDTH 1107 0
DWIDTH 20 0
BBX 20 20 0 0
BITMAP
000000
500000
73C000
6F0000
7E1E00
7F7F80
7FF800
7FE000
7FFC00
7FC000
7FC000
7FE000
7F3C00
7F0000
73C000
600000
7C0000
600000
400000
000000
ENDCHAR
STARTCHAR E0C1
ENCODING 57537
SWIDTH 1107 0
DWIDTH 20 0
BBX 20 20 0 0
BITMAP
000000
640000
0BC000
148000
111F00
01C1E0
0007C0
001000
001C00
003000
006000
005E00
017C00
058000
03C000
1C0000
0E0000
200000
400000
000000
ENDCHAR
STARTCHAR E0C2
ENCODING 57538
SWIDTH 1107 0
DWIDTH 20 0
BBX 20 20 0 0
BITMAP
000000
0000A0
001C60
000F60
0787E0
5FEFE0
01FFE0
007FE0
03FFE0
003FE0
003FE0
007FE0
03CFE0
000FE0
003CE0
000060
0003E0
000060
000020
000000
ENDCHAR
STARTCHAR E0C3
ENCODING 57539
SWIDTH 1107 0
DWIDTH 20 0
BBX 20 20 0 0
BITMAP
000000
000220
003D00
001080
0F8880
783800
3E0000
008000
038000
00C000
006000
07A000
03E800
001A00
003C00
000380
000700
000040
000020
000000
ENDCHAR
STARTCHAR E0C4
ENCODING 57540
SWIDTH 1107 0
DWIDTH 20 0
BBX 20 20 0 0
BITMAP
000000
000000
2B3880
000000
2A9880
006000
2AC000
2A4000
2A6000
2B2000
008000
2AA000
286600
284000
2A0000
2A0000
2A0000
000000
280000
000000
ENDCHAR
STARTCHAR E0C5
ENCODING 57541
SWIDTH 1107 0
DWIDTH 20 0
BBX 20 20 0 0
BITMAP
000000
000000
11CD40
000000
119540
006000
003540
002540
006540
004D40
001000
005540
066140
002140
000540
000540
000540
000000
000140
000000
ENDCHAR
STARTCHAR E0C6
ENCODING 57542
SWIDTH 1107 0
DWIDTH 20 0
BBX 20 20 0 0
BITMAP
000000
000000
2C0000
2C0000
000000
2D8000
2D8000
2C0000
2C0000
000000
218000
218000
2C2800
2C2800
018000
2D0000
2D8000
2C0000
2C0000
000000
ENDCHAR
STARTCHAR E0C7
ENCODING 57543
SWIDTH 1107 0
DWIDTH 20 0
BBX 20 20 0 0
BITMAP
000000
000000
000340
000340
000000
001B40
001B40
000340
000340
000000
001840
001840
014340
014340
001800
000B40
001B40
000340
000340
000000
ENDCHAR
STARTCHAR E0C8
ENCODING 57544
SWIDTH 1107 0
DWIDTH 20 0
BBX 20 20 0 0
BITMAP
000000
7E0000
7E0000
7FF800
700000
7F0000
7E0000
700000
7E0000
7F8000
7C0000
7FFE80
7FE000
700000
7F0000
7F0000
7C0000
780000
600000
000000
ENDCHAR
STARTCHAR E0CA
ENCODING 57546
SWIDTH 1107 0
DWIDTH 20 0
BBX 20 20 0 0
BITMAP
000000
0007E0
0003E0
01FFE0
0000E0
000FE0
0007E0
0000E0
0007E0
001FE0
0003E0
17FFE0
007FE0
0000E0
000FE0
000FE0
0003E0
0001E0
000060
000000
ENDCHAR
STARTCHAR E0CC
ENCODING 57548
SWIDTH 1107 0
DWIDTH 20 0
BBX 20 20 0 0
BITMAP
000000
000000
780000
7C0000
7E0000
7E0000
7C0000
7C7C00
787E00
00FE00
00FF00
00FF00
787E00
7C7E00
7C0000
7E0000
7E0000
7C0000
7C0000
780000
ENDCHAR
STARTCHAR E0CD
ENCODING 57549
SWIDTH 1107 0
DWIDTH 20 0
BBX 20 20 0 0
BITMAP
000000
000000
020000
000000
010000
000000
000200
044000
008100
000000
008000
040100
004000
020000
000000
000000
020000
000000
7C0000
000000
ENDCHAR
STARTCHAR E0CE
ENCODING 57550
SWIDTH 1107 0
DWIDTH 20 0
BBX 20 20 0 0
BITMAP
000000
000000
07F000
07F600
0FE500
0FED80
1FC980
3F9D80
3F9500
7F2760
006F60
7F2F60
3FB460
3F9D80
1FCD80
1FED80
0FE500
0FF600
07F000
000000
ENDCHAR
STARTCHAR E0CF
ENCODING 57551
SWIDTH 1107 0
DWIDTH 20 0
BBX 20 20 0 0
BITMAP
000000
000000
000000
00F000
016800
0F0F00
1FF780
30F0C0
0FFF80
470E60
71F8E0
7C63E0
7E07E0
7F9FE0
7F9FE0
7F9FE0
3F9FC0
0F9F00
039E00
019800
ENDCHAR
STARTCHAR E0D0
ENCODING 57552
SWIDTH 1107 0
DWIDTH 20 0
BBX 20 20 0 0
BITMAP
000000
000000
221100
410080
4020C0
40A0C0
41A080
221100
080C00
000000
000000
000000
140A00
000080
412080
41A080
41A000
001040
150A00
0C0600
ENDCHAR
STARTCHAR E0D1
ENCODING 57553
SWIDTH 1107 0
DWIDTH 20 0
BBX 20 20 0 0
BITMAP
000000
000000
7FE000
7FE000
7FE000
7FFC00
7FFC00
7FFC00
7FFC00
7FE000
7FE000
7FE000
7FE000
7FFC00
7FFC00
7FFC00
7FFC00
7FE000
7FE000
7FE000
ENDCHAR
STARTCHAR E0D2
ENCODING 57554
SWIDTH 1107 0
DWIDTH 20 0
BBX 20 20 0 0
BITMAP
000000
000000
7FF000
7FE000
7FC000
7F8000
7F0000
7E0000
7C0000
780000
000000
780000
7C0000
7E0000
7F0000
7F8000
7FC000
7FE000
7FF000
7FF800
ENDCHAR
STARTCHAR E0D4
ENCODING 57556
SWIDTH 1107 0
DWIDTH 20 0
BBX 20 20 0 0
BITMAP
000000
000000
00FFE0
007FE0
003FE0
001FE0
000FE0
0007E0
0003E0
0001E0
000000
0001E0
0003E0
0007E0
000FE0
001FE0
003FE0
007FE0
00FFE0
01FFE0
ENDCHAR
STARTCHAR E0D6
ENCODING 57558
SWIDTH 1107 0
DWIDTH 20 0
BBX 20 20 0 0
BITMAP
000000
000000
FFF000
FFC000
FF8000
FF0000
FC0000
F80000
F00000
C00000
800000
C00000
E00000
F80000
FC0000
FE0000
FF8000
FFC000
FFE000
FFF800
ENDCHAR
STARTCHAR E0D7
ENCODING 57559
SWIDTH 1107 0
DWIDTH 20 0
BBX 20 20 0 0
BITMAP
000000
000000
00FFF0
003FF0
001FF0
000FF0
0003F0
0001F0
0000F0
000030
000010
000030
000070
0001F0
0003F0
0007F0
001FF0
003FF0
007FF0
01FFF0
ENDCHAR
STARTCHAR E200
ENCODING 57856
SWIDTH 1107 0
DWIDTH 20 0
BBX 20 20 0 0
BITMAP
000000
000000
000E00
001F00
003E00
007C00
00F800
01F000
03E000
07C000
0F8000
07C000
03E000
01F000
00F800
007C00
003E00
001F00
000E00
000400
ENDCHAR
STARTCHAR E201
ENCODING 57857
SWIDTH 1107 0
DWIDTH 20 0
BBX 20 20 0 0
BITMAP
000000
000000
000000
000000
00F000
01FC00
03FC00
03FF80
07FFC0
0FFFE0
0FFFE0
7FFFE0
7FFFC0
7FFF80
000800
010000
000000
008000
000000
000000
ENDCHAR
STARTCHAR E202
ENCODING 57858
SWIDTH 1107 0
DWIDTH 20 0
BBX 20 20 0 0
BITMAP
000000
000000
006000
006000
006000
00F000
00F000
01F800
01F800
01F800
01F800
01F800
01F800
01F800
01F800
00F000
01F800
01F800
01F800
00F000
ENDCHAR
STARTCHAR E203
ENCODING 57859
SWIDTH 1107 0
DWIDTH 20 0
BBX 20 20 0 0
BITMAP
000000
000000
000000
000000
000000
000000
0FFF00
1FFF80
1FFF80
5FFFA0
7FFFE0
77FEE0
77FEE0
7FFFE0
7FFFE0
000000
000000
000000
000000
000000
ENDCHAR
STARTCHAR E204
ENCODING 57860
SWIDTH 1107 0
DWIDTH 20 0
BBX 20 20 0 0
BITMAP
000000
000000
009000
01B000
036000
024000
000000
000000
7FFFE0
7FFFE0
7FFFE0
3FFFC0
3FFFC0
1FFF80
0FFF00
07FE00
01F800
000000
7FFFE0
7FFFE0
ENDCHAR
STARTCHAR E205
ENCODING 57861
SWIDTH 1107 0
DWIDTH 20 0
BBX 20 20 0 0
BITMAP
000000
3C0000
3E0000
1E0000
0E0000
010000
000000
000000
008000
002000
001000
001000
000000
000400
000000
000100
000100
000080
000040
000000
ENDCHAR
STARTCHAR E206
ENCODING 57862
SWIDTH 1107 0
DWIDTH 20 0
BBX 20 20 0 0
BITMAP
000000
000000
03E400
060000
1C0080
180000
300040
200040
600020
400020
400020
400020
400060
600060
2000C0
2000C0
100180
080700
003C00
002000
ENDCHAR
STARTCHAR E207
ENCODING 57863
SWIDTH 1107 0
DWIDTH 20 0
BBX 20 20 0 0
BITMAP
000000
000000
007E00
0CFF00
0CFF80
0EFF80
07FF80
03FF80
00FF80
00FF80
007F80
00FF00
00FF00
01FE00
1FFC00
1FF800
180000
180000
1C0000
080000
ENDCHAR
STARTCHAR E208
ENCODING 57864
SWIDTH 1107 0
DWIDTH 20 0
BBX 20 20 0 0
BITMAP
000000
000000
000000
00F800
01FC00
03FC00
03FF80
0FFFC0
0FFFC0
3FFFC0
3FFFC0
3FFF80
000000
00E000
00F000
01E000
00C000
008000
010000
010000
ENDCHAR
STARTCHAR E209
ENCODING 57865
SWIDTH 1107 0
DWIDTH 20 0
BBX 20 20 0 0
BITMAP
000000
000000
3C0000
260000
67C000
4FF000
7FFE00
3FFF80
01FF80
00F3E0
00F3E0
007600
007C00
005400
00D600
009200
019300
011100
031180
001000
ENDCHAR
STARTCHAR E20A
ENCODING 57866
SWIDTH 1107 0
DWIDTH 20 0
BBX 20 20 0 0
BITMAP
000000
000000
009000
009000
009000
009000
009000
009000
00F000
00F000
00F000
00F000
00F000
00F000
00F000
016800
01F800
01F800
009000
006000
ENDCHAR
STARTCHAR E20B
ENCODING 57867
SWIDTH 1107 0
DWIDTH 20 0
BBX 20 20 0 0
BITMAP
000000
000000
009000
009000
00F000
00F000
00F000
00F000
00F000
00F000
00F000
00F000
00F000
00F000
00F000
016800
01F800
01F800
009000
006000
ENDCHAR
STARTCHAR E20C
ENCODING 57868
SWIDTH 1107 0
DWIDTH 20 0
BBX 20 20 0 0
BITMAP
000000
000000
009000
009000
009000
009000
009000
009000
009000
009000
009000
009000
00F000
00F000
00F000
016800
01F800
01F800
009000
006000
ENDCHAR
STARTCHAR E20D
ENCODING 57869
SWIDTH 1107 0
DWIDTH 20 0
BBX 20 20 0 0
BITMAP
000000
000000
600060
3000C0
180180
0C0300
060600
030C00
019800
00F000
006000
00F000
01D800
038C00
070600
0E0300
1C0180
3800C0
700060
400020
ENDCHAR
STARTCHAR E20E
ENCODING 57870
SWIDTH 1107 0
DWIDTH 20 0
BBX 20 20 0 0
BITMAP
000000
000000
03FC00
03FC00
03FC00
03FC00
03FC00
03FC00
000000
000000
1FFF80
1FFF80
0FFE00
07FE00
03FC00
01F800
01F800
01F800
03FC00
03FC00
ENDCHAR
STARTCHAR E20F
ENCODING 57871
SWIDTH 1107 0
DWIDTH 20 0
BBX 20 20 0 0
BITMAP
000000
000000
0F0060
0781C0
0381C0
638380
778600
7FCC00
3FE000
1FF000
03F800
01FC00
06FE00
0F7F00
1FBF80
3F1FC0
7E0FE0
7C07E0
7803E0
100080
ENDCHAR
STARTCHAR E210
ENCODING 57872
SWIDTH 1107 0
DWIDTH 20 0
BBX 20 20 0 0
BITMAP
000000
070E00
0FFF00
1FFF80
1FFF80
1FFF80
1FFF80
1FFF80
1FFF80
0FFF00
0FFF00
0F9F00
0F0F00
0F0F00
0E0700
0E0700
060600
070E00
010800
000000
ENDCHAR
STARTCHAR E211
ENCODING 57873
SWIDTH 1107 0
DWIDTH 20 0
BBX 20 20 0 0
BITMAP
000000
000000
000000
000000
3EF7C0
43FC20
419820
7D9BE0
3D9BC0
00F000
006000
006000
000000
009000
000000
000000
000000
004000
000000
000000
ENDCHAR
STARTCHAR E212
ENCODING 57874
SWIDTH 1107 0
DWIDTH 20 0
BBX 20 20 0 0
BITMAP
000000
000000
7FFFE0
7FFFE0
7FFFE0
7FFFE0
7FFFE0
6A8860
6AE960
60CBE0
64A960
748860
7FFFE0
7FFFE0
7FFFE0
7FFFE0
1FFF80
07FE00
00F000
000000
ENDCHAR
STARTCHAR E213
ENCODING 57875
SWIDTH 1107 0
DWIDTH 20 0
BBX 20 20 0 0
BITMAP
000000
000000
00E000
00E000
000000
00E000
01E000
03F000
02F800
06CE00
07C000
07C000
01E000
01F000
01B000
01B000
031800
031800
061800
020000
ENDCHAR
STARTCHAR E214
ENCODING 57876
SWIDTH 1107 0
DWIDTH 20 0
BBX 20 20 0 0
BITMAP
000000
000000
006000
006000
09F900
0FFF00
0FFF00
0FFF00
1FFF80
1FFF80
7FFFE0
3FFFC0
1FFF80
0FFF00
0FFF00
0FFF00
0FFF00
006000
006000
000000
ENDCHAR
STARTCHAR E215
ENCODING 57877
SWIDTH 1107 0
DWIDTH 20 0
BBX 20 20 0 0
BITMAP
000000
000000
01F800
07FE00
0FFF00
1FFF80
3FFFC0
3FE3C0
7F83E0
7C23E0
7043E0
7F87E0
7F07E0
7E47E0
3FE7C0
1FFF80
1FFF80
0FFF00
03FC00
000000
ENDCHAR
STARTCHAR E216
ENCODING 57878
SWIDTH 1107 0
DWIDTH 20 0
BBX 20 20 0 0
BITMAP
000000
000000
000600
000E00
000E00
001C00
001C00
003800
003800
007000
007000
00E000
01C000
01C000
038000
038000
070000
070000
0E0000
020000
ENDCHAR
STARTCHAR E217
ENCODING 57879
SWIDTH 1107 0
DWIDTH 20 0
BBX 20 20 0 0
BITMAP
000000
000000
000000
0000E0
0003E0
001FE0
007DC0
03FBC0
0FE7C0
7FCFC0
7F1FC0
0E3F80
007F80
00FF80
02FF80
00DF80
008F00
010300
000000
000000
ENDCHAR
STARTCHAR E218
ENCODING 57880
SWIDTH 1107 0
DWIDTH 20 0
BBX 20 20 0 0
BITMAP
000000
000000
000000
010800
1F9F80
7FFFE0
7FFFE0
3FFFE0
3FFFC0
3FFFC0
07FE00
07FE00
07FE00
07FE00
07FE00
07FE00
07FE00
07FE00
000000
000000
ENDCHAR
STARTCHAR E219
ENCODING 57881
SWIDTH 1107 0
DWIDTH 20 0
BBX 20 20 0 0
BITMAP
000000
000000
000000
000000
000000
000000
0BC000
1FF000
383B00
2FED80
5FF7C0
3F5BC0
3FDB60
3FBD60
7FFF60
7FFE40
000000
000000
000000
000000
ENDCHAR
STARTCHAR E21A
ENCODING 57882
SWIDTH 1107 0
DWIDTH 20 0
BBX 20 20 0 0
BITMAP
000000
000000
660000
660000
370000
1B0000
0D8000
078000
03C000
03C000
01A000
00C000
007000
003780
007FC0
003C20
01F5C0
01DBC0
017C00
000000
ENDCHAR
STARTCHAR E21B
ENCODING 57883
SWIDTH 1107 0
DWIDTH 20 0
BBX 20 20 0 0
BITMAP
000000
600000
700000
780000
7C0000
7E0000
1F0000
7F8000
7FC000
1FE000
7BF000
79F800
18FC00
787E00
783F00
1FFF80
1FFFC0
7FFFE0
7FFFE0
000000
ENDCHAR
STARTCHAR E21C
ENCODING 57884
SWIDTH 1107 0
DWIDTH 20 0
BBX 20 20 0 0
BITMAP
000000
000000
01F800
07FC00
07FE00
0FFF00
0FFF80
0FFFC0
2FFFC0
3FFFC0
37FFC0
3FFF80
1DFF00
0F0000
00E000
00E000
00E000
00E000
00E000
00E000
ENDCHAR
STARTCHAR E21D
ENCODING 57885
SWIDTH 1107 0
DWIDTH 20 0
BBX 20 20 0 0
BITMAP
000000
000000
000000
008000
018000
0FF800
0C1800
180800
70FE00
31FC00
13FC00
33FF80
77FFC0
1FFFE0
0FFFE0
7FFFE0
7FFFC0
7FFF80
000000
000000
ENDCHAR
STARTCHAR E21E
ENCODING 57886
SWIDTH 1107 0
DWIDTH 20 0
BBX 20 20 0 0
BITMAP
000000
000000
000000
07FF00
0C7300
149280
338AC0
630E60
7FFFE0
210440
110C80
090900
048A00
029600
01DC00
01F800
00F000
006000
000000
000000
ENDCHAR
STARTCHAR E21F
ENCODING 57887
SWIDTH 1107 0
DWIDTH 20 0
BBX 20 20 0 0
BITMAP
000000
000300
000380
000DC0
000FE0
003FE0
005FC0
00EF80
017F00
01FE00
06FC00
07F800
1FF000
2FE000
77C000
3F8000
1F0000
0E0000
040000
000000
ENDCHAR
STARTCHAR E220
ENCODING 57888
SWIDTH 1107 0
DWIDTH 20 0
BBX 20 20 0 0
BITMAP
000000
000000
006000
03FC00
07FE00
0FFF00
1FFF80
3FFFC0
3FFFC0
436C20
006000
006000
006000
006000
006000
006000
0C6000
0C4000
07C000
000000
ENDCHAR
STARTCHAR E221
ENCODING 57889
SWIDTH 1107 0
DWIDTH 20 0
BBX 20 20 0 0
BITMAP
000000
000000
01F800
033C00
027C00
067E00
06FE00
06FE00
06FE00
07FE00
07FE00
060600
060600
060600
060600
060600
020400
030C00
01F800
006000
ENDCHAR
STARTCHAR E222
ENCODING 57890
SWIDTH 1107 0
DWIDTH 20 0
BBX 20 20 0 0
BITMAP
000000
00E000
00F000
007000
00F000
03F800
07B800
063800
0C3C00
0C0000
0C0000
0C0000
0C0000
0E1F00
071E00
03FC00
01F800
07FE00
03FC00
000000
ENDCHAR
STARTCHAR E223
ENCODING 57891
SWIDTH 1107 0
DWIDTH 20 0
BBX 20 20 0 0
BITMAP
000000
000000
006000
006000
006000
00F000
01F800
03FC00
03FC00
000000
01F800
01F800
007800
01F800
007800
01F800
01F800
01F800
01F800
01F800
ENDCHAR
STARTCHAR E224
ENCODING 57892
SWIDTH 1107 0
DWIDTH 20 0
BBX 20 20 0 0
BITMAP
000000
000000
000000
000000
000000
000000
000000
000000
000000
7FFFE0
7FFFE0
7FFFE0
000000
000000
000000
000000
000000
000000
000000
000000
ENDCHAR
STARTCHAR E225
ENCODING 57893
SWIDTH 1107 0
DWIDTH 20 0
BBX 20 20 0 0
BITMAP
000000
000000
00F000
00F000
00F000
006000
006000
006000
00F000
01F800
01F800
01F800
01F800
37FEC0
7C63E0
7C03E0
7801E0
3000C0
000000
000000
ENDCHAR
STARTCHAR E226
ENCODING 57894
SWIDTH 1107 0
DWIDTH 20 0
BBX 20 20 0 0
BITMAP
000000
000000
000000
000000
0E0000
140000
240000
40F000
45F800
47FC00
47FC00
43FFC0
2FFFE0
1FFFE0
7FFFE0
7FFFE0
7FFFC0
000000
000000
000000
ENDCHAR
STARTCHAR E227
ENCODING 57895
SWIDTH 1107 0
DWIDTH 20 0
BBX 20 20 0 0
BITMAP
000000
000000
03FC00
0FFF00
1FFF80
3FFFC0
3FFFC0
7FFFE0
7FFFE0
3FFFC0
1FFF80
00F000
00F000
00F000
00F000
03FC00
03FC00
03FC00
01F800
006000
ENDCHAR
STARTCHAR E228
ENCODING 57896
SWIDTH 1107 0
DWIDTH 20 0
BBX 20 20 0 0
BITMAP
000000
000000
000000
000000
000000
000000
000000
000000
039C00
07FE00
0FFF00
3F9FC0
1F0F80
000000
000000
000000
000000
000000
000000
000000
ENDCHAR
STARTCHAR E229
ENCODING 57897
SWIDTH 1107 0
DWIDTH 20 0
BBX 20 20 0 0
BITMAP
000000
000000
000000
000000
000000
000000
000C00
000100
000400
000000
720200
000000
404B00
701B00
000600
000000
000000
000000
000000
000000
ENDCHAR
STARTCHAR E22A
ENCODING 57898
SWIDTH 1107 0
DWIDTH 20 0
BBX 20 20 0 0
BITMAP
000000
000000
000000
000000
000000
000000
000000
000000
1FFF80
400020
4F1820
4E3220
3FFFC0
000000
000000
000000
000000
000000
000000
000000
ENDCHAR
STARTCHAR E22B
ENCODING 57899
SWIDTH 1107 0
DWIDTH 20 0
BBX 20 20 0 0
BITMAP
000000
000000
03FC00
0FFF00
1C6380
1C63C0
3EF7C0
3FFFE0
63FC60
63FC60
77FEE0
7FFFE0
7FFFC0
7FFF80
3FFE00
3FE000
1FE000
0FE000
03E000
006000
ENDCHAR
STARTCHAR E22C
ENCODING 57900
SWIDTH 1107 0
DWIDTH 20 0
BBX 20 20 0 0
BITMAP
000000
000000
000000
0FFFE0
1FFFE0
3FFFE0
7FFFC0
439C00
039C00
039C00
039C00
039C00
039C00
039C00
079C00
079C20
0F9E20
0F8FE0
0F0FC0
060780
ENDCHAR
STARTCHAR E22D
ENCODING 57901
SWIDTH 1107 0
DWIDTH 20 0
BBX 20 20 0 0
BITMAP
000000
000000
000000
078000
03E000
027800
061C00
044E00
040700
0C0380
081980
0E1DC0
1E08C0
1400C0
1070E0
2027E0
279C00
27E000
470000
780000
ENDCHAR
STARTCHAR E22E
ENCODING 57902
SWIDTH 1107 0
DWIDTH 20 0
BBX 20 20 0 0
BITMAP
000000
000000
000000
000000
000000
00F000
01F800
03FC80
0FFE60
07FEE0
27FDE0
77DFC0
7FFF00
3FF800
003C00
00F000
000000
000000
000000
000000
ENDCHAR
STARTCHAR E22F
ENCODING 57903
SWIDTH 1107 0
DWIDTH 20 0
BBX 20 20 0 0
BITMAP
000000
000000
7C0000
7F0000
7F8000
3F80E0
3FC7E0
3DCFE0
1FCFC0
0ECFC0
00CF80
007B00
007000
007000
003000
002000
002000
003000
003000
002000
ENDCHAR
STARTCHAR E230
ENCODING 57904
SWIDTH 1107 0
DWIDTH 20 0
BBX 20 20 0 0
BITMAP
000000
000000
000000
000000
000000
00E000
00F800
00EC00
00EE00
00EE00
00EE00
00EE00
00EC00
0EEF80
3CFCE0
70E3E0
3EEF00
00FC00
000000
000000
ENDCHAR
STARTCHAR E231
ENCODING 57905
SWIDTH 1107 0
DWIDTH 20 0
BBX 20 20 0 0
BITMAP
000000
000000
01F800
03FC00
07FE00
07FE00
07FE00
046200
04F200
07FE00
079E00
13FC80
19F980
3E07C0
33FCC0
00F000
379EC0
3C03C0
3801C0
100080
ENDCHAR
STARTCHAR E232
ENCODING 57906
SWIDTH 1107 0
DWIDTH 20 0
BBX 20 20 0 0
BITMAP
000000
000000
00C000
01E000
0FFC00
0FFC00
1FFF00
3FFF00
3FFF00
1FFE00
0FFC40
07F860
6CDC00
2F3C00
0FFC80
0FFDC0
0FFC00
0FFC00
07FC00
000000
ENDCHAR
STARTCHAR E233
ENCODING 57907
SWIDTH 1107 0
DWIDTH 20 0
BBX 20 20 0 0
BITMAP
000000
000000
00F000
01F800
03FC00
03FC00
03FC00
03FC00
03FC00
03FC00
03FC00
03FC00
03FC00
000000
006000
006000
006000
006000
006000
006000
ENDCHAR
STARTCHAR E234
ENCODING 57908
SWIDTH 1107 0
DWIDTH 20 0
BBX 20 20 0 0
BITMAP
000000
000000
000000
006000
006000
006000
006400
04E600
0CA600
0CBF00
7EBDE0
03B800
031800
031800
031800
011800
001800
001800
000000
000000
ENDCHAR
STARTCHAR E235
ENCODING 57909
SWIDTH 1107 0
DWIDTH 20 0
BBX 20 20 0 0
BITMAP
000000
000000
03FC00
02FC00
02FC00
03FC00
1FFDC0
3FFDC0
7FFDE0
7FFFE0
7E07E0
7FFFE0
7BFFE0
3BFFC0
3BFFC0
03FC00
03FC00
03F400
03FC00
006000
ENDCHAR
STARTCHAR E236
ENCODING 57910
SWIDTH 1107 0
DWIDTH 20 0
BBX 20 20 0 0
BITMAP
000000
000000
03FC00
0FFF00
1FFF80
1F0F80
3E03C0
3CF3C0
78F9E0
78F9E0
78F9E0
78F9E0
78D9E0
7C43E0
3E07C0
3FC3C0
1FFB80
0FFF00
03FC00
006000
ENDCHAR
STARTCHAR E237
ENCODING 57911
SWIDTH 1107 0
DWIDTH 20 0
BBX 20 20 0 0
BITMAP
000000
000000
7FFFE0
7FFFE0
7FFFE0
7FFFE0
7F0FE0
7C63E0
7CF3E0
78F1E0
78F9E0
78F9E0
78F1E0
7CC3E0
7E07E0
7F87E0
7FF3E0
7FFFE0
7FFFE0
3FFFC0
ENDCHAR
STARTCHAR E238
ENCODING 57912
SWIDTH 1107 0
DWIDTH 20 0
BBX 20 20 0 0
BITMAP
000000
000000
040200
0C0300
1E0780
3E07C0
3F0FC0
7F0FE0
7EF7E0
7EF7E0
00F000
00F000
000000
00F000
01F800
01F800
03FC00
03FC00
01F800
000000
ENDCHAR
STARTCHAR E239
ENCODING 57913
SWIDTH 1107 0
DWIDTH 20 0
BBX 20 20 0 0
BITMAP
000000
000000
000000
00F800
01FC00
03FC00
03FF80
07FFC0
0FFFE0
3FFFE0
7FFFE0
7FFFC0
3FFF80
000000
000A00
00A000
0A0000
001400
010000
000000
ENDCHAR
STARTCHAR E23A
ENCODING 57914
SWIDTH 1107 0
DWIDTH 20 0
BBX 20 20 0 0
BITMAP
000000
000000
002000
032400
012C00
012C00
03FC00
01FE00
0E7E00
0FBE00
0FBD00
0FDB00
0FE700
0FEF00
07EE00
07F200
03FC00
01FC00
00F800
003000
ENDCHAR
STARTCHAR E23B
ENCODING 57915
SWIDTH 1107 0
DWIDTH 20 0
BBX 20 20 0 0
BITMAP
000000
000000
03FC00
03FC00
03FC00
03FC00
03FC00
03FC00
03FC00
03FC00
03FC00
03FC00
03FC00
03FC00
03FC00
03FC00
03FC00
03FC00
03FC00
01F800
ENDCHAR
STARTCHAR E23C
ENCODING 57916
SWIDTH 1107 0
DWIDTH 20 0
BBX 20 20 0 0
BITMAP
000000
000000
0FFFE0
0FFFE0
7FFF20
7FFF20
7FFF20
400120
400120
400120
400120
400120
400120
400120
400120
400120
4001E0
400100
7FFF00
000000
ENDCHAR
STARTCHAR E23D
ENCODING 57917
SWIDTH 1107 0
DWIDTH 20 0
BBX 20 20 0 0
BITMAP
000000
000000
01F800
01F800
01F800
03FC00
076E00
0C0300
180180
180180
100080
3000C0
3000C0
100080
180180
180180
0C0300
070E00
03FC00
006000
ENDCHAR
STARTCHAR E23E
ENCODING 57918
SWIDTH 1107 0
DWIDTH 20 0
BBX 20 20 0 0
BITMAP
000000
000000
000000
000000
079E00
070E00
126680
3AF0C0
78F8E0
000000
7DFDE0
3DF9C0
1CFB80
0EF300
06F200
027400
016000
002000
000000
000000
ENDCHAR
STARTCHAR E23F
ENCODING 57919
SWIDTH 1107 0
DWIDTH 20 0
BBX 20 20 0 0
BITMAP
000000
03FC00
04F200
0B0C00
05F200
0B0D00
17F200
050A80
0AF580
159580
0D5580
1AD680
04AA80
097A80
12D500
0D9400
031200
05E800
002000
000000
ENDCHAR
STARTCHAR E240
ENCODING 57920
SWIDTH 1107 0
DWIDTH 20 0
BBX 20 20 0 0
BITMAP
000000
000000
600300
60F380
60F380
60F3C0
60F3E0
6063E0
7007E0
7FFFE0
7FFFE0
7FFFE0
7001E0
6000E0
6000E0
6000E0
6000E0
6000E0
7FFFE0
3FFFC0
ENDCHAR
STARTCHAR E241
ENCODING 57921
SWIDTH 1107 0
DWIDTH 20 0
BBX 20 20 0 0
BITMAP
000000
000000
000700
000780
0007C0
0E0FC0
1E0FC0
3E0FC0
3F0FC0
3F0780
3F0F80
3F0F80
1F0F00
0F1F00
0F9E00
079E00
07CE00
03C000
03C000
010000
ENDCHAR
STARTCHAR E242
ENCODING 57922
SWIDTH 1107 0
DWIDTH 20 0
BBX 20 20 0 0
BITMAP
000000
000000
000000
000000
104080
206040
207040
40E820
40F820
41D820
418820
408820
200040
200040
13FE80
080180
000000
000000
000000
000000
ENDCHAR
STARTCHAR E243
ENCODING 57923
SWIDTH 1107 0
DWIDTH 20 0
BBX 20 20 0 0
BITMAP
000000
000000
000000
000000
000000
000000
000000
000000
000E00
31F980
4FFF20
1BFCC0
061C00
000000
000000
000000
000000
000000
000000
000000
ENDCHAR
STARTCHAR E244
ENCODING 57924
SWIDTH 1107 0
DWIDTH 20 0
BBX 20 20 0 0
BITMAP
000000
000000
0FFFE0
180020
7FFF20
4001A0
4001A0
4001A0
4039A0
4039A0
4011A0
4001A0
4001A0
4039A0
47FDA0
4FFDA0
5FFDE0
400180
7FFF80
000000
ENDCHAR
STARTCHAR E245
ENCODING 57925
SWIDTH 1107 0
DWIDTH 20 0
BBX 20 20 0 0
BITMAP
000000
000000
000000
000000
000000
000000
039C00
0C0300
180180
7F07E0
61F860
20F040
209040
219840
1F0F80
000000
000000
000000
000000
000000
ENDCHAR
STARTCHAR E246
ENCODING 57926
SWIDTH 1107 0
DWIDTH 20 0
BBX 20 20 0 0
BITMAP
000000
000000
000000
00F800
03FC00
037E00
07BE00
0FFF00
0F9F00
1F9F80
1F0FC0
3F0FC0
7E07E0
7C07E0
3FFFC0
3BFFC0
1FFF80
17FF80
000000
000000
ENDCHAR
STARTCHAR E247
ENCODING 57927
SWIDTH 1107 0
DWIDTH 20 0
BBX 20 20 0 0
BITMAP
000000
000000
000000
600000
740000
7B0000
7DC000
7EF000
7F7C00
7FBA00
7FD780
7FEFE0
7FD7C0
7FBB00
7F7C00
7EF000
7DC000
7B0000
740000
600000
ENDCHAR
STARTCHAR E248
ENCODING 57928
SWIDTH 1107 0
DWIDTH 20 0
BBX 20 20 0 0
BITMAP
000000
000000
000000
006000
006000
006000
03FC00
060600
040200
0CF300
09F900
79F9E0
09F900
08F100
0C6300
060600
03FC00
00F000
006000
006000
ENDCHAR
STARTCHAR E249
ENCODING 57929
SWIDTH 1107 0
DWIDTH 20 0
BBX 20 20 0 0
BITMAP
000000
000000
03FC00
0FDF00
1FD380
1FCD80
3FDBC0
3F9DC0
7F03E0
7E33E0
7C01E0
788CE0
791FE0
7B3FE0
3E7FC0
3E7FC0
1CFF80
0DFF00
03FC00
006000
ENDCHAR
STARTCHAR E24A
ENCODING 57930
SWIDTH 1107 0
DWIDTH 20 0
BBX 20 20 0 0
BITMAP
000000
000000
006000
006000
000000
006000
006000
006000
006000
006000
00F000
01F800
019800
000000
019800
03FC00
03FC00
01F800
01F800
006000
ENDCHAR
STARTCHAR E24B
ENCODING 57931
SWIDTH 1107 0
DWIDTH 20 0
BBX 20 20 0 0
BITMAP
000000
000000
3E07C0
3FFFC0
3FFFC0
39FDC0
3801C0
3801C0
1001C0
3801C0
3C01C0
0001C0
0001C0
0007C0
003F80
007F00
007C00
003000
002000
002000
ENDCHAR
STARTCHAR E24C
ENCODING 57932
SWIDTH 1107 0
DWIDTH 20 0
BBX 20 20 0 0
BITMAP
000000
000000
000000
000000
000000
0C0300
1C0380
7C03E0
7C03E0
7C03E0
7FFFE0
7FFFE0
7C03E0
7C03E0
1C0380
1C0300
000000
000000
000000
000000
ENDCHAR
STARTCHAR E24D
ENCODING 57933
SWIDTH 1107 0
DWIDTH 20 0
BBX 20 20 0 0
BITMAP
000000
000000
000000
00F000
07FE00
0FFF00
1FFF80
3FFFC0
3FFFC0
3FFFC0
000000
7FFFE0
7FFFE0
7FFFE0
3FFFC0
3FFFC0
3FFFC0
3FFFC0
000000
000000
ENDCHAR
STARTCHAR E24E
ENCODING 57934
SWIDTH 1107 0
DWIDTH 20 0
BBX 20 20 0 0
BITMAP
000000
000000
000000
000000
000000
000000
000000
000000
00F000
03F800
03FC00
7EFFE0
3FFFC0
000000
000000
000000
000000
000000
000000
000000
ENDCHAR
STARTCHAR E24F
ENCODING 57935
SWIDTH 1107 0
DWIDTH 20 0
BBX 20 20 0 0
BITMAP
000000
00F000
03FC00
07FE00
1FFF80
3FFFC0
3FFFC0
3FFFC0
3FFFC0
3FFFC0
3FFFC0
3FFFC0
3FFFC0
3FFFC0
1FFF80
0FFF00
03FC00
00F000
006000
000000
ENDCHAR
STARTCHAR E250
ENCODING 57936
SWIDTH 1107 0
DWIDTH 20 0
BBX 20 20 0 0
BITMAP
000000
000000
000000
300000
780000
7C0000
7E0000
7F0000
3F8000
33C000
11F180
10FFC0
10FFE0
107FE0
107FE0
107FC0
103FC0
103FC0
001C00
000000
ENDCHAR
STARTCHAR E251
ENCODING 57937
SWIDTH 1107 0
DWIDTH 20 0
BBX 20 20 0 0
BITMAP
000000
000000
3F0000
7C8000
664000
3B2000
5B9000
49C800
266400
23B200
11B900
089C80
044640
023B40
011DC0
008DC0
0046E0
002360
001FE0
000080
ENDCHAR
STARTCHAR E252
ENCODING 57938
SWIDTH 1107 0
DWIDTH 20 0
BBX 20 20 0 0
BITMAP
000000
000000
000000
003000
007000
007800
01F800
00F800
03DC00
07FE00
03FC00
01F800
01F800
01F800
00F000
00F000
00F000
006000
006000
006000
ENDCHAR
STARTCHAR E253
ENCODING 57939
SWIDTH 1107 0
DWIDTH 20 0
BBX 20 20 0 0
BITMAP
000000
000000
000000
000000
000000
7FFFE0
409120
4C9120
4C9120
5EFFE0
7F8020
7FFFE0
7F8020
7FFFE0
7F8020
7FFFE0
000000
000000
000000
000000
ENDCHAR
STARTCHAR E254
ENCODING 57940
SWIDTH 1107 0
DWIDTH 20 0
BBX 20 20 0 0
BITMAP
000000
000000
000000
000000
000000
000000
000000
7DBD80
7DBD80
7DBDE0
7FBDE0
7EBDE0
7ABDE0
7ABDE0
000000
000000
000000
000000
000000
000000
ENDCHAR
STARTCHAR E255
ENCODING 57941
SWIDTH 1107 0
DWIDTH 20 0
BBX 20 20 0 0
BITMAP
000000
000000
000000
000000
000000
000000
040200
3F0FC0
219840
60F060
406020
40F020
619860
3F0FC0
0C0300
000000
000000
000000
000000
000000
ENDCHAR
STARTCHAR E256
ENCODING 57942
SWIDTH 1107 0
DWIDTH 20 0
BBX 20 20 0 0
BITMAP
000000
000000
001000
002400
005000
00A000
00A000
00B000
001000
000300
041880
000000
03FA00
000000
01F800
080100
07F800
00F000
000000
000000
ENDCHAR
STARTCHAR E257
ENCODING 57943
SWIDTH 1107 0
DWIDTH 20 0
BBX 20 20 0 0
BITMAP
000000
000000
000000
000000
000000
00F000
07FE00
1FFF80
7FFFE0
1FFF80
03FC00
70F0E0
1C0380
079E00
60F060
1C03C0
070E00
01F800
000000
000000
ENDCHAR
STARTCHAR E258
ENCODING 57944
SWIDTH 1107 0
DWIDTH 20 0
BBX 20 20 0 0
BITMAP
000000
000000
000000
000000
000000
03FC00
05DE00
1FFF80
3FFFC0
3FFFC0
7801E0
5FFFA0
67FFE0
3FFFC0
1FFF80
07FE00
000000
000000
000000
000000
ENDCHAR
STARTCHAR E259
ENCODING 57945
SWIDTH 1107 0
DWIDTH 20 0
BBX 20 20 0 0
BITMAP
000000
000000
007000
00F000
00F000
00F000
00F000
00F000
00F000
00F000
00F000
00F000
00F000
00F000
01F800
01F800
01F800
01F800
01F800
01F800
ENDCHAR
STARTCHAR E25A
ENCODING 57946
SWIDTH 1107 0
DWIDTH 20 0
BBX 20 20 0 0
BITMAP
000000
000000
000000
000000
000000
0FEBC0
3FF3E0
3FFFC0
7FFFC0
7FFF80
7FFE00
7FF000
7FC000
7F0000
780000
300000
000000
000000
000000
000000
ENDCHAR
STARTCHAR E25B
ENCODING 57947
SWIDTH 1107 0
DWIDTH 20 0
BBX 20 20 0 0
BITMAP
000000
000000
006000
006000
006000
076E00
0FFF00
1FFF80
1FFF80
3F9FC0
3F9FC0
7F9FE0
7F9FE0
7F9FE0
7F9FE0
7F9FE0
7F0FE0
7E07E0
3801C0
000000
ENDCHAR
STARTCHAR E25C
ENCODING 57948
SWIDTH 1107 0
DWIDTH 20 0
BBX 20 20 0 0
BITMAP
000000
000000
03C000
03C800
03C000
01C000
008000
008400
008C00
008C00
000C00
008C00
008400
008400
008400
008400
008400
008400
008400
000400
ENDCHAR
STARTCHAR E25D
ENCODING 57949
SWIDTH 1107 0
DWIDTH 20 0
BBX 20 20 0 0
BITMAP
000000
000000
7FFFE0
7FFFE0
400020
400020
400020
400020
400020
400020
400020
400020
400020
400020
400020
400020
400020
400020
7FFFE0
000000
ENDCHAR
STARTCHAR E25E
ENCODING 57950
SWIDTH 1107 0
DWIDTH 20 0
BBX 20 20 0 0
BITMAP
000000
000000
000000
000000
3FFFC0
7FFFA0
7FFFE0
7FFFE0
7FFBE0
7FFEE0
7FFBE0
7FFC20
7FFFE0
7FFFE0
7FFFE0
7FFFC0
7FFF80
000000
000000
000000
ENDCHAR
STARTCHAR E25F
ENCODING 57951
SWIDTH 1107 0
DWIDTH 20 0
BBX 20 20 0 0
BITMAP
000000
000000
00F000
01F000
03F800
03FC00
03FE00
03C000
07C000
07E000
03F000
03F800
03F000
03F000
03F800
03F800
03F800
07F800
03F800
03F800
ENDCHAR
STARTCHAR E260
ENCODING 57952
SWIDTH 1107 0
DWIDTH 20 0
BBX 20 20 0 0
BITMAP
000000
000000
004000
000000
00F000
01F800
00F000
006000
006000
00F000
006000
006000
006000
00F000
00F000
00F800
01F800
01F800
01F800
01F800
ENDCHAR
STARTCHAR E261
ENCODING 57953
SWIDTH 1107 0
DWIDTH 20 0
BBX 20 20 0 0
BITMAP
000000
000000
00F000
00F000
00F000
00F000
01F800
01F800
006000
007000
00F000
00F000
00F800
01F800
01F800
03FC00
03FC00
03FC00
03FC00
03FC00
ENDCHAR
STARTCHAR E262
ENCODING 57954
SWIDTH 1107 0
DWIDTH 20 0
BBX 20 20 0 0
BITMAP
000000
000000
006000
006000
01F800
00F000
00F000
006000
006000
00F000
006000
006000
007000
00F000
00F000
01F800
01F800
03FC00
01F800
01F800
ENDCHAR
STARTCHAR E263
ENCODING 57955
SWIDTH 1107 0
DWIDTH 20 0
BBX 20 20 0 0
BITMAP
000000
000000
036C00
03FC00
01F800
01F800
01F800
01F800
01F800
01F800
01F800
01F800
01F800
03FC00
03FC00
07FE00
07FE00
07FE00
03FC00
07FE00
ENDCHAR
STARTCHAR E264
ENCODING 57956
SWIDTH 1107 0
DWIDTH 20 0
BBX 20 20 0 0
BITMAP
000000
000000
000000
000200
000F00
000700
018E00
0FFE00
3FFFC0
0FF9C0
7E39E0
7FF8E0
5EFFE0
0EFFE0
0FFFE0
3BFFC0
3FF3C0
0033C0
000000
000000
ENDCHAR
STARTCHAR E265
ENCODING 57957
SWIDTH 1107 0
DWIDTH 20 0
BBX 20 20 0 0
BITMAP
000000
000000
000300
000300
000700
000600
003C00
007300
007F00
00FF00
00FF00
00FE00
00FE00
01FC00
01FC00
03F800
03F000
07C000
0F8000
0C0000
ENDCHAR
STARTCHAR E266
ENCODING 57958
SWIDTH 1107 0
DWIDTH 20 0
BBX 20 20 0 0
BITMAP
000000
000000
03FC00
07FE00
77FEE0
77FEE0
07FE00
37FEC0
77FEE0
77FEE0
07FE00
77FEE0
77FEE0
07FE00
07FE00
77FEE0
77FEE0
07FE00
07FE00
000000
ENDCHAR
STARTCHAR E267
ENCODING 57959
SWIDTH 1107 0
DWIDTH 20 0
BBX 20 20 0 0
BITMAP
000000
000000
000000
001800
003800
005800
00E000
01F000
039E00
038000
01E000
3264C0
416820
406020
406020
410820
210840
1E0780
000000
000000
ENDCHAR
STARTCHAR E268
ENCODING 57960
SWIDTH 1107 0
DWIDTH 20 0
BBX 20 20 0 0
BITMAP
000000
000000
000000
000000
000000
000000
00F800
01FC00
03FC00
03FFC0
0FFFC0
0FFFE0
3FFFE0
7FFFE0
7FFFC0
3FFF80
000000
000000
000000
000000
ENDCHAR
STARTCHAR E269
ENCODING 57961
SWIDTH 1107 0
DWIDTH 20 0
BBX 20 20 0 0
BITMAP
000000
000000
019000
006000
00F000
01F800
01F800
07FE00
0BFD00
07FE00
07FE00
07FE00
07FE00
07FE00
07FE00
03FC00
01F800
09F900
100080
000000
ENDCHAR
STARTCHAR E26A
ENCODING 57962
SWIDTH 1107 0
DWIDTH 20 0
BBX 20 20 0 0
BITMAP
000000
000000
000300
0007C0
0FC760
3FCF60
3FEFE0
606FE0
3FCDE0
7F8FC0
3F07C0
01F300
03E000
07D800
0FB000
0EF000
0BF000
0FE000
078000
000000
ENDCHAR
STARTCHAR E26B
ENCODING 57963
SWIDTH 1107 0
DWIDTH 20 0
BBX 20 20 0 0
BITMAP
000000
000000
000000
000000
000000
000000
000000
003400
020000
0006C0
003C00
01F060
7FFFE0
3EFF80
000000
000000
000000
000000
000000
000000
ENDCHAR
STARTCHAR E26C
ENCODING 57964
SWIDTH 1107 0
DWIDTH 20 0
BBX 20 20 0 0
BITMAP
000000
000000
000180
000740
000E20
001F00
003700
007100
007800
00D800
01C800
03E000
070000
0E0000
1E0000
3C0000
780000
780000
300000
000000
ENDCHAR
STARTCHAR E26D
ENCODING 57965
SWIDTH 1107 0
DWIDTH 20 0
BBX 20 20 0 0
BITMAP
000000
100000
180000
0C0000
0E0000
074000
1FE000
1FF000
0FF800
07FC00
03FE00
03F900
01E080
00E040
006040
006040
002080
001900
000600
000000
ENDCHAR
STARTCHAR E26E
ENCODING 57966
SWIDTH 1107 0
DWIDTH 20 0
BBX 20 20 0 0
BITMAP
000000
000000
000000
000000
000000
006000
000000
040200
446220
206040
13FC80
1FFF80
1FFF80
0FFF00
0FFF00
0FFF00
000000
000000
000000
000000
ENDCHAR
STARTCHAR E26F
ENCODING 57967
SWIDTH 1107 0
DWIDTH 20 0
BBX 20 20 0 0
BITMAP
000000
000000
03FC00
1FFF80
1FFF80
1FFF80
0FFF00
0FFF00
0FFF00
0F9F00
000000
000000
000000
0F0F00
0FFF00
07FE00
07FE00
07FE00
07FE00
03FC00
ENDCHAR
STARTCHAR E270
ENCODING 57968
SWIDTH 1107 0
DWIDTH 20 0
BBX 20 20 0 0
BITMAP
000000
000000
3FFFC0
7FFFE0
79F1E0
78F1E0
78F1E0
7DFBE0
7FFFE0
78F1E0
78F1E0
78F1E0
7FFFE0
7FFFE0
78F1E0
78F1E0
78F1E0
7FFFE0
7FFFE0
1FFF80
ENDCHAR
STARTCHAR E271
ENCODING 57969
SWIDTH 1107 0
DWIDTH 20 0
BBX 20 20 0 0
BITMAP
000000
000000
03FC00
0FFF00
1FFF80
1FFF80
3FFFC0
3F0FC0
7E07E0
7C63E0
7C63E0
7C63E0
7E07E0
7F0FE0
3FFFC0
3FFFC0
1FFF80
0FFF00
03FC00
006000
ENDCHAR
STARTCHAR E272
ENCODING 57970
SWIDTH 1107 0
DWIDTH 20 0
BBX 20 20 0 0
BITMAP
000000
000000
040200
07FE00
040200
05FA00
040600
020400
03FC00
019800
00F000
031800
060400
040600
040200
05FA00
040200
07FE00
040200
040200
ENDCHAR
STARTCHAR E273
ENCODING 57971
SWIDTH 1107 0
DWIDTH 20 0
BBX 20 20 0 0
BITMAP
000000
000000
000000
01F800
0EFF00
1DF780
3F0FC0
7E07E0
7606E0
7DFFE0
7BE7E0
7FFFA0
4FFF20
4FFB20
674860
3240C0
0E4700
03FC00
000000
000000
ENDCHAR
STARTCHAR E274
ENCODING 57972
SWIDTH 1107 0
DWIDTH 20 0
BBX 20 20 0 0
BITMAP
000000
000000
019800
01F800
01F800
01F800
01F800
00F000
000000
01F800
01F800
01F800
01F800
03FC00
03FC00
03FC00
03FC00
03FC00
03FC00
009000
ENDCHAR
STARTCHAR E275
ENCODING 57973
SWIDTH 1107 0
DWIDTH 20 0
BBX 20 20 0 0
BITMAP
000000
000000
006000
006000
00F000
00F000
01F800
03FC00
03FC00
07FE00
07FE00
0FFF00
0FFF00
0FFF00
0FFF00
0FFF00
07FE00
07FE00
03FC00
006000
ENDCHAR
STARTCHAR E276
ENCODING 57974
SWIDTH 1107 0
DWIDTH 20 0
BBX 20 20 0 0
BITMAP
000000
000000
03FC00
0FFF00
1FFF80
1FFF80
3FFFC0
3FFFC0
7FFFE0
7FFFE0
7FFFE0
7BFDE0
7BFDE0
79F9E0
3CF3C0
3F0FC0
1FFF80
0FFF00
03FC00
006000
ENDCHAR
STARTCHAR E277
ENCODING 57975
SWIDTH 1107 0
DWIDTH 20 0
BBX 20 20 0 0
BITMAP
000000
000000
00F000
01F800
07FE00
0FFF00
1FFF80
3FFFC0
3FFFC0
3FFFC0
1FFF80
2FFF40
33FCC0
39F9C0
3E67C0
3F0FC0
3FFFC0
3FFFC0
3FFFC0
1FFF80
ENDCHAR
STARTCHAR E278
ENCODING 57976
SWIDTH 1107 0
DWIDTH 20 0
BBX 20 20 0 0
BITMAP
000000
000000
00F000
019800
020400
0C0300
180180
3000C0
200040
200040
3000C0
3801C0
2C0340
220440
219840
20F040
200040
200040
3FFFC0
1FFF80
ENDCHAR
STARTCHAR E279
ENCODING 57977
SWIDTH 1107 0
DWIDTH 20 0
BBX 20 20 0 0
BITMAP
000000
000000
000000
000000
3FFFC0
7FFFE0
7FFFE0
7FFFE0
7FFFE0
000000
000000
000000
3FFFC0
7FFFE0
7FFFE0
7FFFE0
3FFFC0
000000
000000
000000
ENDCHAR
STARTCHAR E27A
ENCODING 57978
SWIDTH 1107 0
DWIDTH 20 0
BBX 20 20 0 0
BITMAP
000000
000000
000000
000000
000C00
000E00
7FE700
7FE380
7FE1C0
0000E0
7FE1C0
7FE380
7FE700
000E00
001C00
000800
000000
000000
000000
000000
ENDCHAR
STARTCHAR E27B
ENCODING 57979
SWIDTH 1107 0
DWIDTH 20 0
BBX 20 20 0 0
BITMAP
000000
000000
000000
00F000
01F800
03FC00
07FE00
0F9F00
1F3F80
3E7FC0
7CFFE0
799FE0
7B3FE0
3E7FC0
1EFF80
0F9F00
079E00
03FC00
00F000
000000
ENDCHAR
STARTCHAR E27C
ENCODING 57980
SWIDTH 1107 0
DWIDTH 20 0
BBX 20 20 0 0
BITMAP
000000
000000
3F9000
3F9800
3F9C00
3F9E00
3F9F00
3F9F80
3F8000
3FF000
3FF700
3FC380
3F81C0
3F9FC0
3F9FC0
3FC380
3FF700
3FF200
3FF880
3FFF00
ENDCHAR
STARTCHAR E27D
ENCODING 57981
SWIDTH 1107 0
DWIDTH 20 0
BBX 20 20 0 0
BITMAP
000000
000000
3F9000
3F9800
3F9C00
3F9E00
3F9F00
3F9F80
3F8000
3FF800
3FF300
3FE600
3FCC00
3F9FC0
3FCFC0
3FC600
3FE300
3FF000
3FF880
3FFF00
ENDCHAR
STARTCHAR E27E
ENCODING 57982
SWIDTH 1107 0
DWIDTH 20 0
BBX 20 20 0 0
BITMAP
000000
000000
000000
070000
090000
090600
010F00
7E1980
000980
000300
7FFE00
000000
0FFF80
0FFFC0
000060
000260
000360
0001C0
000000
000000
ENDCHAR
STARTCHAR E27F
ENCODING 57983
SWIDTH 1107 0
DWIDTH 20 0
BBX 20 20 0 0
BITMAP
000000
000000
020000
071A00
086100
086100
089100
03FC00
1108C0
460600
426420
466620
240240
090900
00F000
080100
080100
049000
070E00
000000
ENDCHAR
STARTCHAR E280
ENCODING 57984
SWIDTH 1107 0
DWIDTH 20 0
BBX 20 20 0 0
BITMAP
000000
000000
0F8000
1FC000
1FF000
1FF800
0FFC00
07FE00
01FE00
067F00
0F3F00
0F3F80
0F9F80
079F80
07CF00
03F000
01FC00
00FC00
007C00
001800
ENDCHAR
STARTCHAR E281
ENCODING 57985
SWIDTH 1107 0
DWIDTH 20 0
BBX 20 20 0 0
BITMAP
000000
000000
000100
000180
000100
0002C0
0006C0
000EC0
001EE0
787FE0
7FFDE0
3FFBE0
1FF3E0
07EFC0
003FC0
07FF80
07FF00
07FE00
01F800
000000
ENDCHAR
STARTCHAR E282
ENCODING 57986
SWIDTH 1107 0
DWIDTH 20 0
BBX 20 20 0 0
BITMAP
000000
000000
000000
000000
000300
000800
000800
000200
000200
7FFFE0
7FFFE0
3FFFC0
3FFFC0
3FFFC0
1FFF80
0FFF00
040200
000000
000000
000000
ENDCHAR
STARTCHAR E283
ENCODING 57987
SWIDTH 1107 0
DWIDTH 20 0
BBX 20 20 0 0
BITMAP
000000
000000
000000
1FFF80
3FFFC0
3FFFC0
3060C0
3060C0
000000
000000
7FFFE0
7FFFE0
7FFFE0
7FFFE0
7FFFE0
7FFFE0
3FFFC0
1E0780
000000
000000
ENDCHAR
STARTCHAR E284
ENCODING 57988
SWIDTH 1107 0
DWIDTH 20 0
BBX 20 20 0 0
BITMAP
000000
000000
00F000
00F000
01F800
1B6D80
3C03C0
3C03C0
180180
100080
100080
100080
180180
3C03C0
3C03C0
1E0780
01F800
00F000
00F000
006000
ENDCHAR
STARTCHAR E285
ENCODING 57989
SWIDTH 1107 0
DWIDTH 20 0
BBX 20 20 0 0
BITMAP
000000
000000
070000
0F8000
07C000
03E000
01F000
00F800
007C00
003E00
001F00
003E00
007C00
00F800
01F000
03E000
07C000
0F8000
070000
020000
ENDCHAR
STARTCHAR E286
ENCODING 57990
SWIDTH 1107 0
DWIDTH 20 0
BBX 20 20 0 0
BITMAP
000000
000000
020400
000000
040200
040200
05FE00
068600
0F9F00
1FFF80
259A40
460620
066600
036C00
016800
00F000
009800
0F0F00
000000
000000
ENDCHAR
STARTCHAR E287
ENCODING 57991
SWIDTH 1107 0
DWIDTH 20 0
BBX 20 20 0 0
BITMAP
000000
000000
03FC00
0FFF00
1FFF80
1C0F80
3807C0
3807C0
71E3E0
7001E0
7000E0
7000E0
71F8E0
7000E0
3801C0
3C03C0
1FFF80
0FFF00
03FC00
006000
ENDCHAR
STARTCHAR E288
ENCODING 57992
SWIDTH 1107 0
DWIDTH 20 0
BBX 20 20 0 0
BITMAP
000000
000000
7FFFE0
7FFFE0
7C0FE0
7807E0
7803E0
79E3E0
79E3E0
7803E0
7801E0
78F1E0
79F9E0
7801E0
7801E0
7C03E0
7FFFE0
7FFFE0
7FFFE0
3FFFC0
ENDCHAR
STARTCHAR E289
ENCODING 57993
SWIDTH 1107 0
DWIDTH 20 0
BBX 20 20 0 0
BITMAP
000000
000000
006000
00F000
00F000
00F000
3E67C0
7F6FE0
7FFFE0
7FFFE0
3F6FC0
1E0780
0E0700
0E0700
0F9F00
1FFF80
0DFB00
070E00
060600
000000
ENDCHAR
STARTCHAR E28A
ENCODING 57994
SWIDTH 1107 0
DWIDTH 20 0
BBX 20 20 0 0
BITMAP
000000
000000
000000
7F9FE0
7FFFE0
7FFFE0
7FFFE0
7FFFE0
7FFFE0
7FFFE0
7FFFE0
7FFFE0
7FFFE0
7FFFE0
7FFFE0
7FFFE0
7FFFE0
007000
000000
000000
ENDCHAR
STARTCHAR E28B
ENCODING 57995
SWIDTH 1107 0
DWIDTH 20 0
BBX 20 20 0 0
BITMAP
000000
000000
000000
7F9FE0
61F860
606060
606060
606060
606060
606060
606060
606060
606060
606060
606060
7F6FE0
7FFFE0
007000
000000
000000
ENDCHAR
STARTCHAR E28C
ENCODING 57996
SWIDTH 1107 0
DWIDTH 20 0
BBX 20 20 0 0
BITMAP
000000
000000
03E800
0FFE00
1FFF00
7FFF80
7FFF80
7FFFC0
7FFFE0
3FFFE0
3FFFE0
0FFFE0
07FFC0
01FF80
003F80
001F00
001000
001000
001000
000000
ENDCHAR
STARTCHAR E28D
ENCODING 57997
SWIDTH 1107 0
DWIDTH 20 0
BBX 20 20 0 0
BITMAP
000000
000000
000000
007000
00DC00
018700
070180
0C00C0
380060
700060
3807E0
1C0E80
4E3C60
3773C0
1BE400
059800
022000
01C000
000000
000000
ENDCHAR
STARTCHAR E28E
ENCODING 57998
SWIDTH 1107 0
DWIDTH 20 0
BBX 20 20 0 0
BITMAP
000000
000000
000000
100080
7E07E0
7F0FE0
7F9FE0
7FDFE0
7FFFE0
3FFFC0
3FFFC0
1FFF80
1FFF80
1FFF80
1FFF80
1F9F80
0F9F00
070600
000000
000000
ENDCHAR
STARTCHAR E28F
ENCODING 57999
SWIDTH 1107 0
DWIDTH 20 0
BBX 20 20 0 0
BITMAP
000000
000000
0000C0
000960
000B80
001F00
000E00
007400
00B800
01F800
03F000
07A000
06C000
0FC000
1F8000
1F0000
3E0000
2C0000
700000
400000
ENDCHAR
STARTCHAR E290
ENCODING 58000
SWIDTH 1107 0
DWIDTH 20 0
BBX 20 20 0 0
BITMAP
000000
000000
03FC00
0F0F00
1C0380
186180
3060C0
200040
60F060
60F060
60F060
60F060
606060
606060
3060C0
3861C0
1C0380
0E0700
03FC00
006000
ENDCHAR
STARTCHAR E291
ENCODING 58001
SWIDTH 1107 0
DWIDTH 20 0
BBX 20 20 0 0
BITMAP
000000
000000
03FC00
0F0F00
1C0380
180180
3000C0
200040
639E60
663060
643060
663060
67DE60
600060
3000C0
3800C0
1C0380
0E0700
03FC00
006000
ENDCHAR
STARTCHAR E292
ENCODING 58002
SWIDTH 1107 0
DWIDTH 20 0
BBX 20 20 0 0
BITMAP
000000
000000
03FC00
0F0F00
1C0380
182180
3020C0
3CF860
6F8060
63C060
60F860
603E60
601FE0
61F9E0
30E0C0
3820C0
1C0380
0E0700
03FC00
006000
ENDCHAR
STARTCHAR E293
ENCODING 58003
SWIDTH 1107 0
DWIDTH 20 0
BBX 20 20 0 0
BITMAP
000000
000000
03FC00
0F0F00
1C0380
180180
30F8C0
3DF840
6F8060
67F060
63F860
67FE60
6387E0
6181E0
31F8C0
3878C0
1C0380
0E0700
03FC00
006000
ENDCHAR
STARTCHAR E294
ENCODING 58004
SWIDTH 1107 0
DWIDTH 20 0
BBX 20 20 0 0
BITMAP
000000
000000
03FC00
0F0F00
1C0380
180180
330CC0
3B9C40
7F9860
67F860
61F860
61FC60
607FE0
61FBE0
3060C0
3860C0
1C0380
0E0700
03FC00
006000
ENDCHAR
STARTCHAR E295
ENCODING 58005
SWIDTH 1107 0
DWIDTH 20 0
BBX 20 20 0 0
BITMAP
000000
000000
03FC00
0F0F00
1C0380
180180
3000C0
200040
61F860
61F860
600060
61F860
61F860
600060
3000C0
3800C0
1C0380
0E0700
03FC00
006000
ENDCHAR
STARTCHAR E296
ENCODING 58006
SWIDTH 1107 0
DWIDTH 20 0
BBX 20 20 0 0
BITMAP
000000
000000
03FC00
0F0F00
1C0380
180180
33E0C0
23F840
63FC60
67FC60
6FFE60
6F8B60
6F4560
601F60
3000C0
3800C0
1C0380
0E0700
03FC00
006000
ENDCHAR
STARTCHAR E297
ENCODING 58007
SWIDTH 1107 0
DWIDTH 20 0
BBX 20 20 0 0
BITMAP
000000
000000
03FC00
0F0F00
1C0380
180180
30F0C0
21FC40
630C60
678C60
630E60
600E60
630C60
639C60
31F8C0
3860C0
1C0380
0E0700
03FC00
006000
ENDCHAR
STARTCHAR E298
ENCODING 58008
SWIDTH 1107 0
DWIDTH 20 0
BBX 20 20 0 0
BITMAP
000000
000000
03FC00
0F0F00
1C0380
180180
33F0C0
221040
62FC60
628460
628460
628460
638460
608460
3084C0
38FDC0
1C0380
0E0700
03FC00
006000
ENDCHAR
STARTCHAR E299
ENCODING 58009
SWIDTH 1107 0
DWIDTH 20 0
BBX 20 20 0 0
BITMAP
000000
000000
03FC00
0F0F00
1C0380
186180
31F8C0
21B840
61B860
632C60
636C60
634C60
639C60
619860
31F8C0
38F0C0
1C0380
0E0700
03FC00
006000
ENDCHAR
STARTCHAR E29A
ENCODING 58010
SWIDTH 1107 0
DWIDTH 20 0
BBX 20 20 0 0
BITMAP
000000
000000
1FFF80
100080
100080
118080
153E80
173E80
120080
100080
133E80
123E80
100080
100080
133E80
123E80
100080
100080
1FFF80
1FFF80
ENDCHAR
STARTCHAR E29B
ENCODING 58011
SWIDTH 1107 0
DWIDTH 20 0
BBX 20 20 0 0
BITMAP
000000
000000
000400
000C00
001000
002800
004800
008800
008800
010800
010800
010800
1F9F80
1FFF80
3FBFC0
3FBFC0
3FBFC0
1FFF80
1F9F80
060600
ENDCHAR
STARTCHAR E29C
ENCODING 58012
SWIDTH 1107 0
DWIDTH 20 0
BBX 20 20 0 0
BITMAP
000000
000000
002000
006000
006000
00F000
00F000
00F000
006000
00F000
006000
007000
00F000
00F000
01F800
01F800
01F800
01F800
01F800
01F800
ENDCHAR
STARTCHAR E29D
ENCODING 58013
SWIDTH 1107 0
DWIDTH 20 0
BBX 20 20 0 0
BITMAP
000000
000000
03FC00
00F000
1C6380
1E0780
3F0FC0
3E07C0
7C03E0
7861E0
79F9E0
73FCE0
73FCE0
67FE60
2FFF40
2FFF40
1FFF80
0FFF00
03FC00
00F000
ENDCHAR
STARTCHAR E29E
ENCODING 58014
SWIDTH 1107 0
DWIDTH 20 0
BBX 20 20 0 0
BITMAP
000000
00CF00
005E00
007C00
007000
034C00
0FFF00
1FFF80
1FFF80
1FFF80
1FFF80
1FFF80
1FFF80
0FFF80
0FFF00
07FF00
07FE00
03FC00
009000
000000
ENDCHAR
STARTCHAR E29F
ENCODING 58015
SWIDTH 1107 0
DWIDTH 20 0
BBX 20 20 0 0
BITMAP
000000
000000
001F80
003FC0
007FC0
007FE0
00FFE0
00FFE0
01FFC0
01FFC0
01FF80
01FE00
01F800
03C000
370000
7E0000
7C0000
0E0000
0E0000
040000
ENDCHAR
STARTCHAR E2A0
ENCODING 58016
SWIDTH 1107 0
DWIDTH 20 0
BBX 20 20 0 0
BITMAP
000000
000000
000000
000000
000000
7FFFE0
7F0FE0
7E07E0
7E97E0
7EF7E0
7EF7E0
7F0FE0
7FFFE0
000000
7FFFE0
7FFFE0
000000
000000
000000
000000
ENDCHAR
STARTCHAR E2A1
ENCODING 58017
SWIDTH 1107 0
DWIDTH 20 0
BBX 20 20 0 0
BITMAP
000000
000000
000000
000000
000000
000000
000000
00F000
006000
009000
009000
009000
00F000
00F000
00F000
00F000
00F000
00F000
00F000
006000
ENDCHAR
STARTCHAR E2A2
ENCODING 58018
SWIDTH 1107 0
DWIDTH 20 0
BBX 20 20 0 0
BITMAP
000000
000000
00E000
07E000
03F000
00FE00
03FE00
04FD00
00EC00
01B600
031600
030000
060000
060000
0E0000
0E0000
1FF800
1FFF00
1FFF80
3FFFC0
ENDCHAR
STARTCHAR E2A3
ENCODING 58019
SWIDTH 1107 0
DWIDTH 20 0
BBX 20 20 0 0
BITMAP
000000
000000
01F800
030C00
066600
0C9300
0D2B00
0D7B00
0D3700
058600
04FE00
037C00
01F800
006000
006000
006000
006000
006000
006000
004000
ENDCHAR
STARTCHAR E2A4
ENCODING 58020
SWIDTH 1107 0
DWIDTH 20 0
BBX 20 20 0 0
BITMAP
000000
000000
000000
000000
000000
7FFFE0
7F0FE0
7E07E0
7EF7E0
7EF7E0
7E67E0
7F0FE0
7FFFE0
000000
7FFFE0
7FFFE0
000000
000000
000000
000000
ENDCHAR
STARTCHAR E2A5
ENCODING 58021
SWIDTH 1107 0
DWIDTH 20 0
BBX 20 20 0 0
BITMAP
000000
000000
000000
0001C0
000E60
03F1A0
1C0F20
33FE60
2FF9E0
5873C0
587780
586E00
4FCC00
679C00
787800
3FF000
1FE000
078000
000000
000000
ENDCHAR
STARTCHAR E2A6
ENCODING 58022
SWIDTH 1107 0
DWIDTH 20 0
BBX 20 20 0 0
BITMAP
000000
000000
000000
000000
000000
000000
006000
00E000
01F000
01F700
03FF00
03FF80
17FF80
3FFFC0
3FFFC0
7FFFE0
000000
000000
000000
000000
ENDCHAR
STARTCHAR E2A7
ENCODING 58023
SWIDTH 1107 0
DWIDTH 20 0
BBX 20 20 0 0
BITMAP
000000
000000
038000
03C000
01E600
01EC00
007800
003000
01F800
03FC00
07FE00
07FE00
0FFF00
0FFF00
0FFF00
0FFF00
07FE00
07DE00
01F800
006000
ENDCHAR
STARTCHAR E2A8
ENCODING 58024
SWIDTH 1107 0
DWIDTH 20 0
BBX 20 20 0 0
BITMAP
000000
0FB000
07A000
03E000
006000
07FE00
0FFF00
1FFF80
1FFF80
1FFF80
1FFF80
1FFF80
1FFF80
0FFF00
07FE00
03FC00
01F800
006000
004000
000000
ENDCHAR
STARTCHAR E2A9
ENCODING 58025
SWIDTH 1107 0
DWIDTH 20 0
BBX 20 20 0 0
BITMAP
000000
079000
07E000
03E000
006000
00F000
00F000
01F800
01F800
01F800
03FC00
03FC00
07FE00
07FE00
07FE00
07FE00
07FE00
03FC00
00F000
000000
ENDCHAR
STARTCHAR E300
ENCODING 58112
SWIDTH 1107 0
DWIDTH 20 0
BBX 20 20 0 0
BITMAP
000000
000000
000800
000800
008880
000100
01FE00
026200
041160
0C1F00
118600
004200
7FC280
000280
7CFC00
020000
0E0000
000000
000000
000000
ENDCHAR
STARTCHAR E301
ENCODING 58113
SWIDTH 1107 0
DWIDTH 20 0
BBX 20 20 0 0
BITMAP
000000
000000
000800
000800
008880
000100
01FE00
026200
041160
0C1F00
100600
000200
3F8280
000680
7EFC00
000000
1FC000
000000
000000
000000
ENDCHAR
STARTCHAR E302
ENCODING 58114
SWIDTH 1107 0
DWIDTH 20 0
BBX 20 20 0 0
BITMAP
000000
000000
001000
001000
011100
000100
03BC00
064600
0822C0
183A00
300400
200400
200500
200400
1FF800
000000
000000
000000
000000
000000
ENDCHAR
STARTCHAR E303
ENCODING 58115
SWIDTH 1107 0
DWIDTH 20 0
BBX 20 20 0 0
BITMAP
000000
000000
000800
000800
008880
000180
01FE00
026200
041160
0C1F00
100600
000000
1FFE80
000080
7FFC00
000000
0FFF00
000000
000000
000000
ENDCHAR
STARTCHAR E304
ENCODING 58116
SWIDTH 1107 0
DWIDTH 20 0
BBX 20 20 0 0
BITMAP
000000
000000
000000
000000
001000
001000
011100
000100
03FC00
064600
0822C0
183A00
300400
200400
22A500
22A400
1EB800
010000
054000
000000
ENDCHAR
STARTCHAR E305
ENCODING 58117
SWIDTH 1107 0
DWIDTH 20 0
BBX 20 20 0 0
BITMAP
000000
000000
000000
001000
001000
011100
000100
03FC00
064600
0822C0
183A00
300400
20C400
218500
218400
19D800
008000
010000
010000
000000
ENDCHAR
STARTCHAR E306
ENCODING 58118
SWIDTH 1107 0
DWIDTH 20 0
BBX 20 20 0 0
BITMAP
000000
000000
001000
001000
011100
000100
03BC00
064600
0822C0
183A00
300400
200400
222500
222400
1AB800
000000
054000
000000
010000
000000
ENDCHAR
STARTCHAR E307
ENCODING 58119
SWIDTH 1107 0
DWIDTH 20 0
BBX 20 20 0 0
BITMAP
000000
000000
001000
001000
011100
000100
03FC00
064600
0822C0
183A00
300400
200400
200500
214400
12D800
04A000
092000
004000
020000
000000
ENDCHAR
STARTCHAR E308
ENCODING 58120
SWIDTH 1107 0
DWIDTH 20 0
BBX 20 20 0 0
BITMAP
000000
000000
001000
001000
011100
000100
03FC00
064600
0822C0
183A00
300400
200400
22A500
22A400
1AB800
054000
054000
010000
010000
000000
ENDCHAR
STARTCHAR E309
ENCODING 58121
SWIDTH 1107 0
DWIDTH 20 0
BBX 20 20 0 0
BITMAP
000000
000000
001000
001000
011100
000100
03BC00
064600
0822C0
183A00
300400
200400
222500
222400
189800
044000
044000
010000
010000
000000
ENDCHAR
STARTCHAR E30A
ENCODING 58122
SWIDTH 1107 0
DWIDTH 20 0
BBX 20 20 0 0
BITMAP
000000
000000
000000
001000
001000
011100
000100
03BC00
064600
0822C0
183A00
300400
200400
200500
208400
1A3800
008000
022000
000000
000000
ENDCHAR
STARTCHAR E30B
ENCODING 58123
SWIDTH 1107 0
DWIDTH 20 0
BBX 20 20 0 0
BITMAP
000000
000000
001000
001000
011100
000100
03BC00
064600
0822C0
183A00
308400
220400
260500
208400
19D800
01C000
000000
000000
000000
000000
ENDCHAR
STARTCHAR E30C
ENCODING 58124
SWIDTH 1107 0
DWIDTH 20 0
BBX 20 20 0 0
BITMAP
000000
000000
002000
002000
060200
026000
01D800
010C00
190580
13C480
064C00
0C7800
081200
081300
07E000
000000
000000
000000
000000
000000
ENDCHAR
STARTCHAR E30D
ENCODING 58125
SWIDTH 1107 0
DWIDTH 20 0
BBX 20 20 0 0
BITMAP
000000
000000
000000
000000
006000
060600
020400
00F000
010800
0D0B00
010800
019800
006000
060600
006000
006000
000000
000000
000000
000000
ENDCHAR
STARTCHAR E30E
ENCODING 58126
SWIDTH 1107 0
DWIDTH 20 0
BBX 20 20 0 0
BITMAP
000000
000000
001000
001000
011100
000100
03FC00
064600
0822C0
183A00
300400
200400
262500
2C2400
1C9800
0E4000
044000
090000
010000
000000
ENDCHAR
STARTCHAR E30F
ENCODING 58127
SWIDTH 1107 0
DWIDTH 20 0
BBX 20 20 0 0
BITMAP
000000
000000
000000
001000
001000
011100
000100
03FC00
064600
0822C0
183A00
300400
200400
26A500
2CA400
1CB800
0F4000
050000
090000
000000
ENDCHAR
STARTCHAR E310
ENCODING 58128
SWIDTH 1107 0
DWIDTH 20 0
BBX 20 20 0 0
BITMAP
000000
000000
000000
000000
000000
000000
007000
019800
010C00
030700
046180
001080
1FE080
000180
1F3F00
010000
030000
000000
000000
000000
ENDCHAR
STARTCHAR E311
ENCODING 58129
SWIDTH 1107 0
DWIDTH 20 0
BBX 20 20 0 0
BITMAP
000000
000000
000000
000000
000000
000000
007000
00C800
010400
030700
040180
000080
0FE080
000080
1FBF00
000000
07F000
000000
000000
000000
ENDCHAR
STARTCHAR E312
ENCODING 58130
SWIDTH 1107 0
DWIDTH 20 0
BBX 20 20 0 0
BITMAP
000000
000000
000000
000000
000000
000000
003800
000400
036600
042100
0C1880
100480
100700
100400
0FF800
000000
000000
000000
000000
000000
ENDCHAR
STARTCHAR E313
ENCODING 58131
SWIDTH 1107 0
DWIDTH 20 0
BBX 20 20 0 0
BITMAP
000000
000000
000000
000000
000000
000000
006000
019800
030800
060E00
0C0100
000000
0FFF00
000000
3FFE00
000000
07FFC0
000000
000000
000000
ENDCHAR
STARTCHAR E314
ENCODING 58132
SWIDTH 1107 0
DWIDTH 20 0
BBX 20 20 0 0
BITMAP
000000
000000
000000
000000
000000
000000
000000
000000
00E000
019000
020800
060E00
0C0300
080100
08A900
08A900
07EE00
004000
015000
000000
ENDCHAR
STARTCHAR E315
ENCODING 58133
SWIDTH 1107 0
DWIDTH 20 0
BBX 20 20 0 0
BITMAP
000000
000000
000000
000000
000000
000000
000C00
000C00
01D800
019C00
018800
03C800
039000
018000
010000
000000
020000
000000
000000
000000
ENDCHAR
STARTCHAR E316
ENCODING 58134
SWIDTH 1107 0
DWIDTH 20 0
BBX 20 20 0 0
BITMAP
000000
000000
000000
000000
000000
000000
00E000
019000
020800
060E00
0C0300
080100
088900
088900
072E00
000000
015000
000000
004000
000000
ENDCHAR
STARTCHAR E317
ENCODING 58135
SWIDTH 1107 0
DWIDTH 20 0
BBX 20 20 0 0
BITMAP
000000
000000
000000
000000
000000
000000
00E000
019000
020800
060E00
080100
080100
080100
089100
04B600
016800
005000
001000
010000
000000
ENDCHAR
STARTCHAR E318
ENCODING 58136
SWIDTH 1107 0
DWIDTH 20 0
BBX 20 20 0 0
BITMAP
000000
000000
000000
000000
000000
000000
000000
00E000
019000
020800
060E00
0C0300
080100
08A900
08A900
076E00
015000
015000
004000
000000
ENDCHAR
STARTCHAR E319
ENCODING 58137
SWIDTH 1107 0
DWIDTH 20 0
BBX 20 20 0 0
BITMAP
000000
000000
000000
000000
000000
000000
000000
00E000
019000
020800
060E00
080100
080100
088900
088900
062600
015000
011000
004000
000000
ENDCHAR
STARTCHAR E31A
ENCODING 58138
SWIDTH 1107 0
DWIDTH 20 0
BBX 20 20 0 0
BITMAP
000000
000000
000000
000000
000000
000000
000000
000000
000000
000000
00E000
019000
020800
060E00
0C0300
080100
080100
082100
069600
000000
ENDCHAR
STARTCHAR E31B
ENCODING 58139
SWIDTH 1107 0
DWIDTH 20 0
BBX 20 20 0 0
BITMAP
000000
000000
000000
000000
000000
000000
00E000
019000
020800
060E00
082300
082100
098100
082100
067600
007000
000000
000000
000000
000000
ENDCHAR
STARTCHAR E31C
ENCODING 58140
SWIDTH 1107 0
DWIDTH 20 0
BBX 20 20 0 0
BITMAP
000000
000000
000000
000000
000000
000000
000000
00E000
019000
020800
060E00
080300
080100
098900
0B0900
072600
039000
011000
024000
000000
ENDCHAR
STARTCHAR E31D
ENCODING 58141
SWIDTH 1107 0
DWIDTH 20 0
BBX 20 20 0 0
BITMAP
000000
000000
000000
000000
000000
000000
00E000
019000
020800
060E00
080100
080100
09A900
0B2900
072E00
03D000
015000
004000
020000
000000
ENDCHAR
STARTCHAR E31E
ENCODING 58142
SWIDTH 1107 0
DWIDTH 20 0
BBX 20 20 0 0
BITMAP
000000
000000
000000
000000
000000
000000
000000
000000
000000
07F800
000000
0FF700
03FC00
000000
000000
000000
000000
000000
000000
000000
ENDCHAR
STARTCHAR E31F
ENCODING 58143
SWIDTH 1107 0
DWIDTH 20 0
BBX 20 20 0 0
BITMAP
000000
000000
000000
000000
000000
000E00
007A00
019900
010980
020680
046100
002080
1FE080
000100
1F7F00
010000
070000
000000
000000
000000
ENDCHAR
STARTCHAR E320
ENCODING 58144
SWIDTH 1107 0
DWIDTH 20 0
BBX 20 20 0 0
BITMAP
000000
000000
000000
000000
000000
000700
007900
009900
010CC0
030780
040180
000080
0FE080
000180
3FBF00
000000
07F000
000000
000000
000000
ENDCHAR
STARTCHAR E321
ENCODING 58145
SWIDTH 1107 0
DWIDTH 20 0
BBX 20 20 0 0
BITMAP
000000
000000
000000
000000
000000
000E00
00D200
013200
021980
060F00
080300
100100
10A900
095B00
055600
004000
015000
000000
008000
000000
ENDCHAR
STARTCHAR E322
ENCODING 58146
SWIDTH 1107 0
DWIDTH 20 0
BBX 20 20 0 0
BITMAP
000000
000000
000000
000000
000000
000000
000E00
00F200
013200
021980
060F00
080300
106100
106100
084300
04E600
004000
004000
000000
000000
ENDCHAR
STARTCHAR E323
ENCODING 58147
SWIDTH 1107 0
DWIDTH 20 0
BBX 20 20 0 0
BITMAP
000000
000000
000000
000000
000000
000E00
00F200
033200
021980
060F00
080300
100100
108900
080B00
055600
004000
015000
000000
008000
000000
ENDCHAR
STARTCHAR E324
ENCODING 58148
SWIDTH 1107 0
DWIDTH 20 0
BBX 20 20 0 0
BITMAP
000000
000000
000000
000000
000000
000E00
00D200
033200
021980
060F00
080300
100100
100100
089300
05AE00
014800
00D000
00A000
010000
000000
ENDCHAR
STARTCHAR E325
ENCODING 58149
SWIDTH 1107 0
DWIDTH 20 0
BBX 20 20 0 0
BITMAP
000000
000000
000000
000000
000000
000E00
00F200
033200
021980
060F00
080300
100100
10A900
096B00
055600
015000
015000
00C000
008000
000000
ENDCHAR
STARTCHAR E326
ENCODING 58150
SWIDTH 1107 0
DWIDTH 20 0
BBX 20 20 0 0
BITMAP
000000
000000
000000
000000
000000
000E00
00D200
013200
021980
060F00
080300
100100
108900
090B00
044600
015000
011000
008000
008000
000000
ENDCHAR
STARTCHAR E327
ENCODING 58151
SWIDTH 1107 0
DWIDTH 20 0
BBX 20 20 0 0
BITMAP
000000
000000
000000
000000
000000
000000
000000
000E00
00F200
033200
021980
060F00
080300
100100
100100
084300
051600
004000
011000
000000
ENDCHAR
STARTCHAR E328
ENCODING 58152
SWIDTH 1107 0
DWIDTH 20 0
BBX 20 20 0 0
BITMAP
000000
000000
000000
000000
000000
000E00
00F200
013200
021980
060F00
082300
100100
118100
082300
047600
007000
000000
000000
000000
000000
ENDCHAR
STARTCHAR E329
ENCODING 58153
SWIDTH 1107 0
DWIDTH 20 0
BBX 20 20 0 0
BITMAP
000000
000000
000000
000000
000000
000000
000E00
00F200
033200
021980
060F00
080300
100100
130900
0B0B00
064600
075000
031000
02C000
000000
ENDCHAR
STARTCHAR E32A
ENCODING 58154
SWIDTH 1107 0
DWIDTH 20 0
BBX 20 20 0 0
BITMAP
000000
000000
000000
000000
000000
000000
000E00
00F200
033200
021980
060F00
080300
100100
132900
0B4B00
065600
075000
025000
028000
000000
ENDCHAR
STARTCHAR E32B
ENCODING 58155
SWIDTH 1107 0
DWIDTH 20 0
BBX 20 20 0 0
BITMAP
000000
000000
000000
000000
000000
000000
006000
01A000
032000
021000
020C00
020400
020400
019800
00F000
000000
000000
000000
000000
000000
ENDCHAR
STARTCHAR E32C
ENCODING 58156
SWIDTH 1107 0
DWIDTH 20 0
BBX 20 20 0 0
BITMAP
000000
000000
000000
000000
000000
000000
006F00
019880
010880
030680
046180
001080
1FE080
000100
1F3F00
010000
030000
000000
000000
000000
ENDCHAR
STARTCHAR E32D
ENCODING 58157
SWIDTH 1107 0
DWIDTH 20 0
BBX 20 20 0 0
BITMAP
000000
000000
000000
000000
000000
000000
007F80
009880
010440
030740
040180
000080
0FE080
000080
3FBF00
000000
07F000
000000
000000
000000
ENDCHAR
STARTCHAR E32E
ENCODING 58158
SWIDTH 1107 0
DWIDTH 20 0
BBX 20 20 0 0
BITMAP
000000
000000
000000
000000
000000
000000
00FF00
013100
020980
060F00
080300
080100
180100
080300
07FE00
000000
000000
000000
000000
000000
ENDCHAR
STARTCHAR E32F
ENCODING 58159
SWIDTH 1107 0
DWIDTH 20 0
BBX 20 20 0 0
BITMAP
000000
000000
000000
000000
000000
000000
000000
000000
00FF00
013100
020980
060F80
080300
180100
18A900
09AB00
055600
004000
015000
000000
ENDCHAR
STARTCHAR E330
ENCODING 58160
SWIDTH 1107 0
DWIDTH 20 0
BBX 20 20 0 0
BITMAP
000000
000000
000000
000000
000000
000000
000000
00FF00
013100
020980
060F00
080300
086100
186100
084300
04E600
004000
004000
000000
000000
ENDCHAR
STARTCHAR E331
ENCODING 58161
SWIDTH 1107 0
DWIDTH 20 0
BBX 20 20 0 0
BITMAP
000000
000000
000000
000000
000000
000000
00FF00
013100
020880
060F80
080300
180100
108900
080B00
055600
004000
015000
000000
008000
000000
ENDCHAR
STARTCHAR E332
ENCODING 58162
SWIDTH 1107 0
DWIDTH 20 0
BBX 20 20 0 0
BITMAP
000000
000000
000000
000000
000000
000000
00FF00
013100
020880
060E80
080300
180100
100100
089100
0DA600
016800
02D000
002000
010000
000000
ENDCHAR
STARTCHAR E333
ENCODING 58163
SWIDTH 1107 0
DWIDTH 20 0
BBX 20 20 0 0
BITMAP
000000
000000
000000
000000
000000
000000
000000
00FF00
013100
020980
060F00
080300
180100
18A900
09AB00
055600
015000
015000
00C000
000000
ENDCHAR
STARTCHAR E334
ENCODING 58164
SWIDTH 1107 0
DWIDTH 20 0
BBX 20 20 0 0
BITMAP
000000
000000
000000
000000
000000
000000
00FF00
013100
020980
060F00
080300
180100
188900
088B00
044600
015000
011000
00C000
008000
000000
ENDCHAR
STARTCHAR E335
ENCODING 58165
SWIDTH 1107 0
DWIDTH 20 0
BBX 20 20 0 0
BITMAP
000000
000000
000000
000000
000000
000000
000000
000000
00FF00
013100
020980
060F80
080300
180100
180100
084300
051600
004000
011000
000000
ENDCHAR
STARTCHAR E336
ENCODING 58166
SWIDTH 1107 0
DWIDTH 20 0
BBX 20 20 0 0
BITMAP
000000
000000
000000
000000
000000
000000
00FF00
013100
020980
060F80
082300
180100
198100
082300
047600
007000
000000
000000
000000
000000
ENDCHAR
STARTCHAR E337
ENCODING 58167
SWIDTH 1107 0
DWIDTH 20 0
BBX 20 20 0 0
BITMAP
000000
000000
000000
000000
000000
000000
000000
00FF00
013100
020980
060F80
080300
180100
198900
0B0B00
064600
075000
031000
024000
000000
ENDCHAR
STARTCHAR E338
ENCODING 58168
SWIDTH 1107 0
DWIDTH 20 0
BBX 20 20 0 0
BITMAP
000000
000000
000000
000000
000000
000000
000000
00FF00
013100
020980
060F00
080300
080100
19A900
0B2B00
065600
075000
015000
02C000
000000
ENDCHAR
STARTCHAR E339
ENCODING 58169
SWIDTH 1107 0
DWIDTH 20 0
BBX 20 20 0 0
BITMAP
000000
000000
000000
000000
080600
3E1F80
2230C0
222040
226000
3E6000
006000
006000
006000
006000
006000
006000
002040
0030C0
001F80
000600
ENDCHAR
STARTCHAR E33A
ENCODING 58170
SWIDTH 1107 0
DWIDTH 20 0
BBX 20 20 0 0
BITMAP
000000
000000
000000
000000
000000
000000
00E000
019000
020800
060E00
080100
086100
08F100
08F100
066600
000000
000000
000000
000000
000000
ENDCHAR
STARTCHAR E33B
ENCODING 58171
SWIDTH 1107 0
DWIDTH 20 0
BBX 20 20 0 0
BITMAP
000000
000000
000000
000000
000000
000000
00E000
019000
020800
064E00
086100
08A100
098100
089100
06F600
000000
000000
000000
000000
000000
ENDCHAR
STARTCHAR E33C
ENCODING 58172
SWIDTH 1107 0
DWIDTH 20 0
BBX 20 20 0 0
BITMAP
000000
000000
000000
000000
000000
000000
00E000
019000
020800
060E00
080100
086100
08F100
086100
066600
000000
000000
000000
000000
000000
ENDCHAR
STARTCHAR E33D
ENCODING 58173
SWIDTH 1107 0
DWIDTH 20 0
BBX 20 20 0 0
BITMAP
000000
000000
000000
000000
000000
000000
00E000
019000
020800
060E00
080100
080100
080100
080100
07FE00
000000
000000
000000
000000
000000
ENDCHAR
STARTCHAR E33E
ENCODING 58174
SWIDTH 1107 0
DWIDTH 20 0
BBX 20 20 0 0
BITMAP
000000
000000
000000
00F000
019800
018800
019800
00F000
000000
000000
000000
000000
000000
000000
000000
000000
000000
000000
000000
000000
ENDCHAR
STARTCHAR E33F
ENCODING 58175
SWIDTH 1107 0
DWIDTH 20 0
BBX 20 20 0 0
BITMAP
000000
000000
000000
000000
000000
000400
000E00
001C00
003800
067000
06E000
07C000
078000
07E000
03E000
000000
000000
000000
000000
000000
ENDCHAR
STARTCHAR E340
ENCODING 58176
SWIDTH 1107 0
DWIDTH 20 0
BBX 20 20 0 0
BITMAP
000000
000000
000000
006000
006000
006000
006000
006000
006000
006000
006000
006000
026400
076E00
03FC00
01F800
00F000
006000
000000
000000
ENDCHAR
STARTCHAR E341
ENCODING 58177
SWIDTH 1107 0
DWIDTH 20 0
BBX 20 20 0 0
BITMAP
000000
000000
000000
000000
000000
000000
3C3FE0
263000
623000
263000
3C3000
003000
003F80
003F00
003000
003000
003000
003000
003000
003000
ENDCHAR
STARTCHAR E342
ENCODING 58178
SWIDTH 1107 0
DWIDTH 20 0
BBX 20 20 0 0
BITMAP
000000
000000
000000
000000
000000
006000
006000
060600
026400
019800
010800
1D0B80
010800
000000
0FFF00
000000
000000
000000
000000
000000
ENDCHAR
STARTCHAR E343
ENCODING 58179
SWIDTH 1107 0
DWIDTH 20 0
BBX 20 20 0 0
BITMAP
000000
000000
000000
000000
000000
000000
000000
006000
006000
040200
020400
00F000
010800
000000
0FFF00
000000
000000
000000
000000
000000
ENDCHAR
STARTCHAR E344
ENCODING 58180
SWIDTH 1107 0
DWIDTH 20 0
BBX 20 20 0 0
BITMAP
000000
000000
000000
000000
000000
000000
010000
030000
070000
0E0000
1FFF80
1FFF80
1E0000
0F0000
070000
010000
000000
000000
000000
000000
ENDCHAR
STARTCHAR E345
ENCODING 58181
SWIDTH 1107 0
DWIDTH 20 0
BBX 20 20 0 0
BITMAP
000000
000000
000000
000000
000000
000000
000000
01F800
009000
019800
000000
006000
000000
006000
000000
000000
000000
000000
000000
000000
ENDCHAR
STARTCHAR E346
ENCODING 58182
SWIDTH 1107 0
DWIDTH 20 0
BBX 20 20 0 0
BITMAP
000000
000000
000000
000000
000000
000E00
00FA00
019B00
030980
060E80
0C0100
000000
0FFF00
000000
3FFE00
000000
07FFC0
000000
000000
000000
ENDCHAR
STARTCHAR E347
ENCODING 58183
SWIDTH 1107 0
DWIDTH 20 0
BBX 20 20 0 0
BITMAP
000000
000000
001000
003800
001C00
00FE00
01FC00
039800
031000
070000
060000
060000
070000
030000
038000
01F000
00F800
000000
000000
000000
ENDCHAR
STARTCHAR E348
ENCODING 58184
SWIDTH 1107 0
DWIDTH 20 0
BBX 20 20 0 0
BITMAP
000000
000000
00C000
00E000
00F000
03F800
07F800
0EF000
1CE000
180000
380000
3801C0
3801C0
3801C0
1C0180
1C0380
0F0700
07FE00
03FC00
006000
ENDCHAR
STARTCHAR E349
ENCODING 58185
SWIDTH 1107 0
DWIDTH 20 0
BBX 20 20 0 0
BITMAP
000000
000000
000000
000000
000000
000800
001C00
000E00
000700
1FFF80
1FFF80
000780
000F00
000E00
000C00
000000
000000
000000
000000
000000
ENDCHAR
STARTCHAR E34A
ENCODING 58186
SWIDTH 1107 0
DWIDTH 20 0
BBX 20 20 0 0
BITMAP
000000
000000
000000
000000
000000
000000
003000
008000
008000
003000
007000
003000
000000
000000
000000
000000
000000
000000
000000
000000
ENDCHAR
STARTCHAR E34B
ENCODING 58187
SWIDTH 1107 0
DWIDTH 20 0
BBX 20 20 0 0
BITMAP
000000
000000
000000
000000
000000
000000
000000
000100
000280
000080
1FFF00
000000
1FFC00
000400
001800
000000
000000
000000
000000
000000
ENDCHAR
STARTCHAR E34C
ENCODING 58188
SWIDTH 1107 0
DWIDTH 20 0
BBX 20 20 0 0
BITMAP
000000
000000
000000
000000
006000
006000
040200
020400
01F800
010800
030C00
1B0D80
014800
00F000
039C00
000000
000000
000000
000000
000000
ENDCHAR
STARTCHAR E34D
ENCODING 58189
SWIDTH 1107 0
DWIDTH 20 0
BBX 20 20 0 0
BITMAP
000000
000000
000000
000000
000000
006000
006000
040200
060600
00F000
010800
030C00
1B0D80
010800
000000
039C00
00F000
000000
000000
000000
ENDCHAR
STARTCHAR E34E
ENCODING 58190
SWIDTH 1107 0
DWIDTH 20 0
BBX 20 20 0 0
BITMAP
000000
000000
00F000
009000
009000
009000
009000
009000
009000
009000
009000
009000
019800
030C00
020400
020400
020400
030C00
01F800
006000
ENDCHAR
STARTCHAR E34F
ENCODING 58191
SWIDTH 1107 0
DWIDTH 20 0
BBX 20 20 0 0
BITMAP
000000
000000
000000
000000
000000
000000
000000
006000
00F000
00F000
00F000
004000
000000
000000
000000
000000
000000
000000
000000
000000
ENDCHAR
STARTCHAR E350
ENCODING 58192
SWIDTH 1107 0
DWIDTH 20 0
BBX 20 20 0 0
BITMAP
000000
000000
00F000
009000
009000
009000
009000
009000
009000
009000
009000
009000
019800
036C00
02F400
02F400
02F400
034C00
01F800
006000
ENDCHAR
STARTCHAR E351
ENCODING 58193
SWIDTH 1107 0
DWIDTH 20 0
BBX 20 20 0 0
BITMAP
000000
000000
000000
000000
000000
000000
00F800
030400
030400
026800
03F000
03E000
024000
018000
018000
000000
000000
000000
000000
000000
ENDCHAR
STARTCHAR E352
ENCODING 58194
SWIDTH 1107 0
DWIDTH 20 0
BBX 20 20 0 0
BITMAP
000000
000000
000000
000000
000000
007C00
007E00
001E00
003E00
007600
00E600
01C000
038000
070000
000000
000000
000000
000000
000000
000000
ENDCHAR
STARTCHAR E353
ENCODING 58195
SWIDTH 1107 0
DWIDTH 20 0
BBX 20 20 0 0
BITMAP
000000
000000
00F000
01F800
03FC00
03FC00
076E00
006000
006000
006000
006000
006000
006000
006000
006000
006000
000000
000000
000000
000000
ENDCHAR
STARTCHAR E354
ENCODING 58196
SWIDTH 1107 0
DWIDTH 20 0
BBX 20 20 0 0
BITMAP
000000
000000
03FC00
07FE00
1E0780
180180
3000C0
3000C0
618060
61F060
60FC60
60F060
61C060
3100C0
3000C0
180180
1C0380
0F9F00
03FC00
006000
ENDCHAR
STARTCHAR E355
ENCODING 58197
SWIDTH 1107 0
DWIDTH 20 0
BBX 20 20 0 0
BITMAP
000000
000000
03FC00
07FE00
1E0780
180180
3000C0
3000C0
601860
607860
63F060
60F060
607060
3020C0
3020C0
180180
1C0380
0F9F00
03FC00
006000
ENDCHAR
STARTCHAR E356
ENCODING 58198
SWIDTH 1107 0
DWIDTH 20 0
BBX 20 20 0 0
BITMAP
000000
000000
03FC00
07FE00
1E0780
180180
3000C0
3000C0
618060
60F060
60FC60
607860
606060
3060C0
3000C0
180180
1C0380
0F9F00
03FC00
006000
ENDCHAR
STARTCHAR E357
ENCODING 58199
SWIDTH 1107 0
DWIDTH 20 0
BBX 20 20 0 0
BITMAP
000000
000000
03FC00
07FE00
1E0780
180180
3000C0
3000C0
606060
606060
60F060
60F060
61F860
3108E0
3000C0
3801C0
1C0380
0F9F00
03FC00
006000
ENDCHAR
STARTCHAR E358
ENCODING 58200
SWIDTH 1107 0
DWIDTH 20 0
BBX 20 20 0 0
BITMAP
000000
000000
03FC00
07FE00
1E0780
180180
3000C0
3040C0
606060
61E060
67F060
60F060
603060
3008C0
3000C0
180180
1C0380
0F9F00
03FC00
006000
ENDCHAR
STARTCHAR E359
ENCODING 58201
SWIDTH 1107 0
DWIDTH 20 0
BBX 20 20 0 0
BITMAP
000000
000000
03FC00
07FE00
1E0780
180180
3000C0
3020C0
606060
607860
60FE60
60F060
60C060
3000C0
3000C0
180180
1C0380
0F9F00
03FC00
006000
ENDCHAR
STARTCHAR E35A
ENCODING 58202
SWIDTH 1107 0
DWIDTH 20 0
BBX 20 20 0 0
BITMAP
000000
000000
03FC00
07FE00
1E0780
180180
3000C0
3000C0
61F860
60F060
60F060
606060
606060
3060C0
3000C0
3801C0
1C0380
0F9F00
03FC00
006000
ENDCHAR
STARTCHAR E35B
ENCODING 58203
SWIDTH 1107 0
DWIDTH 20 0
BBX 20 20 0 0
BITMAP
000000
000000
03FC00
0FFF00
1E0780
180180
3000C0
3000C0
601860
60F860
63F060
60F060
603860
7000E0
3000C0
3801C0
1C0380
0F9F00
03FC00
006000
ENDCHAR
STARTCHAR E35C
ENCODING 58204
SWIDTH 1107 0
DWIDTH 20 0
BBX 20 20 0 0
BITMAP
000000
000000
000000
000000
000000
00B000
010000
020C00
040200
040200
040200
038000
00FC00
00F800
007000
003000
000000
000000
000000
000000
ENDCHAR
STARTCHAR E35D
ENCODING 58205
SWIDTH 1107 0
DWIDTH 20 0
BBX 20 20 0 0
BITMAP
000000
000000
000000
000000
000000
000000
000000
000000
077A00
000000
01EC00
07EC00
000000
03F800
000000
000000
000000
000000
000000
000000
ENDCHAR
STARTCHAR E35E
ENCODING 58206
SWIDTH 1107 0
DWIDTH 20 0
BBX 20 20 0 0
BITMAP
000000
000000
000000
000000
000000
000000
000000
000000
00E000
019000
020800
060E00
0C0300
080100
080100
082100
069600
004000
011000
000000
ENDCHAR
STARTCHAR E35F
ENCODING 58207
SWIDTH 1107 0
DWIDTH 20 0
BBX 20 20 0 0
BITMAP
000000
000000
001000
001000
011100
000100
03BC00
064600
0822C0
183A00
300400
200400
200500
208400
1A3800
010000
044000
010000
000000
000000
ENDCHAR
STARTCHAR E360
ENCODING 58208
SWIDTH 1107 0
DWIDTH 20 0
BBX 20 20 0 0
BITMAP
000000
000000
000000
000000
000000
000000
000000
00FF00
013100
020980
060F80
080300
180100
180100
084300
051600
004000
011000
000000
000000
ENDCHAR
STARTCHAR E361
ENCODING 58209
SWIDTH 1107 0
DWIDTH 20 0
BBX 20 20 0 0
BITMAP
000000
000000
000000
000000
000000
000000
000000
000E00
00F200
033200
021980
060F00
080300
100100
100100
084300
051600
004000
011000
000000
ENDCHAR
STARTCHAR E362
ENCODING 58210
SWIDTH 1107 0
DWIDTH 20 0
BBX 20 20 0 0
BITMAP
000000
000000
001000
001000
011100
000100
03FC00
064600
0822C0
183A00
300400
200400
260500
2C0400
1CB800
0E0000
054000
080000
010000
000000
ENDCHAR
STARTCHAR E363
ENCODING 58211
SWIDTH 1107 0
DWIDTH 20 0
BBX 20 20 0 0
BITMAP
000000
000000
000000
000000
000000
000000
00FF00
013100
020880
060F80
080300
180100
198100
0B0300
065600
074000
035000
020000
008000
000000
ENDCHAR
STARTCHAR E364
ENCODING 58212
SWIDTH 1107 0
DWIDTH 20 0
BBX 20 20 0 0
BITMAP
000000
000000
000000
000000
000000
000E00
00F200
033200
021980
060F00
080300
100100
130100
0B0300
065600
074000
035000
028000
008000
000000
ENDCHAR
STARTCHAR E365
ENCODING 58213
SWIDTH 1107 0
DWIDTH 20 0
BBX 20 20 0 0
BITMAP
000000
000000
000000
001000
001000
011100
000100
03FC00
064600
0822C0
183A00
300400
200400
260500
2C8400
1C3800
0E8000
040000
080000
000000
ENDCHAR
STARTCHAR E366
ENCODING 58214
SWIDTH 1107 0
DWIDTH 20 0
BBX 20 20 0 0
BITMAP
000000
000000
000000
000000
000000
000000
000000
00FF00
013100
020880
060F80
080300
180100
198100
0B4300
061600
074000
031000
020000
000000
ENDCHAR
STARTCHAR E367
ENCODING 58215
SWIDTH 1107 0
DWIDTH 20 0
BBX 20 20 0 0
BITMAP
000000
000000
000000
000000
000000
000000
000E00
00F200
033200
021980
060F00
080300
100100
130100
0B4300
061600
074000
031000
020000
000000
ENDCHAR
STARTCHAR E368
ENCODING 58216
SWIDTH 1107 0
DWIDTH 20 0
BBX 20 20 0 0
BITMAP
000000
000000
000000
006000
006000
186180
0C0300
04F200
01F800
03EC00
03F400
73F4E0
03F400
03EC00
01D800
00F000
0C0300
180180
006000
006000
ENDCHAR
STARTCHAR E369
ENCODING 58217
SWIDTH 1107 0
DWIDTH 20 0
BBX 20 20 0 0
BITMAP
000000
000000
000000
000000
000000
000000
00F000
01F800
03EC00
03F400
03F400
03F400
03EC00
01D800
00F000
000000
000000
000000
000000
000000
ENDCHAR
STARTCHAR E36A
ENCODING 58218
SWIDTH 1107 0
DWIDTH 20 0
BBX 20 20 0 0
BITMAP
000000
000000
000000
000400
000800
003C00
007C00
00F800
01FC00
037800
003800
041000
040000
022000
01C000
000000
000000
000000
000000
000000
ENDCHAR
STARTCHAR E36B
ENCODING 58219
SWIDTH 1107 0
DWIDTH 20 0
BBX 20 20 0 0
BITMAP
000000
000000
000000
000000
000000
006000
040200
020400
00F000
010800
1D0B80
000800
014800
016800
00AC00
00AC00
000000
000000
000000
000000
ENDCHAR
STARTCHAR E36C
ENCODING 58220
SWIDTH 1107 0
DWIDTH 20 0
BBX 20 20 0 0
BITMAP
000000
000000
000000
000000
000000
000000
002000
004000
00E000
009000
009000
009000
007000
001000
006000
000000
000000
000000
000000
000000
ENDCHAR
STARTCHAR E36D
ENCODING 58221
SWIDTH 1107 0
DWIDTH 20 0
BBX 20 20 0 0
BITMAP
000000
000000
000000
000000
000000
01F000
01F000
03FC00
07FE00
07FE00
07FE00
03FC00
00FC00
00F800
007000
003000
000000
000000
000000
000000
ENDCHAR
STARTCHAR E36E
ENCODING 58222
SWIDTH 1107 0
DWIDTH 20 0
BBX 20 20 0 0
BITMAP
000000
000000
000000
000000
000000
000000
006000
01F800
03FC00
03FC00
03FC00
006000
026400
010800
00F000
00F000
000000
000000
000000
000000
ENDCHAR
STARTCHAR E36F
ENCODING 58223
SWIDTH 1107 0
DWIDTH 20 0
BBX 20 20 0 0
BITMAP
000000
000000
000000
000000
000000
000000
000000
000000
019800
00F000
05FA00
00F000
019000
000000
000000
000000
000000
000000
000000
000000
ENDCHAR
STARTCHAR E370
ENCODING 58224
SWIDTH 1107 0
DWIDTH 20 0
BBX 20 20 0 0
BITMAP
000000
000000
000000
000000
000000
008000
018000
01C000
008000
000000
040600
040400
044000
006000
004000
000000
000000
000000
000000
000000
ENDCHAR
STARTCHAR E371
ENCODING 58225
SWIDTH 1107 0
DWIDTH 20 0
BBX 20 20 0 0
BITMAP
000000
000000
000000
000000
000000
000000
006000
006000
00F000
01F800
01F800
01F800
01F800
00F000
000000
000000
000000
000000
000000
000000
ENDCHAR
STARTCHAR E372
ENCODING 58226
SWIDTH 1107 0
DWIDTH 20 0
BBX 20 20 0 0
BITMAP
000000
000000
000000
000000
000000
006000
019800
021400
029400
022400
026400
026400
030C00
00F000
006000
006000
000000
000000
000000
000000
ENDCHAR
STARTCHAR E373
ENCODING 58227
SWIDTH 1107 0
DWIDTH 20 0
BBX 20 20 0 0
BITMAP
000000
000000
000000
000000
000000
006000
00F000
01F800
026C00
02DC00
025C00
07A600
03A400
036400
01F800
00E000
000000
000000
000000
000000
ENDCHAR
STARTCHAR E374
ENCODING 58228
SWIDTH 1107 0
DWIDTH 20 0
BBX 20 20 0 0
BITMAP
000000
000000
000000
000000
000000
000000
000000
000000
000000
07AC00
07AC00
059C00
05D200
000000
000000
000000
000000
000000
000000
000000
ENDCHAR
STARTCHAR E375
ENCODING 58229
SWIDTH 1107 0
DWIDTH 20 0
BBX 20 20 0 0
BITMAP
000000
000000
000000
000000
000000
000000
006000
009000
000000
000000
000000
000000
07FE00
07FE00
07FE00
000000
000000
000000
000000
000000
ENDCHAR
STARTCHAR E376
ENCODING 58230
SWIDTH 1107 0
DWIDTH 20 0
BBX 20 20 0 0
BITMAP
000000
000000
000000
000000
000000
03C000
046000
043000
080A00
100000
100C00
0FFD80
004400
003800
008200
001000
001000
000000
000000
000000
ENDCHAR
STARTCHAR E377
ENCODING 58231
SWIDTH 1107 0
DWIDTH 20 0
BBX 20 20 0 0
BITMAP
000000
000000
000000
000000
01E000
033000
021000
0C0C00
180200
100100
100100
180200
0FFD80
002080
001080
001B00
000000
000000
000000
000000
ENDCHAR
STARTCHAR E378
ENCODING 58232
SWIDTH 1107 0
DWIDTH 20 0
BBX 20 20 0 0
BITMAP
000000
000000
000000
000000
01C000
033000
021000
0C0C00
180200
100100
100100
180280
0FFC80
002080
000080
001F00
000000
000000
000000
000000
ENDCHAR
STARTCHAR E379
ENCODING 58233
SWIDTH 1107 0
DWIDTH 20 0
BBX 20 20 0 0
BITMAP
000000
000000
000000
000000
000000
000000
003800
006800
008800
008C00
01E600
012600
073C00
040800
060800
03F800
000000
000000
000000
000000
ENDCHAR
STARTCHAR E37A
ENCODING 58234
SWIDTH 1107 0
DWIDTH 20 0
BBX 20 20 0 0
BITMAP
000000
000000
000000
000000
000000
000000
020000
004900
080280
000080
1FFF00
000000
1FFD00
020400
085800
000000
000000
000000
000000
000000
ENDCHAR
STARTCHAR E37B
ENCODING 58235
SWIDTH 1107 0
DWIDTH 20 0
BBX 20 20 0 0
BITMAP
000000
000000
000000
000000
000000
000000
003800
006C00
008600
008200
01E200
012600
073C00
040800
060800
03F800
000000
000000
000000
000000
ENDCHAR
STARTCHAR E37C
ENCODING 58236
SWIDTH 1107 0
DWIDTH 20 0
BBX 20 20 0 0
BITMAP
000000
000000
000000
000000
000000
01F800
060600
040200
080100
099900
000000
000000
000000
000000
014000
00C000
000000
000000
000000
000000
ENDCHAR
STARTCHAR E37D
ENCODING 58237
SWIDTH 1107 0
DWIDTH 20 0
BBX 20 20 0 0
BITMAP
000000
000000
001000
001000
011100
008100
003C00
004600
0642C0
000200
00C400
003800
3FC100
001000
3E1000
020000
060000
000000
000000
000000
ENDCHAR
STARTCHAR E37E
ENCODING 58238
SWIDTH 1107 0
DWIDTH 20 0
BBX 20 20 0 0
BITMAP
000000
000000
000000
000000
000000
000E00
00F200
013200
021980
060F00
080300
100100
100100
080300
07FE00
000000
000000
000000
000000
000000
ENDCHAR
STARTCHAR E37F
ENCODING 58239
SWIDTH 1107 0
DWIDTH 20 0
BBX 20 20 0 0
BITMAP
000000
000000
000000
000000
000000
03E000
07E000
078000
07C000
06E000
067000
003800
001C00
000E00
000400
000000
000000
000000
000000
000000
ENDCHAR
STARTCHAR E380
ENCODING 58240
SWIDTH 1107 0
DWIDTH 20 0
BBX 20 20 0 0
BITMAP
000000
000000
000000
000000
000000
070000
038000
01C000
00E600
007600
003E00
001E00
007E00
007C00
000000
000000
000000
000000
000000
000000
ENDCHAR
STARTCHAR E381
ENCODING 58241
SWIDTH 1107 0
DWIDTH 20 0
BBX 20 20 0 0
BITMAP
000000
000000
03FC00
0FFF00
1E0780
186180
3060C0
3060C0
606060
606060
606060
600060
600060
7000E0
3000C0
3801C0
1C0380
0F9F00
03FC00
006000
ENDCHAR
STARTCHAR E382
ENCODING 58242
SWIDTH 1107 0
DWIDTH 20 0
BBX 20 20 0 0
BITMAP
000000
000000
03FC00
0FFF00
1E0780
186180
3060C0
3078C0
607060
606060
606060
600060
600060
7000E0
3000C0
3801C0
1C0380
0F9F00
03FC00
006000
ENDCHAR
STARTCHAR E383
ENCODING 58243
SWIDTH 1107 0
DWIDTH 20 0
BBX 20 20 0 0
BITMAP
000000
000000
03FC00
0FFF00
1E0780
186180
3060C0
3060C0
606C60
607860
607060
600060
600060
7000E0
3000C0
3801C0
1C0380
0F9F00
03FC00
006000
ENDCHAR
STARTCHAR E384
ENCODING 58244
SWIDTH 1107 0
DWIDTH 20 0
BBX 20 20 0 0
BITMAP
000000
000000
03FC00
0FFF00
1E0780
186180
3060C0
3060C0
606060
606060
607C60
600060
600060
7000E0
3000C0
3801C0
1C0380
0F9F00
03FC00
006000
ENDCHAR
STARTCHAR E385
ENCODING 58245
SWIDTH 1107 0
DWIDTH 20 0
BBX 20 20 0 0
BITMAP
000000
000000
03FC00
0FFF00
1E0780
186180
3060C0
3060C0
606060
606060
606060
603860
600C60
7000E0
3000C0
3801C0
1C0380
0F9F00
03FC00
006000
ENDCHAR
STARTCHAR E386
ENCODING 58246
SWIDTH 1107 0
DWIDTH 20 0
BBX 20 20 0 0
BITMAP
000000
000000
03FC00
0FFF00
1E0780
186180
3060C0
3060C0
606060
606060
606060
602060
603060
7010E0
3000C0
3801C0
1C0380
0F9F00
03FC00
006000
ENDCHAR
STARTCHAR E387
ENCODING 58247
SWIDTH 1107 0
DWIDTH 20 0
BBX 20 20 0 0
BITMAP
000000
000000
03FC00
0FFF00
1E0780
186180
3060C0
3060C0
606060
606060
606060
606060
606060
7060E0
3060C0
3801C0
1C0380
0F9F00
03FC00
006000
ENDCHAR
STARTCHAR E388
ENCODING 58248
SWIDTH 1107 0
DWIDTH 20 0
BBX 20 20 0 0
BITMAP
000000
000000
03FC00
0FFF00
1E0780
186180
3060C0
3060C0
606060
606060
606060
604060
60C060
7080E0
3000C0
3801C0
1C0380
0F9F00
03FC00
006000
ENDCHAR
STARTCHAR E389
ENCODING 58249
SWIDTH 1107 0
DWIDTH 20 0
BBX 20 20 0 0
BITMAP
000000
000000
03FC00
0FFF00
1E0780
186180
3060C0
3060C0
606060
606060
606060
61C060
630060
7000E0
3000C0
3801C0
1C0380
0F9F00
03FC00
006000
ENDCHAR
STARTCHAR E38A
ENCODING 58250
SWIDTH 1107 0
DWIDTH 20 0
BBX 20 20 0 0
BITMAP
000000
000000
03FC00
0FFF00
1E0780
186180
3060C0
3060C0
606060
606060
63E060
600060
600060
7000E0
3000C0
3801C0
1C0380
0F9F00
03FC00
006000
ENDCHAR
STARTCHAR E38B
ENCODING 58251
SWIDTH 1107 0
DWIDTH 20 0
BBX 20 20 0 0
BITMAP
000000
000000
03FC00
0FFF00
1E0780
186180
3060C0
3060C0
636060
61E060
60E060
600060
600060
7000E0
3000C0
3801C0
1C0380
0F9F00
03FC00
006000
ENDCHAR
STARTCHAR E38C
ENCODING 58252
SWIDTH 1107 0
DWIDTH 20 0
BBX 20 20 0 0
BITMAP
000000
000000
03FC00
0FFF00
1E0780
186180
3060C0
31E0C0
60E060
606060
606060
600060
600060
7000E0
3000C0
3801C0
1C0380
0F9F00
03FC00
006000
ENDCHAR
STARTCHAR E38D
ENCODING 58253
SWIDTH 1107 0
DWIDTH 20 0
BBX 20 20 0 0
BITMAP
000000
000000
03FC00
0C0300
180180
100080
200040
200040
400020
400020
400020
400020
400020
600060
200040
3000C0
180180
0C0300
030C00
006000
ENDCHAR
STARTCHAR E38E
ENCODING 58254
SWIDTH 1107 0
DWIDTH 20 0
BBX 20 20 0 0
BITMAP
000000
000000
000C00
000600
000380
000180
0001C0
0000C0
0000E0
0000E0
0000E0
0000E0
0000E0
0000E0
0001C0
0001C0
000380
000300
000C00
002000
ENDCHAR
STARTCHAR E38F
ENCODING 58255
SWIDTH 1107 0
DWIDTH 20 0
BBX 20 20 0 0
BITMAP
000000
000000
001C00
000E00
000780
000380
0003C0
0001C0
0001E0
0001E0
0001E0
0001E0
0001E0
0001E0
0003C0
0003C0
000380
000700
000C00
002000
ENDCHAR
STARTCHAR E390
ENCODING 58256
SWIDTH 1107 0
DWIDTH 20 0
BBX 20 20 0 0
BITMAP
000000
000000
001C00
000E00
000780
000780
0007C0
0003C0
0003E0
0003E0
0003E0
0003E0
0003E0
0003E0
0003C0
0007C0
000780
000F00
001C00
002000
ENDCHAR
STARTCHAR E391
ENCODING 58257
SWIDTH 1107 0
DWIDTH 20 0
BBX 20 20 0 0
BITMAP
000000
000000
001C00
001E00
000F80
000F80
000FC0
0007C0
0007E0
0007E0
0007E0
0007E0
0007E0
0007E0
0007C0
000FC0
000F80
000F00
001C00
002000
ENDCHAR
STARTCHAR E392
ENCODING 58258
SWIDTH 1107 0
DWIDTH 20 0
BBX 20 20 0 0
BITMAP
000000
000000
003C00
001E00
001F80
001F80
000FC0
000FC0
000FE0
000FE0
000FE0
000FE0
000FE0
000FE0
000FC0
000FC0
001F80
001F00
001C00
002000
ENDCHAR
STARTCHAR E393
ENCODING 58259
SWIDTH 1107 0
DWIDTH 20 0
BBX 20 20 0 0
BITMAP
000000
000000
003C00
001E00
001F80
001F80
000FC0
000FC0
000FE0
000FE0
000FE0
000FE0
000FE0
000FE0
000FC0
000FC0
001F80
001F00
001C00
002000
ENDCHAR
STARTCHAR E394
ENCODING 58260
SWIDTH 1107 0
DWIDTH 20 0
BBX 20 20 0 0
BITMAP
000000
000000
003C00
003E00
003F80
003F80
003FC0
003FC0
003FE0
003FE0
003FE0
003FE0
003FE0
003FE0
003FC0
003FC0
003F80
003F00
003C00
002000
ENDCHAR
STARTCHAR E395
ENCODING 58261
SWIDTH 1107 0
DWIDTH 20 0
BBX 20 20 0 0
BITMAP
000000
000000
003C00
003E00
003F80
007F80
007FC0
007FC0
007FE0
007FE0
007FE0
007FE0
007FE0
007FE0
007FC0
007FC0
007F80
003F00
003C00
002000
ENDCHAR
STARTCHAR E396
ENCODING 58262
SWIDTH 1107 0
DWIDTH 20 0
BBX 20 20 0 0
BITMAP
000000
000000
003C00
007E00
007F80
007F80
007FC0
00FFC0
00FFE0
00FFE0
00FFE0
00FFE0
00FFE0
00FFE0
007FC0
007FC0
007F80
007F00
007C00
002000
ENDCHAR
STARTCHAR E397
ENCODING 58263
SWIDTH 1107 0
DWIDTH 20 0
BBX 20 20 0 0
BITMAP
000000
000000
007C00
007F00
007F80
00FF80
00FFC0
00FFC0
00FFE0
01FFE0
01FFE0
01FFE0
00FFE0
00FFE0
00FFC0
00FFC0
00FF80
007F00
007C00
002000
ENDCHAR
STARTCHAR E398
ENCODING 58264
SWIDTH 1107 0
DWIDTH 20 0
BBX 20 20 0 0
BITMAP
000000
000000
007C00
00FF00
00FF80
01FF80
01FFC0
01FFC0
01FFE0
01FFE0
01FFE0
01FFE0
01FFE0
01FFE0
01FFC0
01FFC0
00FF80
00FF00
007C00
002000
ENDCHAR
STARTCHAR E399
ENCODING 58265
SWIDTH 1107 0
DWIDTH 20 0
BBX 20 20 0 0
BITMAP
000000
000000
007C00
00FF00
01FF80
01FF80
03FFC0
03FFC0
03FFE0
03FFE0
03FFE0
03FFE0
03FFE0
03FFE0
03FFC0
03FFC0
01FF80
00FF00
00FC00
002000
ENDCHAR
STARTCHAR E39A
ENCODING 58266
SWIDTH 1107 0
DWIDTH 20 0
BBX 20 20 0 0
BITMAP
000000
000000
007C00
01FF00
01FF80
03FF80
03FFC0
07FFC0
07FFE0
07FFE0
07FFE0
07FFE0
07FFE0
07FFE0
07FFC0
03FFC0
03FF80
01FF00
00FC00
002000
ENDCHAR
STARTCHAR E39B
ENCODING 58267
SWIDTH 1107 0
DWIDTH 20 0
BBX 20 20 0 0
BITMAP
000000
000000
03FC00
0FFE00
1FFF80
1FFF80
3FFFC0
3FFFC0
7FFFE0
7FFFE0
7FFFE0
7FFFE0
7FFFE0
7FFFE0
3FFFC0
3FFFC0
1FFF80
0FFF00
03FC00
006000
ENDCHAR
STARTCHAR E39C
ENCODING 58268
SWIDTH 1107 0
DWIDTH 20 0
BBX 20 20 0 0
BITMAP
000000
000000
03F000
07F800
1FFC00
1FFE00
3FFE00
3FFF00
7FFF00
7FFF00
7FFF00
7FFF00
7FFF00
7FFF00
3FFE00
3FFE00
1FFC00
0FFC00
03F000
004000
ENDCHAR
STARTCHAR E39D
ENCODING 58269
SWIDTH 1107 0
DWIDTH 20 0
BBX 20 20 0 0
BITMAP
000000
000000
03E000
07F000
1FF800
1FFC00
3FFC00
3FFE00
7FFE00
7FFE00
7FFE00
7FFE00
7FFE00
7FFE00
3FFE00
3FFC00
1FFC00
0FF800
03F000
004000
ENDCHAR
STARTCHAR E39E
ENCODING 58270
SWIDTH 1107 0
DWIDTH 20 0
BBX 20 20 0 0
BITMAP
000000
000000
03E000
07F000
1FF800
1FF800
3FFC00
3FFC00
7FFC00
7FFC00
7FFC00
7FFC00
7FFC00
7FFC00
3FFC00
3FF800
1FF800
0FF000
03E000
004000
ENDCHAR
STARTCHAR E39F
ENCODING 58271
SWIDTH 1107 0
DWIDTH 20 0
BBX 20 20 0 0
BITMAP
000000
000000
03E000
07E000
1FF000
1FF000
3FF800
3FF800
7FF800
7FF800
7FF800
7FF800
7FF800
7FF800
3FF800
3FF800
1FF000
0FF000
03E000
004000
ENDCHAR
STARTCHAR E3A0
ENCODING 58272
SWIDTH 1107 0
DWIDTH 20 0
BBX 20 20 0 0
BITMAP
000000
000000
03C000
07E000
1FE000
1FF000
3FF000
3FF000
7FF000
7FF800
7FF800
7FF800
7FF000
7FF000
3FF000
3FF000
1FF000
0FE000
03E000
004000
ENDCHAR
STARTCHAR E3A1
ENCODING 58273
SWIDTH 1107 0
DWIDTH 20 0
BBX 20 20 0 0
BITMAP
000000
000000
03C000
07E000
1FE000
1FE000
3FE000
3FE000
7FF000
7FF000
7FF000
7FF000
7FF000
7FF000
3FE000
3FE000
1FE000
0FE000
03C000
004000
ENDCHAR
STARTCHAR E3A2
ENCODING 58274
SWIDTH 1107 0
DWIDTH 20 0
BBX 20 20 0 0
BITMAP
000000
000000
03C000
0FC000
1FC000
1FC000
3FC000
3FC000
7FC000
7FC000
7FC000
7FC000
7FC000
7FC000
3FC000
3FC000
1FC000
0FC000
03C000
004000
ENDCHAR
STARTCHAR E3A3
ENCODING 58275
SWIDTH 1107 0
DWIDTH 20 0
BBX 20 20 0 0
BITMAP
000000
000000
03C000
0FC000
1F8000
1F8000
3F8000
3F8000
7F8000
7F8000
7F8000
7F8000
7F8000
7F8000
3F8000
3F8000
1F8000
0F8000
03C000
004000
ENDCHAR
STARTCHAR E3A4
ENCODING 58276
SWIDTH 1107 0
DWIDTH 20 0
BBX 20 20 0 0
BITMAP
000000
000000
03C000
0F8000
1F8000
1F0000
3F0000
3F0000
7F0000
7F0000
7F0000
7F0000
7F0000
7F0000
3F0000
3F0000
1F0000
0F8000
038000
004000
ENDCHAR
STARTCHAR E3A5
ENCODING 58277
SWIDTH 1107 0
DWIDTH 20 0
BBX 20 20 0 0
BITMAP
000000
000000
038000
0F0000
1F0000
1E0000
3E0000
3E0000
7E0000
7C0000
7C0000
7C0000
7C0000
7E0000
3E0000
3E0000
1F0000
0F0000
038000
004000
ENDCHAR
STARTCHAR E3A6
ENCODING 58278
SWIDTH 1107 0
DWIDTH 20 0
BBX 20 20 0 0
BITMAP
000000
000000
038000
0F0000
1E0000
1C0000
3C0000
3C0000
780000
780000
780000
780000
780000
780000
3C0000
3C0000
1E0000
0E0000
030000
004000
ENDCHAR
STARTCHAR E3A7
ENCODING 58279
SWIDTH 1107 0
DWIDTH 20 0
BBX 20 20 0 0
BITMAP
000000
000000
030000
0E0000
1C0000
180000
380000
300000
700000
700000
700000
700000
700000
700000
380000
380000
1C0000
0C0000
030000
004000
ENDCHAR
STARTCHAR E3A8
ENCODING 58280
SWIDTH 1107 0
DWIDTH 20 0
BBX 20 20 0 0
BITMAP
000000
000000
030000
0C0000
180000
100000
300000
200000
600000
600000
600000
600000
600000
600000
300000
300000
180000
0C0000
030000
004000
ENDCHAR
STARTCHAR E3A9
ENCODING 58281
SWIDTH 1107 0
DWIDTH 20 0
BBX 20 20 0 0
BITMAP
000000
000000
03FC00
07FE00
1E0780
180180
3060C0
3060C0
606060
606060
60F060
60F060
60F060
31F8E0
31F8C0
3801C0
1C0380
0F9F00
03FC00
006000
ENDCHAR
STARTCHAR E3AA
ENCODING 58282
SWIDTH 1107 0
DWIDTH 20 0
BBX 20 20 0 0
BITMAP
000000
000000
001000
001000
011100
000100
03FC00
064600
0822C0
183A00
300400
200400
200500
200400
1AB800
000000
054000
000000
010000
000000
ENDCHAR
STARTCHAR E3AB
ENCODING 58283
SWIDTH 1107 0
DWIDTH 20 0
BBX 20 20 0 0
BITMAP
000000
000000
000000
000000
000000
000000
00FF00
013100
020880
060F80
080300
180100
180100
080100
055600
004000
015000
000000
008000
000000
ENDCHAR
STARTCHAR E3AC
ENCODING 58284
SWIDTH 1107 0
DWIDTH 20 0
BBX 20 20 0 0
BITMAP
000000
000000
000000
000000
000000
000E00
00D200
013200
021980
060F00
080300
100100
100100
080300
055600
004000
015000
000000
008000
000000
ENDCHAR
STARTCHAR E3AD
ENCODING 58285
SWIDTH 1107 0
DWIDTH 20 0
BBX 20 20 0 0
BITMAP
000000
000000
000000
000000
000000
000000
00E000
019000
020800
060E00
080300
080100
080100
080100
075600
004000
015000
000000
008000
000000
ENDCHAR
STARTCHAR E3AE
ENCODING 58286
SWIDTH 1107 0
DWIDTH 20 0
BBX 20 20 0 0
BITMAP
000000
000000
000000
000000
000000
006000
006000
060600
006000
009000
010800
0D0B00
07EE00
000000
03F800
000000
000000
000000
000000
000000
ENDCHAR
STARTCHAR E3AF
ENCODING 58287
SWIDTH 1107 0
DWIDTH 20 0
BBX 20 20 0 0
BITMAP
000000
000000
000000
000000
000000
000000
000A00
1FFC00
000000
1FF000
001380
002480
000480
000C80
000780
000300
000000
000000
000000
000000
ENDCHAR
STARTCHAR E3B0
ENCODING 58288
SWIDTH 1107 0
DWIDTH 20 0
BBX 20 20 0 0
BITMAP
000000
000000
000000
000000
000000
000000
000500
0FFF00
000000
0FF800
000B00
001300
000300
000300
000200
000600
000000
000000
000000
000000
ENDCHAR
STARTCHAR E3B1
ENCODING 58289
SWIDTH 1107 0
DWIDTH 20 0
BBX 20 20 0 0
BITMAP
000000
000000
000000
000000
000000
000000
000A00
1FFC00
000000
3FF000
001780
0024C0
000180
000700
000F80
000F80
000000
000000
000000
000000
ENDCHAR
STARTCHAR E3B2
ENCODING 58290
SWIDTH 1107 0
DWIDTH 20 0
BBX 20 20 0 0
BITMAP
000000
000000
000000
000000
000000
000000
000A00
1FFC00
000000
1FF000
001780
002480
000100
000C80
000F80
000300
000000
000000
000000
000000
ENDCHAR
STARTCHAR E3B3
ENCODING 58291
SWIDTH 1107 0
DWIDTH 20 0
BBX 20 20 0 0
BITMAP
000000
000000
000000
000000
000000
000000
000A00
1FFC00
000000
3FF000
001180
002280
000580
000F80
000180
000100
000000
000000
000000
000000
ENDCHAR
STARTCHAR E3B4
ENCODING 58292
SWIDTH 1107 0
DWIDTH 20 0
BBX 20 20 0 0
BITMAP
000000
000000
000000
000000
000000
000000
000A00
1FFC00
000000
3FF000
001780
002600
000780
000080
000F80
000700
000000
000000
000000
000000
ENDCHAR
STARTCHAR E3B5
ENCODING 58293
SWIDTH 1107 0
DWIDTH 20 0
BBX 20 20 0 0
BITMAP
000000
000000
000000
000000
000000
000000
000A00
1FFC00
000000
3FF000
001780
002400
000780
000C80
000780
000300
000000
000000
000000
000000
ENDCHAR
STARTCHAR E3B6
ENCODING 58294
SWIDTH 1107 0
DWIDTH 20 0
BBX 20 20 0 0
BITMAP
000000
000000
000000
000000
000000
000000
000C00
3FFC00
000000
3FF000
0017C0
002180
000300
000200
000600
000600
000000
000000
000000
000000
ENDCHAR
STARTCHAR E3B7
ENCODING 58295
SWIDTH 1107 0
DWIDTH 20 0
BBX 20 20 0 0
BITMAP
000000
000000
000000
000000
000000
000000
000A00
1FFC00
000000
3FF000
001780
0024C0
000300
000C80
000F80
000700
000000
000000
000000
000000
ENDCHAR
STARTCHAR E3B8
ENCODING 58296
SWIDTH 1107 0
DWIDTH 20 0
BBX 20 20 0 0
BITMAP
000000
000000
000000
000000
000000
000000
000A00
1FFE00
000000
1FF000
001780
002480
000680
000280
000F80
000200
000000
000000
000000
000000
ENDCHAR
STARTCHAR E3B9
ENCODING 58297
SWIDTH 1107 0
DWIDTH 20 0
BBX 20 20 0 0
BITMAP
000000
000000
000000
000000
000000
000000
001800
7FF800
000000
7FC000
002DE0
004B60
001B60
001A60
001BC0
001980
000000
000000
000000
000000
ENDCHAR
STARTCHAR E3BA
ENCODING 58298
SWIDTH 1107 0
DWIDTH 20 0
BBX 20 20 0 0
BITMAP
000000
000000
000000
000000
000000
000000
000C00
3FFC00
000000
3FF000
0016C0
002680
000580
000D80
000D80
000D80
000000
000000
000000
000000
ENDCHAR
STARTCHAR E3BB
ENCODING 58299
SWIDTH 1107 0
DWIDTH 20 0
BBX 20 20 0 0
BITMAP
000000
000000
000000
000000
000000
000000
001800
7FF800
000000
7FC000
002DE0
004B60
001860
0019C0
001BE0
001FC0
000000
000000
000000
000000
ENDCHAR
STARTCHAR E3BC
ENCODING 58300
SWIDTH 1107 0
DWIDTH 20 0
BBX 20 20 0 0
BITMAP
000000
000000
001000
001000
011100
010200
007800
00C400
0684C0
000400
3F8400
001800
1FC300
001100
3F9000
000000
000000
000000
000000
000000
ENDCHAR
STARTCHAR E3BD
ENCODING 58301
SWIDTH 1107 0
DWIDTH 20 0
BBX 20 20 0 0
BITMAP
000000
000000
000000
000000
007C00
010200
023C00
048800
010800
086000
088000
090E00
093300
091200
0FFF00
000000
000000
000000
000000
000000
ENDCHAR
STARTCHAR E3BE
ENCODING 58302
SWIDTH 1107 0
DWIDTH 20 0
BBX 20 20 0 0
BITMAP
000000
000000
000000
000000
000000
010000
011000
031000
035800
034800
036800
002C00
000C00
008800
008800
008800
000000
000000
000000
000000
ENDCHAR
STARTCHAR E3BF
ENCODING 58303
SWIDTH 1107 0
DWIDTH 20 0
BBX 20 20 0 0
BITMAP
000000
000000
000000
000000
000000
004000
008000
01D000
01F800
01F800
03F800
03FC00
03FC00
01FC00
03FC00
07FE00
000000
000000
000000
000000
ENDCHAR
STARTCHAR E3C0
ENCODING 58304
SWIDTH 1107 0
DWIDTH 20 0
BBX 20 20 0 0
BITMAP
000000
000000
000000
000000
00E000
00F000
01F000
00F000
006000
002000
006000
00B000
01F000
03D800
03CC00
079E00
000000
000000
000000
000000
ENDCHAR
STARTCHAR E3C1
ENCODING 58305
SWIDTH 1107 0
DWIDTH 20 0
BBX 20 20 0 0
BITMAP
000000
000000
000000
000000
000000
000000
006000
01A000
032000
021000
020C00
020400
024400
00F000
039C00
000000
000000
000000
000000
000000
ENDCHAR
STARTCHAR E3C2
ENCODING 58306
SWIDTH 1107 0
DWIDTH 20 0
BBX 20 20 0 0
BITMAP
000000
000000
000000
000000
000000
000000
006000
01A000
032000
021000
020C00
020400
020400
000000
039C00
00E000
004000
000000
000000
000000
ENDCHAR
STARTCHAR E3C3
ENCODING 58307
SWIDTH 1107 0
DWIDTH 20 0
BBX 20 20 0 0
BITMAP
000000
000000
000000
000800
001C00
001C00
001800
000000
001800
1F1800
0B7800
0BFC00
0FFC00
0FFE00
0EDA00
06DB00
000000
000000
000000
000000
ENDCHAR
STARTCHAR E3C4
ENCODING 58308
SWIDTH 1107 0
DWIDTH 20 0
BBX 20 20 0 0
BITMAP
000000
000000
070000
07E000
07F800
07FE00
07F800
07E000
070000
040000
040000
040000
040000
040000
040000
040000
040000
040000
040000
040000
ENDCHAR
STARTCHAR E3C5
ENCODING 58309
SWIDTH 1107 0
DWIDTH 20 0
BBX 20 20 0 0
BITMAP
000000
000000
070000
07E000
07F800
07FE00
07F800
07E000
070000
040000
078000
07E000
07F800
07FE00
07F800
07E000
070000
040000
040000
040000
ENDCHAR
STARTCHAR E3C6
ENCODING 58310
SWIDTH 1107 0
DWIDTH 20 0
BBX 20 20 0 0
BITMAP
000000
000000
0DFF00
0DFF00
0D8700
0D8700
0DFF00
0DFF00
0DFF00
0C0000
0C0000
0C0000
0C0000
0C0000
0C0000
0C0000
0C0000
0C0000
0C0000
0C0000
ENDCHAR
STARTCHAR E3C7
ENCODING 58311
SWIDTH 1107 0
DWIDTH 20 0
BBX 20 20 0 0
BITMAP
000000
000000
0DFF00
0DFF00
0D8700
0D8700
0DFF00
0DFF00
0DFF00
0DFF00
0DFF00
0DFF00
0D8700
0D8700
0DFF00
0DFF00
0C0000
0C0000
0C0000
0C0000
ENDCHAR
STARTCHAR E3C8
ENCODING 58312
SWIDTH 1107 0
DWIDTH 20 0
BBX 20 20 0 0
BITMAP
000000
000000
03FC00
0FF300
1FF980
1FFC80
3FFE40
3FFE40
7FFE20
7FFF20
7FFF20
7FFF20
7FFE20
7FFE20
3FFE40
3FFEC0
1FFD80
0FFB00
03FC00
006000
ENDCHAR
STARTCHAR E3C9
ENCODING 58313
SWIDTH 1107 0
DWIDTH 20 0
BBX 20 20 0 0
BITMAP
000000
000000
03FC00
0FF300
1FF980
1FF880
3FFC40
3FFC40
7FFE20
7FFE20
7FFE20
7FFE20
7FFE20
7FFC20
3FFC40
3FFCC0
1FF980
0FF300
03FC00
006000
ENDCHAR
STARTCHAR E3CA
ENCODING 58314
SWIDTH 1107 0
DWIDTH 20 0
BBX 20 20 0 0
BITMAP
000000
000000
03FC00
0FE300
1FF180
1FF880
3FF840
3FFC40
7FFC20
7FFC20
7FFC20
7FFC20
7FFC20
7FFC60
3FF840
3FF8C0
1FF980
0FF300
03EC00
006000
ENDCHAR
STARTCHAR E3CB
ENCODING 58315
SWIDTH 1107 0
DWIDTH 20 0
BBX 20 20 0 0
BITMAP
000000
000000
03FC00
0FE300
1FF180
1FF080
3FF040
3FF840
7FF820
7FF820
7FF820
7FF820
7FF820
7FF860
3FF840
3FF0C0
1FF180
0FE300
03EC00
006000
ENDCHAR
STARTCHAR E3CC
ENCODING 58316
SWIDTH 1107 0
DWIDTH 20 0
BBX 20 20 0 0
BITMAP
000000
000000
03FC00
0FE300
1FE180
1FE080
3FF040
3FF040
7FF020
7FF020
7FF020
7FF020
7FF020
7FF060
3FF040
3FF0C0
1FE180
0FE300
03CC00
006000
ENDCHAR
STARTCHAR E3CD
ENCODING 58317
SWIDTH 1107 0
DWIDTH 20 0
BBX 20 20 0 0
BITMAP
000000
000000
03FC00
0FC300
1FE180
1FE080
3FE040
3FE040
7FE020
7FE020
7FE020
7FE020
7FE020
7FE020
3FE040
3FE0C0
1FE180
0FC300
03DC00
006000
ENDCHAR
STARTCHAR E3CE
ENCODING 58318
SWIDTH 1107 0
DWIDTH 20 0
BBX 20 20 0 0
BITMAP
000000
000000
03FC00
0FC300
1FC180
1FC080
3FC040
3FC040
7FC020
7FC020
7FC020
7FC020
7FC020
7FC060
3FC040
3FC0C0
1FC180
0FC300
03DC00
006000
ENDCHAR
STARTCHAR E3CF
ENCODING 58319
SWIDTH 1107 0
DWIDTH 20 0
BBX 20 20 0 0
BITMAP
000000
000000
03FC00
0FC300
1F8180
1F8080
3F8040
3F8040
7F8020
7F8020
7F8020
7F8020
7F8020
7F8060
3F8040
3F80C0
1F8180
0F8300
03DC00
006000
ENDCHAR
STARTCHAR E3D0
ENCODING 58320
SWIDTH 1107 0
DWIDTH 20 0
BBX 20 20 0 0
BITMAP
000000
000000
03FC00
0F8300
1F8180
1F0080
3F0040
3F0040
7F0020
7F0020
7F0020
7F0020
7F0020
7F0060
3F0040
3F00C0
1F0180
0F8300
039C00
006000
ENDCHAR
STARTCHAR E3D1
ENCODING 58321
SWIDTH 1107 0
DWIDTH 20 0
BBX 20 20 0 0
BITMAP
000000
000000
03FC00
0F8300
1F0180
1E0080
3E0040
3E0040
7E0020
7C0020
7C0020
7C0020
7E0020
7E0060
3E0040
3E00C0
1F0180
0F0300
039C00
006000
ENDCHAR
STARTCHAR E3D2
ENCODING 58322
SWIDTH 1107 0
DWIDTH 20 0
BBX 20 20 0 0
BITMAP
000000
000000
03FC00
0F0300
1E0180
1E0080
3C0040
3C0040
780020
780020
780020
780020
780020
7C0060
3C0040
3C00C0
1E0180
0F0300
038C00
006000
ENDCHAR
STARTCHAR E3D3
ENCODING 58323
SWIDTH 1107 0
DWIDTH 20 0
BBX 20 20 0 0
BITMAP
000000
000000
03FC00
0E0300
1C0180
1C0080
380040
380040
700020
700020
700020
700020
700020
700060
380040
3800C0
1C0180
0E0300
030C00
006000
ENDCHAR
STARTCHAR E3D4
ENCODING 58324
SWIDTH 1107 0
DWIDTH 20 0
BBX 20 20 0 0
BITMAP
000000
000000
03FC00
0E0300
180180
180080
300040
300040
600020
600020
600020
600020
600020
700060
300040
3800C0
180180
0E0300
030C00
006000
ENDCHAR
STARTCHAR E3D5
ENCODING 58325
SWIDTH 1107 0
DWIDTH 20 0
BBX 20 20 0 0
BITMAP
000000
000000
03FC00
0C0300
180180
100080
200040
200040
400020
400020
400020
400020
400020
600060
200040
3000C0
180180
0C0300
030C00
006000
ENDCHAR
STARTCHAR E3D6
ENCODING 58326
SWIDTH 1107 0
DWIDTH 20 0
BBX 20 20 0 0
BITMAP
000000
000000
03FC00
0C0700
180380
100380
2001C0
2001C0
4000E0
4000E0
4000E0
4000E0
4000E0
6000E0
2001C0
3001C0
180380
0C0700
038C00
006000
ENDCHAR
STARTCHAR E3D7
ENCODING 58327
SWIDTH 1107 0
DWIDTH 20 0
BBX 20 20 0 0
BITMAP
000000
000000
03FC00
0C0F00
180780
100780
2003C0
2003C0
4003E0
4001E0
4001E0
4001E0
4001E0
6003E0
2003C0
3003C0
180780
0C0F00
031C00
006000
ENDCHAR
STARTCHAR E3D8
ENCODING 58328
SWIDTH 1107 0
DWIDTH 20 0
BBX 20 20 0 0
BITMAP
000000
000000
03FC00
0C1F00
180F80
100780
2007C0
2007C0
4007E0
4003E0
4003E0
4003E0
4003E0
6007E0
2007C0
3007C0
180F80
0C0F00
031C00
006000
ENDCHAR
STARTCHAR E3D9
ENCODING 58329
SWIDTH 1107 0
DWIDTH 20 0
BBX 20 20 0 0
BITMAP
000000
000000
03FC00
0C1F00
181F80
100F80
200FC0
200FC0
4007E0
4007E0
4007E0
4007E0
4007E0
600FE0
200FC0
300FC0
180F80
0C1F00
033C00
006000
ENDCHAR
STARTCHAR E3DA
ENCODING 58330
SWIDTH 1107 0
DWIDTH 20 0
BBX 20 20 0 0
BITMAP
000000
000000
03FC00
0C1F00
181F80
100F80
200FC0
200FC0
400FE0
400FE0
400FE0
400FE0
400FE0
600FE0
200FC0
300FC0
181F80
0C1F00
031C00
006000
ENDCHAR
STARTCHAR E3DB
ENCODING 58331
SWIDTH 1107 0
DWIDTH 20 0
BBX 20 20 0 0
BITMAP
000000
000000
03FC00
0C3F00
181F80
101F80
201FC0
201FC0
401FE0
401FE0
401FE0
401FE0
401FE0
601FE0
201FC0
301FC0
181F80
0C1F00
033C00
006000
ENDCHAR
STARTCHAR E3DC
ENCODING 58332
SWIDTH 1107 0
DWIDTH 20 0
BBX 20 20 0 0
BITMAP
000000
000000
03FC00
0C3F00
183F80
103F80
203FC0
203FC0
403FE0
403FE0
403FE0
403FE0
403FE0
603FE0
203FC0
303FC0
183F80
0C3F00
033C00
006000
ENDCHAR
STARTCHAR E3DD
ENCODING 58333
SWIDTH 1107 0
DWIDTH 20 0
BBX 20 20 0 0
BITMAP
000000
000000
03FC00
0C3F00
183F80
103F80
203FC0
207FC0
407FE0
407FE0
407FE0
407FE0
407FE0
607FE0
207FC0
303FC0
183F80
0C3F00
033C00
006000
ENDCHAR
STARTCHAR E3DE
ENCODING 58334
SWIDTH 1107 0
DWIDTH 20 0
BBX 20 20 0 0
BITMAP
000000
000000
03FC00
0C3F00
187F80
107F80
207FC0
207FC0
407FE0
407FE0
407FE0
407FE0
407FE0
407FE0
207FC0
307FC0
187F80
0C7F00
033C00
006000
ENDCHAR
STARTCHAR E3DF
ENCODING 58335
SWIDTH 1107 0
DWIDTH 20 0
BBX 20 20 0 0
BITMAP
000000
000000
03FC00
0C7F00
187F80
107F80
20FFC0
20FFC0
40FFE0
40FFE0
40FFE0
40FFE0
40FFE0
60FFE0
20FFC0
30FFC0
187F80
0C7F00
033C00
006000
ENDCHAR
STARTCHAR E3E0
ENCODING 58336
SWIDTH 1107 0
DWIDTH 20 0
BBX 20 20 0 0
BITMAP
000000
000000
03FC00
0C7F00
18FF80
10FF80
20FFC0
21FFC0
41FFE0
41FFE0
41FFE0
41FFE0
41FFE0
61FFE0
21FFC0
30FFC0
18FF80
0C7F00
037C00
006000
ENDCHAR
STARTCHAR E3E1
ENCODING 58337
SWIDTH 1107 0
DWIDTH 20 0
BBX 20 20 0 0
BITMAP
000000
000000
03FC00
0CFF00
19FF80
11FF80
23FFC0
23FFC0
47FFE0
47FFE0
47FFE0
47FFE0
47FFE0
63FFE0
23FFC0
33FFC0
19FF80
0CFF00
037C00
006000
ENDCHAR
STARTCHAR E3E2
ENCODING 58338
SWIDTH 1107 0
DWIDTH 20 0
BBX 20 20 0 0
BITMAP
000000
000000
03FC00
0CFF00
19FF80
13FF80
27FFC0
27FFC0
47FFE0
47FFE0
4FFFE0
47FFE0
47FFE0
47FFE0
27FFC0
37FFC0
1BFF80
0DFF00
037C00
006000
ENDCHAR
STARTCHAR E3E3
ENCODING 58339
SWIDTH 1107 0
DWIDTH 20 0
BBX 20 20 0 0
BITMAP
000000
000000
03FC00
0FFF00
1FFF80
1FFF80
3FFFC0
3FFFC0
7FFFE0
7FFFE0
7FFFE0
7FFFE0
7FFFE0
7FFFE0
3FFFC0
3FFFC0
1FFF80
0FFF00
03FC00
006000
ENDCHAR
STARTCHAR E5FA
ENCODING 58874
SWIDTH 1107 0
DWIDTH 20 0
BBX 20 20 0 0
BITMAP
000000
000000
000000
7F8000
7FC000
7FE000
7FFFE0
7FFFE0
400020
5DEFA0
5DAEA0
5DAEA0
5DEEA0
418020
7C3FE0
7FFFE0
7FFFE0
7FFFE0
000000
000000
ENDCHAR
STARTCHAR E5FB
ENCODING 58875
SWIDTH 1107 0
DWIDTH 20 0
BBX 20 20 0 0
BITMAP
000000
000000
000000
7F8000
7FC000
7FE000
7FFFE0
7F9FE0
7F8FE0
7E67E0
7C23E0
7819E0
7C03E0
7E67E0
7F0FE0
7F9FE0
7FFFE0
7FFFE0
000000
000000
ENDCHAR
STARTCHAR E5FC
ENCODING 58876
SWIDTH 1107 0
DWIDTH 20 0
BBX 20 20 0 0
BITMAP
000000
000000
000000
7F8000
7FC000
7FE000
7FFFE0
7E67E0
7E0FE0
7C03E0
7861E0
7CF3E0
7CF3E0
7861E0
7C07E0
7F07E0
7F6FE0
7FFFE0
000000
000000
ENDCHAR
STARTCHAR E5FD
ENCODING 58877
SWIDTH 1107 0
DWIDTH 20 0
BBX 20 20 0 0
BITMAP
000000
000000
000000
7F8000
7FC000
7FE000
7FFFE0
7DFBE0
7C01E0
7C01E0
7801E0
79F9E0
7B6DE0
7A65E0
7BFDE0
7C63E0
7FFFE0
7FFFE0
000000
000000
ENDCHAR
STARTCHAR E5FE
ENCODING 58878
SWIDTH 1107 0
DWIDTH 20 0
BBX 20 20 0 0
BITMAP
000000
000000
000000
7C0000
7E0000
7F0000
7FFF00
7FFF00
600000
6FFFE0
6FFFC0
5FFFC0
5FFFC0
5FFF80
7FFF80
7FFF80
3FFF00
7FFF00
000000
000000
ENDCHAR
STARTCHAR E5FF
ENCODING 58879
SWIDTH 1107 0
DWIDTH 20 0
BBX 20 20 0 0
BITMAP
000000
000000
000000
7F8000
7FC000
7FE000
7FFFE0
7FFFE0
7FFFE0
7FFFE0
7FFFE0
7FFFE0
7FFFE0
7FFFE0
7FFFE0
7FFFE0
7FFFE0
7FFFE0
000000
000000
ENDCHAR
STARTCHAR E600
ENCODING 58880
SWIDTH 1107 0
DWIDTH 20 0
BBX 20 20 0 0
BITMAP
000000
000000
000180
000000
000400
000000
000800
000000
001000
004000
006000
002000
00A000
008000
000000
010000
000000
000000
000000
100000
ENDCHAR
STARTCHAR E601
ENCODING 58881
SWIDTH 1107 0
DWIDTH 20 0
BBX 20 20 0 0
BITMAP
000000
000000
7F0000
7F0000
000000
000000
1FC000
1FC000
000000
000000
07DFC0
07DFC0
000000
000000
07EEE0
07EEE0
000000
000000
1FC000
1FC000
ENDCHAR
STARTCHAR E602
ENCODING 58882
SWIDTH 1107 0
DWIDTH 20 0
BBX 20 20 0 0
BITMAP
000000
000000
000000
080000
0E0000
0F0000
0F8000
0FE000
0FF000
0FF800
0FFE00
0FFF00
0FFC00
0FF800
0FF000
0FE000
0F8000
0F0000
0E0000
0C0000
ENDCHAR
STARTCHAR E603
ENCODING 58883
SWIDTH 1107 0
DWIDTH 20 0
BBX 20 20 0 0
BITMAP
000000
007F00
01C080
030080
0E0080
080180
180300
100600
107800
180000
0C0000
066000
01C000
038000
048000
088000
190000
1F0000
0C0000
000000
ENDCHAR
STARTCHAR E604
ENCODING 58884
SWIDTH 1107 0
DWIDTH 20 0
BBX 20 20 0 0
BITMAP
000000
000000
004400
007FC0
007FC0
06FE60
05F800
03F800
03E000
07E000
37D000
0FC000
0FC000
0FD000
1FC000
7FE000
7FE000
1FF800
1FE000
1FF000
ENDCHAR
STARTCHAR E605
ENCODING 58885
SWIDTH 1107 0
DWIDTH 20 0
BBX 20 20 0 0
BITMAP
000000
000000
003FC0
00FFE0
03FFE0
07FFE0
0FFFE0
1FFFE0
1FFFE0
3FFFE0
3FFFE0
7FFFC0
7FFFC0
7FFFC0
7FFFC0
7FFFC0
7FFFC0
7FFFC0
3FFFC0
0C0000
ENDCHAR
STARTCHAR E606
ENCODING 58886
SWIDTH 1107 0
DWIDTH 20 0
BBX 20 20 0 0
BITMAP
000000
03F800
02FC00
02FC00
03FC00
1FFC00
3FFDC0
7FFDE0
7FF9E0
7C03E0
79FFE0
7BFFE0
3BFFC0
1BFFC0
03C000
03FC00
03F400
03FC00
007000
000000
ENDCHAR
STARTCHAR E607
ENCODING 58887
SWIDTH 1107 0
DWIDTH 20 0
BBX 20 20 0 0
BITMAP
000000
000000
0E0700
0E0600
0E0E00
0E0C00
0E0000
0E0000
0EFC00
0FFE00
0FFF00
0E0700
080700
000700
000700
080700
0C0700
0E0700
080700
000700
ENDCHAR
STARTCHAR E608
ENCODING 58888
SWIDTH 1107 0
DWIDTH 20 0
BBX 20 20 0 0
BITMAP
000000
000000
000000
000000
0F0000
3FBF00
3FFF80
7FFFC0
7FBFE0
7FFFE0
7CFFC0
4FFF80
33FF00
19FF00
0D8300
098780
09C380
000000
000000
000000
ENDCHAR
STARTCHAR E609
ENCODING 58889
SWIDTH 1107 0
DWIDTH 20 0
BBX 20 20 0 0
BITMAP
000000
000000
000000
040600
070E00
07FE00
07FE00
07FE00
07FE00
07FE00
07FE00
07FE00
3FFFC0
1FFF80
0FFF00
07FE00
03FC00
01F800
00F000
006000
ENDCHAR
STARTCHAR E60A
ENCODING 58890
SWIDTH 1107 0
DWIDTH 20 0
BBX 20 20 0 0
BITMAP
000000
000000
00F000
010800
010800
01C800
03F800
06B800
07F000
07F800
03F800
03F800
02D800
03B800
03B800
031C00
019C00
050600
058E00
030000
ENDCHAR
STARTCHAR E60B
ENCODING 58891
SWIDTH 1107 0
DWIDTH 20 0
BBX 20 20 0 0
BITMAP
000000
000000
0E0700
1E0780
180180
180180
1C0380
1C0380
1C0380
3801C0
7000E0
7801C0
1C0380
1C0380
1C0380
180180
180180
1C0380
0E0700
060000
ENDCHAR
STARTCHAR E60C
ENCODING 58892
SWIDTH 1107 0
DWIDTH 20 0
BBX 20 20 0 0
BITMAP
000000
000000
000000
000000
070FE0
071FC0
073C40
073800
073C00
071F00
071FC0
0707E0
0701E0
0700E0
0F20E0
7E3FC0
7C3F80
000000
000000
000000
ENDCHAR
STARTCHAR E60D
ENCODING 58893
SWIDTH 1107 0
DWIDTH 20 0
BBX 20 20 0 0
BITMAP
000000
000000
000000
7FFC00
7FFC00
600000
600000
680020
680320
6807A0
6807A0
680320
68C020
09E020
0BE320
0FF7A0
0FFFE0
0FFFE0
000000
000000
ENDCHAR
STARTCHAR E60E
ENCODING 58894
SWIDTH 1107 0
DWIDTH 20 0
BBX 20 20 0 0
BITMAP
000000
000000
000000
010800
030C00
070E00
0E0700
1C0380
3801C0
7000E0
600060
7000E0
3801C0
1C0380
0E0700
070E00
030C00
010800
000000
000000
ENDCHAR
STARTCHAR E60F
ENCODING 58895
SWIDTH 1107 0
DWIDTH 20 0
BBX 20 20 0 0
BITMAP
000000
000000
000000
000000
000000
000000
000000
000000
018800
67FE60
4FFF20
7F0FE0
3801C0
000000
000000
000000
000000
000000
000000
000000
ENDCHAR
STARTCHAR E610
ENCODING 58896
SWIDTH 1107 0
DWIDTH 20 0
BBX 20 20 0 0
BITMAP
000000
000000
010000
008000
008000
004000
00F000
03FC00
03FC00
03FC00
03FC00
01F800
01F800
01F800
01F800
01F000
00F000
00F000
00F000
006000
ENDCHAR
STARTCHAR E611
ENCODING 58897
SWIDTH 1107 0
DWIDTH 20 0
BBX 20 20 0 0
BITMAP
000000
000000
1CF300
0FFF00
0FFF00
1FFF80
1FFF80
1FFF80
1FFF80
1FFF80
1FFF00
07FE00
07FE00
17FE00
1FFF80
1FFF80
0FFF00
07FE00
03FC00
006000
ENDCHAR
STARTCHAR E612
ENCODING 58898
SWIDTH 1107 0
DWIDTH 20 0
BBX 20 20 0 0
BITMAP
000000
000000
3FFFC0
3FFFC0
000000
000000
000000
3FFE00
3FFE00
000000
000000
000000
3FFFC0
3FFFC0
000000
000000
000000
3FE000
3FE000
3FE000
ENDCHAR
STARTCHAR E613
ENCODING 58899
SWIDTH 1107 0
DWIDTH 20 0
BBX 20 20 0 0
BITMAP
000000
000000
000000
7FC000
7FC000
7FFFC0
7FFFE0
7FFFE0
7FFFE0
7FFFE0
7FFFE0
7FFFE0
7FFFE0
7FFFE0
7FFFE0
7FFFE0
7FFFE0
7FFFE0
000000
000000
ENDCHAR
STARTCHAR E614
ENCODING 58900
SWIDTH 1107 0
DWIDTH 20 0
BBX 20 20 0 0
BITMAP
000000
000000
01C780
03C780
03C700
038700
3FFFE0
3FFFE0
3FFFE0
078E00
070E00
070E00
7FFFC0
7FFFC0
7FFFC0
0E1C00
0E1C00
1E3C00
1E3C00
000000
ENDCHAR
STARTCHAR E615
ENCODING 58901
SWIDTH 1107 0
DWIDTH 20 0
BBX 20 20 0 0
BITMAP
000000
000000
000000
031E00
07FE00
07FC00
07FE40
3FFFC0
7F0FE0
7E07E0
3E0380
1C0380
1C0380
7E07E0
7F0FE0
3FFFC0
27FE00
03FE00
07FE00
078E00
ENDCHAR
STARTCHAR E616
ENCODING 58902
SWIDTH 1107 0
DWIDTH 20 0
BBX 20 20 0 0
BITMAP
000000
000000
000000
000000
000000
000000
000000
7FFFE0
421020
4A52A0
4A52A0
4A12A0
7E7FE0
03C000
000000
000000
000000
000000
000000
000000
ENDCHAR
STARTCHAR E617
ENCODING 58903
SWIDTH 1107 0
DWIDTH 20 0
BBX 20 20 0 0
BITMAP
000000
000000
000000
00F000
01F800
07FE00
0FFF00
1FFF80
3FFFC0
3FFFC0
3F9FC0
3F0FC0
3E07C0
3E07C0
3E07C0
3E07C0
3E07C0
3E07C0
3E07C0
3000C0
ENDCHAR
STARTCHAR E618
ENCODING 58904
SWIDTH 1107 0
DWIDTH 20 0
BBX 20 20 0 0
BITMAP
000000
000000
000000
010800
030C00
070E00
0E0700
1C0380
3801C0
7000E0
600060
7000E0
3801C0
1C0380
0E0700
070E00
030C00
010800
000000
000000
ENDCHAR
STARTCHAR E619
ENCODING 58905
SWIDTH 1107 0
DWIDTH 20 0
BBX 20 20 0 0
BITMAP
000000
000000
7E0000
7F8000
7FE000
1FF000
01F800
607C00
7C3E00
7F1F00
7F8F80
1FC780
03E3C0
01F3C0
00F3C0
3CF1E0
7C79E0
7C79E0
7C79E0
103800
ENDCHAR
STARTCHAR E61A
ENCODING 58906
SWIDTH 1107 0
DWIDTH 20 0
BBX 20 20 0 0
BITMAP
000000
000000
000000
07C080
1FE100
3E7100
3CA500
7DFA00
7FF000
7FFF00
7FC0E0
7F81E0
7F07E0
201F80
200A00
183000
0FF000
01F000
004000
000000
ENDCHAR
STARTCHAR E61B
ENCODING 58907
SWIDTH 1107 0
DWIDTH 20 0
BBX 20 20 0 0
BITMAP
000000
000000
000000
000000
006200
239C20
1801C0
23FE20
3E03E0
3FFFC0
3FFFC0
5FFFC0
4FFF80
47FF00
67FF00
3BFE00
03FE00
00F000
000000
000000
ENDCHAR
STARTCHAR E61C
ENCODING 58908
SWIDTH 1107 0
DWIDTH 20 0
BBX 20 20 0 0
BITMAP
000000
000000
000400
000800
001800
001000
001000
003000
002000
002000
002800
002000
013000
00B000
007000
046000
0C6000
046000
04F000
0C0000
ENDCHAR
STARTCHAR E61D
ENCODING 58909
SWIDTH 1107 0
DWIDTH 20 0
BBX 20 20 0 0
BITMAP
000000
000000
00F000
03FC00
07FE00
1F0F80
3E07C0
3C03C0
38F3C0
38FB40
39F000
39FB40
38F7C0
3803C0
3C03C0
1F0F80
0FFF00
03FC00
00F000
006000
ENDCHAR
STARTCHAR E61E
ENCODING 58910
SWIDTH 1107 0
DWIDTH 20 0
BBX 20 20 0 0
BITMAP
000000
000000
00F000
03FC00
07FE00
1F0F80
3E07C0
3C03C0
38F3C0
38FFC0
39FFC0
39FFC0
38F7C0
3803C0
3C03C0
1F0F80
0FFF00
03FC00
00F000
006000
ENDCHAR
STARTCHAR E61F
ENCODING 58911
SWIDTH 1107 0
DWIDTH 20 0
BBX 20 20 0 0
BITMAP
000000
000000
000000
000000
778000
3B8000
3DC000
1DE000
0EEFE0
0F77E0
077800
077BE0
0EFDE0
1FFE00
1DCE00
3B8700
778780
000000
000000
000000
ENDCHAR
STARTCHAR E620
ENCODING 58912
SWIDTH 1107 0
DWIDTH 20 0
BBX 20 20 0 0
BITMAP
000000
000000
0001E0
0003E0
03F3E0
0FFDC0
1FE600
3FC200
3FC300
7FC300
7FE780
7FFF80
7FFF80
7FFF00
7FFF00
3FFF00
1FFE00
0FFC00
07F800
00C000
ENDCHAR
STARTCHAR E621
ENCODING 58913
SWIDTH 1107 0
DWIDTH 20 0
BBX 20 20 0 0
BITMAP
000000
000000
000000
000000
000000
006000
000000
006000
000000
000000
000000
000000
006000
000000
006000
000000
000000
006000
000000
006000
ENDCHAR
STARTCHAR E622
ENCODING 58914
SWIDTH 1107 0
DWIDTH 20 0
BBX 20 20 0 0
BITMAP
000000
000000
1F1F00
1F3F00
1F3E00
1F7C00
1FF800
1FF800
1FF000
0FE000
0FE000
0FF000
0FF800
07F800
077C00
077E00
073E00
031F00
031F80
030F80
ENDCHAR
STARTCHAR E623
ENCODING 58915
SWIDTH 1107 0
DWIDTH 20 0
BBX 20 20 0 0
BITMAP
000000
000000
006000
006000
00F000
00F000
01F800
3FFFC0
3FFFC0
1FFF80
0FFF00
07FE00
07FE00
07FE00
07FE00
07FE00
070E00
040200
000000
000000
ENDCHAR
STARTCHAR E624
ENCODING 58916
SWIDTH 1107 0
DWIDTH 20 0
BBX 20 20 0 0
BITMAP
000000
000000
00F000
01F800
03FC00
03FC00
03FC00
03FC00
01F800
00F000
000000
1E0780
3F0FC0
7F9FE0
7F9FE0
7F9FE0
7F9FE0
3F0FC0
1E0780
000000
ENDCHAR
STARTCHAR E625
ENCODING 58917
SWIDTH 1107 0
DWIDTH 20 0
BBX 20 20 0 0
BITMAP
000000
000000
000000
059A00
006000
086100
009000
07FE00
150A80
666660
42F420
466620
350AC0
0F9F00
009000
006100
006100
049200
020400
000000
ENDCHAR
STARTCHAR E626
ENCODING 58918
SWIDTH 1107 0
DWIDTH 20 0
BBX 20 20 0 0
BITMAP
000000
000000
020600
000200
021500
0A4000
080000
080000
080000
000000
080000
080100
000100
000100
000100
000000
000000
000200
000000
040200
ENDCHAR
STARTCHAR E627
ENCODING 58919
SWIDTH 1107 0
DWIDTH 20 0
BBX 20 20 0 0
BITMAP
000000
000000
03E600
0FF900
0DFA00
050600
0F7E00
0FFE00
0FFE00
07FE00
07FE00
07FE00
07FE00
07FE00
07FE00
07FE00
07FE00
07FE00
07FA00
040000
ENDCHAR
STARTCHAR E628
ENCODING 58920
SWIDTH 1107 0
DWIDTH 20 0
BBX 20 20 0 0
BITMAP
000000
000000
000000
000000
000000
7FCF80
7FDFC0
0C1860
0C1800
0C1E00
0C0F80
0C01E0
0C0060
0C1860
0C1CE0
0C0FC0
000000
000000
000000
000000
ENDCHAR
STARTCHAR E629
ENCODING 58921
SWIDTH 1107 0
DWIDTH 20 0
BBX 20 20 0 0
BITMAP
000000
000000
0CDE00
0DF300
0FF800
0FDE00
0B4300
0B7300
0B5E00
007600
3FFF80
3F9DC0
33F6C0
37DE00
36CF80
36C7C0
33F6C0
3FB8C0
3F7F80
006000
ENDCHAR
STARTCHAR E62A
ENCODING 58922
SWIDTH 1107 0
DWIDTH 20 0
BBX 20 20 0 0
BITMAP
000000
000000
7FFFE0
7FFFE0
7FFFE0
7FFFE0
7FFFE0
7FFFE0
7FFFE0
7FFFE0
000000
7FFFE0
7FFFE0
7FFFE0
7FFFE0
7FFFE0
7FFFE0
7FFFE0
7FFFE0
7FFFE0
ENDCHAR
STARTCHAR E62B
ENCODING 58923
SWIDTH 1107 0
DWIDTH 20 0
BBX 20 20 0 0
BITMAP
000000
000000
7F0FE0
7F0FE0
3E07E0
3E0FC0
3E1F80
3E3F00
3E7E00
3EFC00
3FF800
3FF000
3FE000
3FC000
3F8000
3F0000
3E0000
3C0000
380000
000000
ENDCHAR
STARTCHAR E62C
ENCODING 58924
SWIDTH 1107 0
DWIDTH 20 0
BBX 20 20 0 0
BITMAP
000000
000000
3FEFE0
5FF7E0
6FFBE0
77FDE0
7BFCE0
7DFB60
7EF7A0
7F6FC0
7F9FE0
7F9FC0
7F6FA0
7EF760
7DFAE0
7BFDE0
77FEE0
6FFF60
5FFFA0
3FFFC0
ENDCHAR
STARTCHAR E62D
ENCODING 58925
SWIDTH 1107 0
DWIDTH 20 0
BBX 20 20 0 0
BITMAP
000000
000000
004000
00E000
01E000
01E000
03F000
03F000
07F800
07FC00
07FE00
0FFE00
0FFF00
0FFF00
0FFF00
07FF00
07FE00
03FC00
013800
006000
ENDCHAR
STARTCHAR E62E
ENCODING 58926
SWIDTH 1107 0
DWIDTH 20 0
BBX 20 20 0 0
BITMAP
000000
000000
007000
000800
0E0300
006400
210040
220040
040000
006080
106000
000000
220000
3100C0
104480
000F00
010800
008000
006000
000000
ENDCHAR
STARTCHAR E62F
ENCODING 58927
SWIDTH 1107 0
DWIDTH 20 0
BBX 20 20 0 0
BITMAP
000000
000000
01E000
03FC00
07FF80
0FFF80
1F3F80
383FC0
403FC0
607FC0
307FC0
387FE0
3CFFE0
3EFFC0
1FFFC0
1FFF80
1FFF00
0FFE00
00FC00
000800
ENDCHAR
STARTCHAR E630
ENCODING 58928
SWIDTH 1107 0
DWIDTH 20 0
BBX 20 20 0 0
BITMAP
000000
000000
000000
000000
000000
000100
000180
01F8C0
000060
180060
31F8C0
200180
600100
33F800
18FC00
080000
000000
000000
000000
000000
ENDCHAR
STARTCHAR E631
ENCODING 58929
SWIDTH 1107 0
DWIDTH 20 0
BBX 20 20 0 0
BITMAP
000000
000000
0FC000
0CC000
0CC000
0FC000
0FC000
006000
003F00
003F00
003F00
003F00
003F00
007000
0FE000
0FC000
0CC000
0CC000
0FC000
0FC000
ENDCHAR
STARTCHAR E632
ENCODING 58930
SWIDTH 1107 0
DWIDTH 20 0
BBX 20 20 0 0
BITMAP
000000
000000
03FC00
0FFF00
1FC380
1FF380
3C03C0
3CFFC0
7E7FE0
7F9FE0
7E0FE0
787FE0
71FFE0
71FFE0
3C01C0
3FF1C0
1F8F80
0FFF00
03FC00
006000
ENDCHAR
STARTCHAR E633
ENCODING 58931
SWIDTH 1107 0
DWIDTH 20 0
BBX 20 20 0 0
BITMAP
000000
000000
000000
000400
000000
000800
002800
00F000
01FC00
0FFFC0
1F7FC0
3FFFC0
3FF000
3FC000
3FE000
3FE000
0FF800
0FFC00
07FC00
000200
ENDCHAR
STARTCHAR E634
ENCODING 58932
SWIDTH 1107 0
DWIDTH 20 0
BBX 20 20 0 0
BITMAP
000000
000000
7FFFC0
7FFF80
7FFF00
7FFE00
7FFC00
7FF800
7FF000
7FE000
7FC000
7FE000
7FF000
7FF800
7FFC00
7FFE00
7FFF00
7FFF80
7FFFC0
7FFFE0
ENDCHAR
STARTCHAR E635
ENCODING 58933
SWIDTH 1107 0
DWIDTH 20 0
BBX 20 20 0 0
BITMAP
000000
000000
001800
003800
003800
002000
07DF00
0FFF80
1FFF00
1FFF00
3FFE00
3FFE00
3FFF00
1FFF00
1FFF80
1FFF80
0FFF80
0FFF00
07FE00
010400
ENDCHAR
STARTCHAR E636
ENCODING 58934
SWIDTH 1107 0
DWIDTH 20 0
BBX 20 20 0 0
BITMAP
000000
000000
000000
020400
039C00
039C00
039C00
039C00
039C00
039C00
039C00
039C00
1F9F80
0F9F00
079E00
079E00
03FC00
01F800
00F000
006000
ENDCHAR
STARTCHAR E637
ENCODING 58935
SWIDTH 1107 0
DWIDTH 20 0
BBX 20 20 0 0
BITMAP
000000
000000
000000
000000
000000
000000
000000
18F620
198660
098660
2CE720
3C35A0
4415A0
43F420
000000
000000
000000
000000
000000
000000
ENDCHAR
STARTCHAR E638
ENCODING 58936
SWIDTH 1107 0
DWIDTH 20 0
BBX 20 20 0 0
BITMAP
000000
000000
000000
000000
006180
00E2C0
01E340
7FE940
7FED60
7FE520
7FE5A0
7FE5A0
7FED60
7FE960
03E340
00E2C0
006080
002000
000000
000000
ENDCHAR
STARTCHAR E639
ENCODING 58937
SWIDTH 1107 0
DWIDTH 20 0
BBX 20 20 0 0
BITMAP
000000
000000
000000
000000
007F00
01FB80
036180
04C180
00C300
018600
01BE00
01FE00
03C700
030600
060C00
061800
0C7000
0DE000
1F8000
1C0000
ENDCHAR
STARTCHAR E63A
ENCODING 58938
SWIDTH 1107 0
DWIDTH 20 0
BBX 20 20 0 0
BITMAP
000000
000000
000000
040200
0E0700
1F0F80
3F9FC0
7FFFE0
7FFFE0
7FFFE0
7FFFE0
7FFFE0
3FFFC0
1FFF80
0FFF00
07FE00
03FC00
01F800
00F000
006000
ENDCHAR
STARTCHAR E63B
ENCODING 58939
SWIDTH 1107 0
DWIDTH 20 0
BBX 20 20 0 0
BITMAP
000000
000000
00F800
00C000
018000
01C000
01F800
01F000
038000
070000
0F0000
1E0000
1E0000
3FFFC0
67FC60
67FC60
67FC60
3FFC60
1FFFC0
000300
ENDCHAR
STARTCHAR E63C
ENCODING 58940
SWIDTH 1107 0
DWIDTH 20 0
BBX 20 20 0 0
BITMAP
000000
000000
000000
000000
000000
000000
18FC00
79FE00
7BCE00
1B8700
1B0000
1B8000
1B8000
19FFE0
18FFE0
181FE0
000000
000000
000000
000000
ENDCHAR
STARTCHAR E63D
ENCODING 58941
SWIDTH 1107 0
DWIDTH 20 0
BBX 20 20 0 0
BITMAP
000000
000000
000000
000000
0FFF00
3FFFC0
7FFFE0
7FFFE0
7FFFE0
7FDFE0
3FC1C0
07C000
003000
403F20
7C3FE0
7FC7E0
1FC000
000000
000000
000000
ENDCHAR
STARTCHAR E63E
ENCODING 58942
SWIDTH 1107 0
DWIDTH 20 0
BBX 20 20 0 0
BITMAP
000000
000000
006000
007000
023200
03F780
03E7C0
03E7C0
18E780
3E6000
007000
0073E0
0F73E0
7F3BE0
7F39E0
7F39E0
7F39E0
7FBC00
701800
000000
ENDCHAR
STARTCHAR E63F
ENCODING 58943
SWIDTH 1107 0
DWIDTH 20 0
BBX 20 20 0 0
BITMAP
000000
000000
0001C0
0001E0
0003E0
0007C0
0007C0
000F80
001F00
001E00
103E00
387C00
7C7800
3EF800
1FF000
0FE000
07E000
03C000
018000
000000
ENDCHAR
STARTCHAR E640
ENCODING 58944
SWIDTH 1107 0
DWIDTH 20 0
BBX 20 20 0 0
BITMAP
000000
000000
3FFFC0
7FFFE0
600060
600060
600060
600060
600060
600060
600060
600060
600060
600060
600060
600060
600060
7FFFE0
3FFFC0
0FFF00
ENDCHAR
STARTCHAR E641
ENCODING 58945
SWIDTH 1107 0
DWIDTH 20 0
BBX 20 20 0 0
BITMAP
000000
000000
03FC00
0F0F00
1C0380
104080
3040C0
204040
604660
604C20
605020
606020
600060
600040
300040
300080
180180
0E0700
03FC00
006000
ENDCHAR
STARTCHAR E642
ENCODING 58946
SWIDTH 1107 0
DWIDTH 20 0
BBX 20 20 0 0
BITMAP
000000
000000
03FC00
0FFE00
1FFF80
000780
0C03C0
3B01C0
3B81E0
7F80E0
7780E0
77C0E0
7B41E0
7BC1C0
3CE300
3E0000
1FFF80
0FFF00
03FC00
006000
ENDCHAR
STARTCHAR E643
ENCODING 58947
SWIDTH 1107 0
DWIDTH 20 0
BBX 20 20 0 0
BITMAP
000000
000000
000000
000000
000000
000000
000C00
001E00
033F00
07BF80
0FD3C0
1FE1E0
3CF0C0
787800
303000
000000
000000
000000
000000
000000
ENDCHAR
STARTCHAR E644
ENCODING 58948
SWIDTH 1107 0
DWIDTH 20 0
BBX 20 20 0 0
BITMAP
000000
000000
007E00
00FF80
01C180
0180C0
0300C0
0300C0
0300C0
0180C0
0181C0
01E380
03FF00
039C00
070000
0E0000
1C0000
380000
380000
100000
ENDCHAR
STARTCHAR E645
ENCODING 58949
SWIDTH 1107 0
DWIDTH 20 0
BBX 20 20 0 0
BITMAP
000000
000000
000000
000000
0000E0
0001E0
0003C0
000300
000700
070780
3F0F80
7E0F80
701C00
701C00
703800
3FF000
1FE000
000000
000000
000000
ENDCHAR
STARTCHAR E646
ENCODING 58950
SWIDTH 1107 0
DWIDTH 20 0
BBX 20 20 0 0
BITMAP
000000
000000
008000
07F000
1FF800
3FF000
3E3000
7C0000
782180
782180
78FFE0
782180
782180
7C0000
3E1000
3FF800
1FF800
0FF000
01C000
000000
ENDCHAR
STARTCHAR E647
ENCODING 58951
SWIDTH 1107 0
DWIDTH 20 0
BBX 20 20 0 0
BITMAP
000000
000000
000000
00F000
01F800
07FE00
1FFF80
3FFFC0
3F6FC0
3E67C0
3CF3C0
39F9C0
39F9C0
3C63C0
3F6FC0
3FFFC0
1FFF80
07FE00
03FC00
00F000
ENDCHAR
STARTCHAR E648
ENCODING 58952
SWIDTH 1107 0
DWIDTH 20 0
BBX 20 20 0 0
BITMAP
000000
000000
000000
07F000
1FF800
3FF000
3E3140
7C0340
7807E0
780280
780280
780FE0
780680
7C0580
3E1000
3FF800
1FF800
0FF000
01C000
000000
ENDCHAR
STARTCHAR E649
ENCODING 58953
SWIDTH 1107 0
DWIDTH 20 0
BBX 20 20 0 0
BITMAP
000000
000000
00FF00
03FF80
07FF80
0FC180
0F8000
1F0000
1F0000
1E0000
1E0000
1E0000
1F0000
1F0000
0F0000
0F8080
07FF80
03FF80
01FF80
003800
ENDCHAR
STARTCHAR E64A
ENCODING 58954
SWIDTH 1107 0
DWIDTH 20 0
BBX 20 20 0 0
BITMAP
000000
000000
7FFFE0
7FFFE0
7FFFE0
7060E0
7060E0
7FFFE0
7060E0
7060E0
7FFFE0
7060E0
7060E0
7FFFE0
7060E0
7060E0
7FFFE0
7FFFE0
7FFFE0
7FFFE0
ENDCHAR
STARTCHAR E64B
ENCODING 58955
SWIDTH 1107 0
DWIDTH 20 0
BBX 20 20 0 0
BITMAP
000000
000000
00C000
07F000
0FF800
1FF000
3E3000
3C0000
7C0000
780AC0
780AC0
780AE0
7C6F20
3C0000
3E3000
1FF800
1FF800
07F000
01C000
000000
ENDCHAR
STARTCHAR E64C
ENCODING 58956
SWIDTH 1107 0
DWIDTH 20 0
BBX 20 20 0 0
BITMAP
000000
000000
008000
020400
080200
07FF00
13FF80
11FFC0
30FFE0
307FE0
703FE0
701FE0
700FE0
3007E0
1003E0
0801E0
040100
020100
010100
00FF00
ENDCHAR
STARTCHAR E64D
ENCODING 58957
SWIDTH 1107 0
DWIDTH 20 0
BBX 20 20 0 0
BITMAP
000000
000000
1FFFC0
7FFFE0
7FFFE0
7FFFE0
7FFFE0
3FFFC0
01F800
7000E0
7FFFE0
7FFFE0
7FFFE0
0FFF00
400020
7FFFE0
7FFFE0
7FFFE0
3FFFC0
01F800
ENDCHAR
STARTCHAR E64E
ENCODING 58958
SWIDTH 1107 0
DWIDTH 20 0
BBX 20 20 0 0
BITMAP
000000
000000
3FFFC0
3FFFC0
000000
000000
000000
3FE000
3FE000
000000
000000
000000
3FFFC0
3FFFC0
000000
000000
000000
3FFC00
3FFC00
3FFC00
ENDCHAR
STARTCHAR E64F
ENCODING 58959
SWIDTH 1107 0
DWIDTH 20 0
BBX 20 20 0 0
BITMAP
000000
000000
000000
00F800
03FC00
0FFF00
3F9FC0
7F0FE0
3F9FC0
1FDF80
0FFF80
000000
1E0780
0FFF00
07FE00
03FC00
00F000
000000
000000
000000
ENDCHAR
STARTCHAR E650
ENCODING 58960
SWIDTH 1107 0
DWIDTH 20 0
BBX 20 20 0 0
BITMAP
000000
000000
000000
000000
000000
004000
000000
054100
000180
1D71E0
7FFFC0
7FFF00
7FFE00
7DFE00
23FC00
11F000
000000
000000
000000
000000
ENDCHAR
STARTCHAR E651
ENCODING 58961
SWIDTH 1107 0
DWIDTH 20 0
BBX 20 20 0 0
BITMAP
000000
000000
3FF800
3FFE00
3FFF00
3C0F80
3C07C0
3C07C0
3C03C0
3C03C0
3C03C0
3C03C0
3C03C0
3C07C0
3C07C0
3C0F80
3FFF00
3FFE00
3FFC00
3FC000
ENDCHAR
STARTCHAR E652
ENCODING 58962
SWIDTH 1107 0
DWIDTH 20 0
BBX 20 20 0 0
BITMAP
000000
03C000
03C000
07C000
07C000
07F180
0FFFC0
0FFFC0
1FFFC0
1FFF80
1FFF00
3FFE00
3FFC00
3FF800
3FF000
3FE000
3F8000
3F0000
180000
000000
ENDCHAR
STARTCHAR E653
ENCODING 58963
SWIDTH 1107 0
DWIDTH 20 0
BBX 20 20 0 0
BITMAP
000000
000000
004000
00E000
01E000
01E000
030000
027000
067800
063C00
061E00
0F8E00
0FCF00
0FCF00
0C0F00
063F00
07FE00
031E00
01F800
006000
ENDCHAR
STARTCHAR E654
ENCODING 58964
SWIDTH 1107 0
DWIDTH 20 0
BBX 20 20 0 0
BITMAP
000000
000000
000000
006000
006000
00F000
01F800
019800
039C00
039C00
079E00
0F9F00
0FFF00
1F9F80
3F9FC0
3FFFC0
7FFFE0
000000
000000
000000
ENDCHAR
STARTCHAR E655
ENCODING 58965
SWIDTH 1107 0
DWIDTH 20 0
BBX 20 20 0 0
BITMAP
000000
000000
000000
07FE00
0FFF00
0F0F00
1E0780
18F180
39F9C0
3BFDC0
7BFDE0
3BFDE0
3BFDC0
18F180
1C2380
0F0F00
0F9F00
07FE00
000000
000000
ENDCHAR
STARTCHAR E656
ENCODING 58966
SWIDTH 1107 0
DWIDTH 20 0
BBX 20 20 0 0
BITMAP
000000
000000
000000
002000
006000
00F000
00F000
01F800
01FC00
03FC00
07FE00
07FE00
01F800
00E000
020400
039C00
01F800
00F000
007000
006000
ENDCHAR
STARTCHAR E657
ENCODING 58967
SWIDTH 1107 0
DWIDTH 20 0
BBX 20 20 0 0
BITMAP
000000
000000
020000
020000
074000
076200
07E600
07FE00
07FE00
07FE00
0FFF00
0FFF00
0FFF00
0FFF00
0FFF00
0FFF00
0FFF00
03FC00
00F000
006000
ENDCHAR
STARTCHAR E658
ENCODING 58968
SWIDTH 1107 0
DWIDTH 20 0
BBX 20 20 0 0
BITMAP
000000
000000
030800
000000
210180
3E01C0
3F01C0
3FC0C0
7F00C0
7B01E0
7E01E0
7C21E0
7FE1C0
3E83C0
3F87C0
1FFFC0
0FFF80
07FE00
03FC00
000000
ENDCHAR
STARTCHAR E659
ENCODING 58969
SWIDTH 1107 0
DWIDTH 20 0
BBX 20 20 0 0
BITMAP
000000
000000
000000
000000
010000
018000
038000
038200
05C600
05C300
01EB00
08E180
08FF80
1FF180
1070C0
0079E0
203800
000000
000000
000000
ENDCHAR
STARTCHAR E65A
ENCODING 58970
SWIDTH 1107 0
DWIDTH 20 0
BBX 20 20 0 0
BITMAP
000000
000000
006000
00F000
01F800
03FC00
07BE00
0F5F00
1ECF80
3DC7C0
7BC3E0
3CC3C0
1E4780
0F0F00
079E00
03FC00
01F800
00F000
006000
000000
ENDCHAR
STARTCHAR E65B
ENCODING 58971
SWIDTH 1107 0
DWIDTH 20 0
BBX 20 20 0 0
BITMAP
000000
000000
01F800
07FE00
0FFF00
1FFF80
3801C0
3801C0
7801E0
7000E0
7000E0
7000E0
7801E0
7801E0
2607C0
370FC0
180F80
0F0F00
030E00
000000
ENDCHAR
STARTCHAR E65C
ENCODING 58972
SWIDTH 1107 0
DWIDTH 20 0
BBX 20 20 0 0
BITMAP
000000
000000
000000
080100
0C0300
0C0300
0C0300
1C0380
1E0780
1E0780
1FFF80
3FFFC0
3FFFC0
3FFFC0
1FFF80
0FFF00
07FE00
03FC00
00F000
006000
ENDCHAR
STARTCHAR E65D
ENCODING 58973
SWIDTH 1107 0
DWIDTH 20 0
BBX 20 20 0 0
BITMAP
000000
000000
006000
00F000
007800
033C00
079E00
0F8F00
1FC780
3FD1C0
7FD1E0
3FD9C0
3FDF80
1F9F00
0F9E00
079C00
03F800
01F000
00E000
000000
ENDCHAR
STARTCHAR E65E
ENCODING 58974
SWIDTH 1107 0
DWIDTH 20 0
BBX 20 20 0 0
BITMAP
000000
000000
000000
000000
000000
000000
000000
00E180
01F7C0
030C60
037C60
033C60
03FFC0
01E780
000000
000000
000000
000000
000000
000000
ENDCHAR
STARTCHAR E65F
ENCODING 58975
SWIDTH 1107 0
DWIDTH 20 0
BBX 20 20 0 0
BITMAP
000000
000000
010800
039C00
03FC00
27FE40
3FFFC0
7FFFE0
3FFFC0
39F9C0
36F6C0
36F6C0
3BFDC0
3FFFC0
370EC0
3F6FC0
1FFF80
1FFF80
03FC00
000000
ENDCHAR
STARTCHAR E660
ENCODING 58976
SWIDTH 1107 0
DWIDTH 20 0
BBX 20 20 0 0
BITMAP
000000
000000
000000
000000
0003C0
000260
01E060
0FF860
0FFFE0
17FBC0
3AFFC0
3DFF80
7FFE00
7FFE00
7FFC00
73DC00
618C00
000000
000000
000000
ENDCHAR
STARTCHAR E661
ENCODING 58977
SWIDTH 1107 0
DWIDTH 20 0
BBX 20 20 0 0
BITMAP
000000
000000
000000
000000
000000
0FFF00
07FE00
07FE00
03FC00
71F8E0
3861C0
186180
086100
086100
1CF180
006000
000000
000000
000000
000000
ENDCHAR
STARTCHAR E662
ENCODING 58978
SWIDTH 1107 0
DWIDTH 20 0
BBX 20 20 0 0
BITMAP
000000
000000
006000
00F000
016800
169680
3891C0
3909C0
120080
120480
140280
140280
180180
3801C0
3FFFC0
1C0380
016800
00F000
00F000
006000
ENDCHAR
STARTCHAR E663
ENCODING 58979
SWIDTH 1107 0
DWIDTH 20 0
BBX 20 20 0 0
BITMAP
000000
000000
008000
018000
038000
078000
0F8000
0F7E00
0EFD00
0DFB00
0BF700
07EF00
001F00
0FBF00
0F3E00
0E3C00
0C3800
083000
002000
000000
ENDCHAR
STARTCHAR E664
ENCODING 58980
SWIDTH 1107 0
DWIDTH 20 0
BBX 20 20 0 0
BITMAP
000000
000000
1C0000
1C0200
0E0700
0E0F00
071E00
077C00
03FC00
03E400
03C100
03C080
03C080
039F00
078600
078000
078000
078000
0F0000
030000
ENDCHAR
STARTCHAR E665
ENCODING 58981
SWIDTH 1107 0
DWIDTH 20 0
BBX 20 20 0 0
BITMAP
000000
000000
21FFE0
79FFE0
79FFE0
71FFE0
01FFE0
000000
01FFE0
71FFE0
79FFE0
79FFE0
21FFE0
000000
000000
31FFE0
79FFE0
79FFE0
31FFE0
000000
ENDCHAR
STARTCHAR E666
ENCODING 58982
SWIDTH 1107 0
DWIDTH 20 0
BBX 20 20 0 0
BITMAP
000000
000000
7F0FE0
47FE20
606060
606060
60F060
21F840
33FCC0
17FE80
1FFF80
1FFF80
37FEC0
23FC40
61F860
60F060
606060
43FC20
7F0FE0
7C03E0
ENDCHAR
STARTCHAR E667
ENCODING 58983
SWIDTH 1107 0
DWIDTH 20 0
BBX 20 20 0 0
BITMAP
000000
000000
000000
07FE00
07FE00
0FFF00
1FFF80
1E0780
3E07C0
3C03C0
7C03E0
3C03C0
3E07C0
1E0780
1F0F80
0FFF00
0FFF00
07FE00
000000
000000
ENDCHAR
STARTCHAR E668
ENCODING 58984
SWIDTH 1107 0
DWIDTH 20 0
BBX 20 20 0 0
BITMAP
000000
000000
000000
000180
00F300
07FE00
0F1C00
1A7980
32F0C0
62E060
63C0E0
3981C0
1F0780
067E00
0CF000
180000
100000
000000
000000
000000
ENDCHAR
STARTCHAR E669
ENCODING 58985
SWIDTH 1107 0
DWIDTH 20 0
BBX 20 20 0 0
BITMAP
000000
000000
7FFFE0
7FFFE0
7FFFE0
7FFBE0
7E7BE0
7C3FE0
7CBBE0
7DBBE0
7DBBE0
781BE0
79DBE0
7BDBE0
7FFFE0
7FFFE0
7FFFE0
7FFFE0
7FFFE0
000000
ENDCHAR
STARTCHAR E66A
ENCODING 58986
SWIDTH 1107 0
DWIDTH 20 0
BBX 20 20 0 0
BITMAP
000000
000000
03FC00
0E0700
180180
306080
30E040
606040
600060
61E020
406020
406020
606060
606060
3060C0
31F8C0
180180
0E0700
03FC00
006000
ENDCHAR
STARTCHAR E66B
ENCODING 58987
SWIDTH 1107 0
DWIDTH 20 0
BBX 20 20 0 0
BITMAP
000000
000000
03FC00
0E07C0
1C03C0
1003E0
3003C0
20F040
61F860
63FC60
43FC20
43FC20
61F860
60F060
300040
3000C0
180180
0E0700
03FC00
006000
ENDCHAR
STARTCHAR E66C
ENCODING 58988
SWIDTH 1107 0
DWIDTH 20 0
BBX 20 20 0 0
BITMAP
000000
000000
001800
001800
000C80
000CC0
0006C0
000640
07F340
0FFFE0
1FFFE0
1FFFE0
3FFE60
7FFFE0
7FFFE0
3FFFC0
3FFE00
1FFC00
1FFC00
0C1800
ENDCHAR
STARTCHAR E66D
ENCODING 58989
SWIDTH 1107 0
DWIDTH 20 0
BBX 20 20 0 0
BITMAP
000000
000000
000F00
000F00
000F00
000F00
000F00
000F00
000F00
000F00
000F00
000F00
000F00
000F00
000F00
060F00
07FE00
0FFE00
07FC00
00E000
ENDCHAR
STARTCHAR E66E
ENCODING 58990
SWIDTH 1107 0
DWIDTH 20 0
BBX 20 20 0 0
BITMAP
000000
000000
018800
020000
060400
060000
040000
040400
020000
000800
03FC00
0FFC00
07C400
07C800
07FD00
071D00
071A00
001800
009800
007000
ENDCHAR
STARTCHAR E66F
ENCODING 58991
SWIDTH 1107 0
DWIDTH 20 0
BBX 20 20 0 0
BITMAP
000000
000000
000020
0001E0
207FE0
7FFF80
1FFC00
02CC00
1FFF00
060800
060C00
37AF80
3EBF00
17AD00
16AD00
16AD00
3FBF00
36AD00
302D00
000000
ENDCHAR
STARTCHAR E670
ENCODING 58992
SWIDTH 1107 0
DWIDTH 20 0
BBX 20 20 0 0
BITMAP
000000
000000
02E000
004000
057200
07F380
1FF380
1FF380
1C7380
387380
3BF380
39F3C0
38F7C0
3C77C0
3C77C0
30F7C0
79F7C0
7FF7E0
07F7C0
001000
ENDCHAR
STARTCHAR E671
ENCODING 58993
SWIDTH 1107 0
DWIDTH 20 0
BBX 20 20 0 0
BITMAP
000000
000000
180000
195000
195900
195980
195E00
195F80
195F80
195000
197F80
19FF80
198000
1BFFC0
1E0000
7FFFE0
7FFFE0
180000
180000
180000
ENDCHAR
STARTCHAR E672
ENCODING 58994
SWIDTH 1107 0
DWIDTH 20 0
BBX 20 20 0 0
BITMAP
000000
01F800
03FC00
079E00
070E00
060600
060600
060600
3FFFC0
3FFFC0
3FFFC0
3FFFC0
3FFFC0
3FFFC0
3FFFC0
3FFFC0
3FFFC0
3FFFC0
3FFFC0
000000
ENDCHAR
STARTCHAR E673
ENCODING 58995
SWIDTH 1107 0
DWIDTH 20 0
BBX 20 20 0 0
BITMAP
000000
000000
100080
7801E0
7C03E0
7E07E0
7F0FE0
7F9FE0
7FFFE0
7BFDE0
79FDE0
79F9E0
78F1E0
7801E0
7801E0
7801E0
7801E0
7801E0
7801E0
000000
ENDCHAR
STARTCHAR E674
ENCODING 58996
SWIDTH 1107 0
DWIDTH 20 0
BBX 20 20 0 0
BITMAP
000000
000000
000000
003000
007800
00F800
01FC00
01FC00
01FC00
01FC00
01FC00
01F800
01F000
00F000
006000
002000
002000
000000
001000
001000
ENDCHAR
STARTCHAR E675
ENCODING 58997
SWIDTH 1107 0
DWIDTH 20 0
BBX 20 20 0 0
BITMAP
000000
000000
000000
000000
0FFF80
0FFFC0
180060
100020
313C20
236620
614020
616020
213F20
301F20
180020
1FFFE0
0FFF80
000000
000000
000000
ENDCHAR
STARTCHAR E676
ENCODING 58998
SWIDTH 1107 0
DWIDTH 20 0
BBX 20 20 0 0
BITMAP
000000
000000
3FF000
202800
202400
202200
203F00
200300
200300
200000
203F00
204180
2088C0
208840
209E40
208840
2088C0
204180
203F00
1F8C00
ENDCHAR
STARTCHAR E677
ENCODING 58999
SWIDTH 1107 0
DWIDTH 20 0
BBX 20 20 0 0
BITMAP
000000
000000
000000
000000
086100
1FFF80
7FFFE0
3E0FC0
3001C0
000000
206040
19F980
1FFF80
0FFF00
07FE00
00F000
000000
000000
000000
000000
ENDCHAR
STARTCHAR E678
ENCODING 59000
SWIDTH 1107 0
DWIDTH 20 0
BBX 20 20 0 0
BITMAP
000000
000000
3FFE00
3FFF00
3FFF00
380F00
380F40
3FFF40
3FFF40
3FFF00
3FFF40
3FFF40
3FFF00
3FFF40
3FFF40
3FFF40
3FFF00
3FFF00
3FFE00
1FFC00
ENDCHAR
STARTCHAR E679
ENCODING 59001
SWIDTH 1107 0
DWIDTH 20 0
BBX 20 20 0 0
BITMAP
000000
000000
007000
00D800
018800
010C00
0A0400
0F0700
0F9F00
0F0F80
1F0F80
1F0F80
1E0780
3E07C0
3E07C0
3C03C0
7C03E0
7C03E0
080180
000000
ENDCHAR
STARTCHAR E67A
ENCODING 59002
SWIDTH 1107 0
DWIDTH 20 0
BBX 20 20 0 0
BITMAP
000000
000000
000000
3FFFC0
7FFFE0
7FFFE0
7FFFE0
7DFFE0
40FDE0
007860
0039E0
0003E0
0007E0
313FE0
7BBFE0
7BBFE0
7FBFE0
105FE0
000020
000000
ENDCHAR
STARTCHAR E67B
ENCODING 59003
SWIDTH 1107 0
DWIDTH 20 0
BBX 20 20 0 0
BITMAP
000000
000000
3FFFC0
7FFFE0
600060
600060
7FFFE0
600060
7FFFE0
600060
600060
7FFFE0
79C060
70FFE0
607FE0
60FFE0
70FFE0
7FFFE0
7FFFE0
1FFF80
ENDCHAR
STARTCHAR E67C
ENCODING 59004
SWIDTH 1107 0
DWIDTH 20 0
BBX 20 20 0 0
BITMAP
000000
000000
000000
3000C0
3000C0
200040
663C60
6E7E60
6E4660
400620
407E20
40E620
60C620
6EEE60
6E7E60
243040
3000C0
3000C0
000000
000000
ENDCHAR
STARTCHAR E67D
ENCODING 59005
SWIDTH 1107 0
DWIDTH 20 0
BBX 20 20 0 0
BITMAP
000000
000000
00C000
00E000
00E000
00E000
00E000
00E000
00E000
00E000
00F000
01B000
019FE0
03E460
0703E0
1E0000
3C0000
7C0000
780000
000000
ENDCHAR
STARTCHAR E67E
ENCODING 59006
SWIDTH 1107 0
DWIDTH 20 0
BBX 20 20 0 0
BITMAP
000000
000000
001C00
1C3E00
1E7F00
1EFF00
1DFF80
1DFF80
1FFFC0
1FFFC0
0FFFC0
01FDC0
01B480
01A480
012480
012880
011880
011880
012080
030080
ENDCHAR
STARTCHAR E67F
ENCODING 59007
SWIDTH 1107 0
DWIDTH 20 0
BBX 20 20 0 0
BITMAP
000000
000000
7FFFE0
7FFFE0
7FFFE0
70FFE0
703FE0
739FE0
7390E0
7380E0
7027E0
7063E0
73F8E0
73FCE0
73E0E0
73E1E0
7FFFE0
7FFFE0
7FFFE0
7FFFE0
ENDCHAR
STARTCHAR E680
ENCODING 59008
SWIDTH 1107 0
DWIDTH 20 0
BBX 20 20 0 0
BITMAP
000000
000000
3C03C0
660660
63FE20
660660
3C07C0
180D80
001800
003000
006000
00C000
018000
030000
3E07E0
660620
47FE20
660620
3C07E0
1807E0
ENDCHAR
STARTCHAR E681
ENCODING 59009
SWIDTH 1107 0
DWIDTH 20 0
BBX 20 20 0 0
BITMAP
000000
000000
7FFC00
7FFC00
7FFC00
7FFC00
7FFC00
000000
03FFE0
03FFE0
03FFE0
03FFE0
03FFE0
000000
0003E0
0003E0
0003E0
0003E0
0003E0
000000
ENDCHAR
STARTCHAR E682
ENCODING 59010
SWIDTH 1107 0
DWIDTH 20 0
BBX 20 20 0 0
BITMAP
000000
000000
060600
060600
020400
01F800
07FE00
0FFF80
11F880
30F040
207040
3666C0
126480
186180
0CF300
0FFF00
07FE00
03FC00
00F000
006000
ENDCHAR
STARTCHAR E683
ENCODING 59011
SWIDTH 1107 0
DWIDTH 20 0
BBX 20 20 0 0
BITMAP
000000
000000
400000
700000
780000
7E0000
7F0000
1FC000
07E000
03F800
00F800
03F800
07F000
1FC000
7F8000
7E0000
780000
607FE0
407FE0
000000
ENDCHAR
STARTCHAR E684
ENCODING 59012
SWIDTH 1107 0
DWIDTH 20 0
BBX 20 20 0 0
BITMAP
000000
000000
006000
007000
00D000
01C800
01C800
03C400
078400
078200
0F8200
1F8100
1F8100
3F0180
1F0080
1F00C0
0F0380
061C00
07E000
020000
ENDCHAR
STARTCHAR E685
ENCODING 59013
SWIDTH 1107 0
DWIDTH 20 0
BBX 20 20 0 0
BITMAP
000000
000000
000000
180180
1C0380
37FEC0
38F1C0
3060C0
330CC0
270E40
370EC0
3000C0
3861C0
1F9F80
186080
080100
050A00
036C00
01F800
00F000
ENDCHAR
STARTCHAR E686
ENCODING 59014
SWIDTH 1107 0
DWIDTH 20 0
BBX 20 20 0 0
BITMAP
000000
000000
000000
000000
000000
00F000
1BFD80
37FEC0
74F8E0
3498C0
3766C0
16F700
04FA00
01FA00
03F800
00F000
000000
000000
000000
000000
ENDCHAR
STARTCHAR E687
ENCODING 59015
SWIDTH 1107 0
DWIDTH 20 0
BBX 20 20 0 0
BITMAP
000000
000000
7FFFE0
7FFFE0
7FFFE0
7FFFE0
7FFFE0
7FFFE0
7FFFE0
7FFFE0
7FFFE0
7C3820
7C1820
7DDBE0
7D9820
7C1BE0
7D9BE0
7D9820
7FFFE0
7FFFE0
ENDCHAR
STARTCHAR E688
ENCODING 59016
SWIDTH 1107 0
DWIDTH 20 0
BBX 20 20 0 0
BITMAP
000000
000000
7F0780
7F0FC0
7F1FE0
7F1FE0
7F1FE0
7F1FC0
7F0FC0
7F0300
7F0000
7F0000
7F0000
7F0000
7F0000
7F0000
7F0000
7F0000
7F0000
1C0000
ENDCHAR
STARTCHAR E689
ENCODING 59017
SWIDTH 1107 0
DWIDTH 20 0
BBX 20 20 0 0
BITMAP
000000
000000
1FFC00
1FE000
1FDF00
1F9F00
1F1B00
1F0F80
1E0700
1E0F00
1C1F00
1C3E00
183C00
187C00
10FC00
11FE00
01FE00
03FF00
03FF00
07FF80
ENDCHAR
STARTCHAR E68A
ENCODING 59018
SWIDTH 1107 0
DWIDTH 20 0
BBX 20 20 0 0
BITMAP
000000
000000
000000
000000
07FE00
0FFF00
3F01C0
3CFE40
78FFA0
78FFA0
78F3A0
78FFA0
3CFF40
1EFF80
07FF80
00F380
00F3C0
00F1C0
000000
000000
ENDCHAR
STARTCHAR E68B
ENCODING 59019
SWIDTH 1107 0
DWIDTH 20 0
BBX 20 20 0 0
BITMAP
000000
000000
000000
02F000
07BE00
0E6700
1C0380
1FF980
3FFDC0
6B1D40
33FCC0
63FCE0
339CC0
3FDFE0
3FCFC0
180180
0E03C0
0F0F00
07FE00
02F400
ENDCHAR
STARTCHAR E68C
ENCODING 59020
SWIDTH 1107 0
DWIDTH 20 0
BBX 20 20 0 0
BITMAP
000000
000000
000000
000000
0E0000
1F7800
3FFF80
3FFFC0
3FFFE0
3FFFE0
7FFFE0
7FFFE0
7FFFC0
7FFF80
3FFC00
07C000
03C000
000000
000000
000000
ENDCHAR
STARTCHAR E68D
ENCODING 59021
SWIDTH 1107 0
DWIDTH 20 0
BBX 20 20 0 0
BITMAP
000000
000000
03FC00
07FF00
1FFF80
1FFF80
3FC000
3FC000
7FFFE0
7F8000
7F0000
7FFFE0
7FFFE0
3C0000
3C0000
3FFFC0
1FFF80
0FFF00
03FE00
007000
ENDCHAR
STARTCHAR E68E
ENCODING 59022
SWIDTH 1107 0
DWIDTH 20 0
BBX 20 20 0 0
BITMAP
000000
000000
000300
007F00
0FFF00
0FFF00
0FFE00
0FC100
000700
03FF00
0FFF00
0FFF00
0FF800
0F0100
003F00
0FFF00
0FFF00
0FFE00
0FF000
080000
ENDCHAR
STARTCHAR E68F
ENCODING 59023
SWIDTH 1107 0
DWIDTH 20 0
BBX 20 20 0 0
BITMAP
000000
000000
000000
07F000
0FF800
1C3C00
380E00
700600
700700
600700
600700
700700
300600
380E00
1C3E00
0FFF00
07F780
0003C0
0001E0
0000C0
ENDCHAR
STARTCHAR E690
ENCODING 59024
SWIDTH 1107 0
DWIDTH 20 0
BBX 20 20 0 0
BITMAP
000000
000000
0E0000
0F0000
6FFFE0
6FFFE0
0F0000
040000
000700
000F00
7FFF60
7FFF60
000F00
000000
01E000
3DEFC0
7DEFE0
3DEFC0
01E000
000000
ENDCHAR
STARTCHAR E691
ENCODING 59025
SWIDTH 1107 0
DWIDTH 20 0
BBX 20 20 0 0
BITMAP
000000
000000
006000
006000
01F800
03FC00
038C00
030E00
038000
03E000
01F800
007C00
001C00
070E00
070E00
039C00
03FC00
00F000
006000
006000
ENDCHAR
STARTCHAR E692
ENCODING 59026
SWIDTH 1107 0
DWIDTH 20 0
BBX 20 20 0 0
BITMAP
000000
000000
3FFFC0
7FFFE0
7E07E0
7801E0
7010E0
7811E0
7821E0
7C03E0
7FFFE0
7FFFE0
7FFFE0
7FFFE0
7FFFE0
7FFFE0
7FFFE0
7FFFE0
3FFFC0
0FFF00
ENDCHAR
STARTCHAR E693
ENCODING 59027
SWIDTH 1107 0
DWIDTH 20 0
BBX 20 20 0 0
BITMAP
000000
01F800
03FC00
07FE00
07FE00
07FE00
07FE00
03FC00
03FC00
01F800
01F800
01F800
00F000
000000
01F000
01F000
000000
01F000
01F000
000000
ENDCHAR
STARTCHAR E694
ENCODING 59028
SWIDTH 1107 0
DWIDTH 20 0
BBX 20 20 0 0
BITMAP
000000
03FC00
07FE40
0FFFC0
1FFF00
3FFC00
3FF020
7C0020
780000
700100
700220
700420
300800
307040
1FC080
160780
0FFF00
03FC00
006000
000000
ENDCHAR
STARTCHAR E695
ENCODING 59029
SWIDTH 1107 0
DWIDTH 20 0
BBX 20 20 0 0
BITMAP
000000
000000
1A0180
3F0FC0
7FFFE0
3F0FC0
3E07C0
3E67C0
3E07C0
1E0780
0E0700
0F0F00
070E00
030C00
01D800
019800
009000
000000
006000
000000
ENDCHAR
STARTCHAR E696
ENCODING 59030
SWIDTH 1107 0
DWIDTH 20 0
BBX 20 20 0 0
BITMAP
000000
03FC00
07FF00
1FFF80
1FFF80
3F0FC0
3E07C0
7EFFE0
7E7FE0
7F0FE0
7FC7E0
7FF3E0
7E27C0
3E07C0
3FFF80
1FFF80
0FFF00
03FC00
006000
000000
ENDCHAR
STARTCHAR E697
ENCODING 59031
SWIDTH 1107 0
DWIDTH 20 0
BBX 20 20 0 0
BITMAP
000000
000000
007E00
01FF00
03C380
0F0180
0E1980
187D80
18FF80
19C380
180180
1C1980
1FF980
1FE180
19C380
180F00
1C1C00
0E7800
07E000
018000
ENDCHAR
STARTCHAR E698
ENCODING 59032
SWIDTH 1107 0
DWIDTH 20 0
BBX 20 20 0 0
BITMAP
000000
000000
1F8000
3FC000
3FC000
7FE000
7C0000
7C0000
3CFFE0
3CFFE0
1CFFE0
00FFE0
00FFE0
00FFE0
00FFE0
00FFE0
00FFE0
00FFE0
00FFE0
00FFE0
ENDCHAR
STARTCHAR E699
ENCODING 59033
SWIDTH 1107 0
DWIDTH 20 0
BBX 20 20 0 0
BITMAP
000000
000000
000000
000600
000200
020300
058380
06C380
036380
01FBC0
00FFC0
007FC0
403F80
303FC0
1FFFE0
0FFFE0
03FE20
003000
000000
000000
ENDCHAR
STARTCHAR E69A
ENCODING 59034
SWIDTH 1107 0
DWIDTH 20 0
BBX 20 20 0 0
BITMAP
000000
000000
000000
300000
380000
3E0000
3E8040
3EE1C0
3EF7C0
0EF7C0
02F7C0
00F7C0
007700
00D600
00F000
00F000
00F000
00F000
007000
001000
ENDCHAR
STARTCHAR E69B
ENCODING 59035
SWIDTH 1107 0
DWIDTH 20 0
BBX 20 20 0 0
BITMAP
000000
000000
000000
000000
000000
000000
7E0EE0
480680
4BF300
0BF180
099380
09C4C0
1DCCE0
019000
019000
03F000
000000
000000
000000
000000
ENDCHAR
STARTCHAR E69C
ENCODING 59036
SWIDTH 1107 0
DWIDTH 20 0
BBX 20 20 0 0
BITMAP
000000
000000
3FFFC0
7FFFE0
7000E0
7000E0
7000E0
7004E0
700CE0
7038E0
73F0E0
71F0E0
71E0E0
70C0E0
7000E0
7000E0
7000E0
7FFFE0
3FFFC0
0FFF00
ENDCHAR
STARTCHAR E69D
ENCODING 59037
SWIDTH 1107 0
DWIDTH 20 0
BBX 20 20 0 0
BITMAP
000000
000000
7FFFE0
7FFFE0
7FFFE0
7FFFE0
7FFFE0
7FFFE0
7FFFE0
781CE0
781060
7E73E0
7E73E0
7E70E0
7E7860
7E7E60
7E7E60
7E7060
7FFFE0
3FFFC0
ENDCHAR
STARTCHAR E69E
ENCODING 59038
SWIDTH 1107 0
DWIDTH 20 0
BBX 20 20 0 0
BITMAP
000000
006780
006780
066F80
066F00
120600
180000
19FC00
03FE00
07FE00
0FFC00
0FF800
0FE000
0FC000
078E00
078E00
03FC00
01F800
002000
000000
ENDCHAR
STARTCHAR E69F
ENCODING 59039
SWIDTH 1107 0
DWIDTH 20 0
BBX 20 20 0 0
BITMAP
000000
000000
03FC00
0FFF00
1FFF80
1FFF80
3E7FC0
3E3FC0
7E0FE0
7E07E0
7E01E0
7E03E0
7E0FE0
3E1FE0
3E7FC0
3EFFC0
1FFF80
0FFF00
03FC00
006000
ENDCHAR
STARTCHAR E6A0
ENCODING 59040
SWIDTH 1107 0
DWIDTH 20 0
BBX 20 20 0 0
BITMAP
000000
000000
000000
7B0DE0
3D9BC0
1D9B80
1EF780
0EF700
0F6F00
076E00
079E00
03FC00
01F800
01F800
00F000
00F000
006000
006000
000000
000000
ENDCHAR
STARTCHAR E6A1
ENCODING 59041
SWIDTH 1107 0
DWIDTH 20 0
BBX 20 20 0 0
BITMAP
000000
000000
7F0FE0
7F9FE0
7FFFE0
7FFFE0
7FFFE0
7FFFE0
7FFFE0
7FFFE0
7FFFE0
7FFFE0
7CB4E0
7E84E0
7E4960
7E4860
7E4B60
7F6B60
7FFFE0
7FFFE0
ENDCHAR
STARTCHAR E6A2
ENCODING 59042
SWIDTH 1107 0
DWIDTH 20 0
BBX 20 20 0 0
BITMAP
000000
000000
000000
000000
000000
000000
673780
672780
272680
3D64C0
3DE4C0
3DEFC0
3DCFC0
18CC60
18CC60
18DC60
000000
000000
000000
000000
ENDCHAR
STARTCHAR E6A3
ENCODING 59043
SWIDTH 1107 0
DWIDTH 20 0
BBX 20 20 0 0
BITMAP
000000
000000
00F000
03FC00
07FE00
1F0F80
1CF380
33FCC0
39F9C0
3E67C0
3F9FC0
3FFFC0
3FFFC0
3BFDC0
2CF340
3F6FC0
0FFF00
03FC00
00F000
002000
ENDCHAR
STARTCHAR E6A4
ENCODING 59044
SWIDTH 1107 0
DWIDTH 20 0
BBX 20 20 0 0
BITMAP
000000
000000
004000
01C000
01C000
01C000
03FF80
02BFC0
0737E0
7FA300
7D8600
3C1F00
1FA700
0FB380
073780
01FF80
03F380
03E100
078100
000000
ENDCHAR
STARTCHAR E6A5
ENCODING 59045
SWIDTH 1107 0
DWIDTH 20 0
BBX 20 20 0 0
BITMAP
000000
000000
01F000
7FFFE0
7FF020
7FF020
7FFFA0
7FF020
697020
697FA0
69F020
64FFA0
74F020
7FFFA0
7FF020
7FFFA0
7FF020
7FFFE0
03F000
000000
ENDCHAR
STARTCHAR E6A6
ENCODING 59046
SWIDTH 1107 0
DWIDTH 20 0
BBX 20 20 0 0
BITMAP
000000
000000
00E000
1FE000
7FE020
7FFFA0
7FFFA0
66E020
74FFA0
71E020
79FFA0
71E020
74FFA0
66E3A0
7FFFA0
7FE3A0
7FFFE0
7FE000
01E000
000000
ENDCHAR
STARTCHAR E6A7
ENCODING 59047
SWIDTH 1107 0
DWIDTH 20 0
BBX 20 20 0 0
BITMAP
000000
000000
006000
00F000
03F000
07F800
0FF000
07F000
07F000
0FE000
1FE000
1FF000
1FF000
1FF800
3FF800
3FF9C0
3FFF00
3BFE00
3FF800
038000
ENDCHAR
STARTCHAR E6A8
ENCODING 59048
SWIDTH 1107 0
DWIDTH 20 0
BBX 20 20 0 0
BITMAP
000000
000000
007800
007800
007800
007800
007000
007000
007000
007000
007000
006000
00E000
00E000
000000
000000
01E000
01E000
01E000
004000
ENDCHAR
STARTCHAR E6A9
ENCODING 59049
SWIDTH 1107 0
DWIDTH 20 0
BBX 20 20 0 0
BITMAP
000000
000000
000000
000020
0000C0
000380
7DFF60
7BFEE0
77FCE0
703CE0
7078E0
70F0E0
71E0E0
71C0E0
7380E0
77FDE0
6FFBE0
1C0000
300000
000000
ENDCHAR
STARTCHAR E6AA
ENCODING 59050
SWIDTH 1107 0
DWIDTH 20 0
BBX 20 20 0 0
BITMAP
000000
000000
3FCFC0
3FCFC0
3F3FC0
3F3FC0
3FCFC0
3FCFC0
3FFFC0
3F3FC0
3F3FC0
3FCFC0
3FFFC0
3F9FC0
3F6FC0
3F0FC0
3F0FC0
3FFFC0
3FFFC0
1FFF80
ENDCHAR
STARTCHAR E6AB
ENCODING 59051
SWIDTH 1107 0
DWIDTH 20 0
BBX 20 20 0 0
BITMAP
000000
000000
000000
07FE00
07FE00
0FFF00
1FFF80
1FFF80
3B12C0
3772C0
7594E0
31E4C0
2D16C0
1FFF80
1FFF80
0FFF00
0FFF00
07FE00
000000
000000
ENDCHAR
STARTCHAR E6AC
ENCODING 59052
SWIDTH 1107 0
DWIDTH 20 0
BBX 20 20 0 0
BITMAP
000000
000000
7E07E0
3E07E0
3F0FC0
3F0FC0
1F0F80
1F9F80
1F9F80
0F9F00
0FDF00
0FDF00
07DE00
07EE00
07EE00
03EC00
03F400
01F000
01F000
000000
ENDCHAR
STARTCHAR E6AD
ENCODING 59053
SWIDTH 1107 0
DWIDTH 20 0
BBX 20 20 0 0
BITMAP
000000
000000
000000
7FC000
404000
7FFFC0
7FFFE0
7FFFE0
7FFFE0
7FFFE0
7FFFE0
7FFFE0
7FFFE0
7FFFE0
7FFFE0
7FFFE0
7FFFE0
7FFFE0
000000
000000
ENDCHAR
STARTCHAR E6AE
ENCODING 59054
SWIDTH 1107 0
DWIDTH 20 0
BBX 20 20 0 0
BITMAP
000000
000000
020200
070300
0F0380
178380
37C380
2BC380
25E380
25F380
22F380
22FB80
227B80
223D80
223E80
221E80
120F00
0A0F00
060600
020000
ENDCHAR
STARTCHAR E6AF
ENCODING 59055
SWIDTH 1107 0
DWIDTH 20 0
BBX 20 20 0 0
BITMAP
000000
000000
038000
03C200
03DB00
03DF00
01DF00
01FE00
030E00
040200
080100
030800
110480
110480
130C80
030C00
080100
040200
020400
006000
ENDCHAR
STARTCHAR E6B0
ENCODING 59056
SWIDTH 1107 0
DWIDTH 20 0
BBX 20 20 0 0
BITMAP
000000
000000
020400
0F8100
1FC080
1FE800
3FEC00
2E6400
6EE620
64E620
75C700
718D00
7989A0
7999A0
3D9080
3C8040
1F8080
0FC100
03FC00
006000
ENDCHAR
STARTCHAR E6B1
ENCODING 59057
SWIDTH 1107 0
DWIDTH 20 0
BBX 20 20 0 0
BITMAP
000000
000000
070000
058000
008000
084000
004000
004000
004000
00E000
00E000
00E000
01A000
018000
031000
031000
071000
060900
0E0F00
000600
ENDCHAR
STARTCHAR E6B2
ENCODING 59058
SWIDTH 1107 0
DWIDTH 20 0
BBX 20 20 0 0
BITMAP
000000
000000
7801E0
7801E0
600060
63FC60
63FC60
606060
606060
606060
606060
606060
606060
606060
606060
606060
606060
600060
7801E0
7801E0
ENDCHAR
STARTCHAR E6B3
ENCODING 59059
SWIDTH 1107 0
DWIDTH 20 0
BBX 20 20 0 0
BITMAP
000000
000000
03FC00
030C00
030C00
060600
060600
066600
0C6300
0C6300
0C6300
08F100
1BFD80
1EFF80
1E0F80
1F8F80
07FE00
03FC00
00F000
006000
ENDCHAR
STARTCHAR E6B4
ENCODING 59060
SWIDTH 1107 0
DWIDTH 20 0
BBX 20 20 0 0
BITMAP
000000
000000
3DFF00
000000
3FBD80
000000
3A07C0
1E0780
000000
377F80
000000
3FF700
000000
000000
3E0000
000000
3A0000
000000
3E0000
000000
ENDCHAR
STARTCHAR E6B5
ENCODING 59061
SWIDTH 1107 0
DWIDTH 20 0
BBX 20 20 0 0
BITMAP
000000
000000
000200
200600
200500
200D80
100EC0
0CF6C0
17FF80
09BF40
07FF80
05B580
01F300
000180
000780
000700
001B00
000C00
000000
000000
ENDCHAR
STARTCHAR E700
ENCODING 59136
SWIDTH 1107 0
DWIDTH 20 0
BBX 20 20 0 0
BITMAP
000000
000000
000000
1C0000
1E0000
1E0000
1E0000
1E8000
1E7000
1E7F00
1E3F80
1E1F80
1E0780
1E1F80
1C7F80
19FE00
17FC00
1FF000
0FC000
078000
ENDCHAR
STARTCHAR E701
ENCODING 59137
SWIDTH 1107 0
DWIDTH 20 0
BBX 20 20 0 0
BITMAP
000000
000000
007000
00F000
00F000
3861C0
3C63C0
3E67C0
1FFF80
07FE00
01F800
03FC00
1FFF80
3F6FC0
3C63C0
3861C0
00F000
00F000
00F000
006000
ENDCHAR
STARTCHAR E702
ENCODING 59138
SWIDTH 1107 0
DWIDTH 20 0
BBX 20 20 0 0
BITMAP
000000
000000
006000
00F000
00F800
037C00
079E00
0F9F00
1FCF80
3FD3C0
7FD1E0
7FD9E0
3FDFC0
1F9F80
0F9F00
079E00
03FC00
01F800
00F000
002000
ENDCHAR
STARTCHAR E703
ENCODING 59139
SWIDTH 1107 0
DWIDTH 20 0
BBX 20 20 0 0
BITMAP
000000
000000
0FFF00
3801C0
3C03C0
3FFFC0
3FFFC0
1FFF80
1F0F80
1F6F80
1E6780
1F6F80
1F0F80
0FFF00
09F900
0E0700
0FFF00
07FE00
07FE00
00F000
ENDCHAR
STARTCHAR E704
ENCODING 59140
SWIDTH 1107 0
DWIDTH 20 0
BBX 20 20 0 0
BITMAP
000000
000000
700000
4E0000
218000
204000
002000
100000
001000
000800
000800
000400
060400
0E0300
010080
000040
000100
000080
000040
000000
ENDCHAR
STARTCHAR E705
ENCODING 59141
SWIDTH 1107 0
DWIDTH 20 0
BBX 20 20 0 0
BITMAP
000000
000000
070E00
100080
200040
200040
200040
3801C0
23FC40
200040
3801C0
27FE40
200040
200040
3C03C0
23FC40
200040
100080
0E0700
00F000
ENDCHAR
STARTCHAR E706
ENCODING 59142
SWIDTH 1107 0
DWIDTH 20 0
BBX 20 20 0 0
BITMAP
000000
000000
0FFF00
1C0380
3801C0
3FFFC0
3FFFC0
1FFF80
0FFF00
3000C0
3F0FC0
3FFFC0
3FFFC0
0FFF00
200040
3E07C0
3FFFC0
3FFFC0
0FFF00
00F000
ENDCHAR
STARTCHAR E707
ENCODING 59143
SWIDTH 1107 0
DWIDTH 20 0
BBX 20 20 0 0
BITMAP
000000
000000
020400
0F0F00
1F9F80
7FFFE0
3F0FC0
1C0380
000000
0C0300
3F0FC0
7F9FE0
3F9FC0
0F6F00
02F400
07FE00
03FC00
00F000
006000
000000
ENDCHAR
STARTCHAR E708
ENCODING 59144
SWIDTH 1107 0
DWIDTH 20 0
BBX 20 20 0 0
BITMAP
000000
000000
000000
180180
1E0780
3FFFC0
3FFFC0
3FFFC0
3FFFC0
7FFFE0
7801E0
7000E0
730C60
630C60
330C40
3000C0
180180
0FFF00
000000
000000
ENDCHAR
STARTCHAR E709
ENCODING 59145
SWIDTH 1107 0
DWIDTH 20 0
BBX 20 20 0 0
BITMAP
000000
000000
01F800
07FE00
0FFF00
1FFF80
3801C0
3801C0
7801E0
7000E0
7000E0
7000E0
7801E0
7801E0
2E07C0
370FC0
180F80
0F0F00
070E00
000000
ENDCHAR
STARTCHAR E70A
ENCODING 59146
SWIDTH 1107 0
DWIDTH 20 0
BBX 20 20 0 0
BITMAP
000000
000000
03FC00
0FFF00
1E0780
180180
3000C0
330CC0
63FC60
63FC60
636C60
629460
629460
7204E0
3000C0
3801C0
1C0380
0F9F00
03FC00
006000
ENDCHAR
STARTCHAR E70B
ENCODING 59147
SWIDTH 1107 0
DWIDTH 20 0
BBX 20 20 0 0
BITMAP
000000
000000
03FC00
0FFF00
1FFE00
1FFC00
071E00
078E00
478F20
638F20
63C760
638760
71A760
71E2E0
3962C0
3872C0
18F180
0CF100
00F800
006000
ENDCHAR
STARTCHAR E70C
ENCODING 59148
SWIDTH 1107 0
DWIDTH 20 0
BBX 20 20 0 0
BITMAP
000000
000000
000380
0007E0
000FE0
201FE0
703FE0
7C7DE0
7EF1E0
6FE1E0
67C1E0
67E1E0
6FF1E0
7CF9E0
787FE0
201FE0
000FE0
0007E0
000780
000200
ENDCHAR
STARTCHAR E70D
ENCODING 59149
SWIDTH 1107 0
DWIDTH 20 0
BBX 20 20 0 0
BITMAP
000000
001400
003E00
000000
000400
004000
000800
009800
00E000
007000
01C000
00E000
026000
038000
01C000
058000
030000
078000
030000
000000
ENDCHAR
STARTCHAR E70E
ENCODING 59150
SWIDTH 1107 0
DWIDTH 20 0
BBX 20 20 0 0
BITMAP
000000
000000
000800
01F800
03FC00
07FE00
07FE00
100080
3FFFC0
3FFFC0
3FFFC0
3FFFC0
3FFFC0
3FFFC0
07FE00
07FE00
019800
019800
019800
009000
ENDCHAR
STARTCHAR E70F
ENCODING 59151
SWIDTH 1107 0
DWIDTH 20 0
BBX 20 20 0 0
BITMAP
000000
000000
0007E0
037FE0
7F7FE0
7F7FE0
7F7FE0
7F7FE0
7F7FE0
7F7FE0
000000
7F7FE0
7F7FE0
7F7FE0
7F7FE0
7F7FE0
7F7FE0
0F7FE0
001FE0
000020
ENDCHAR
STARTCHAR E710
ENCODING 59152
SWIDTH 1107 0
DWIDTH 20 0
BBX 20 20 0 0
BITMAP
000000
000000
000100
002100
003100
001900
010980
018580
00E680
003200
030800
03F000
103E00
178600
17F600
100600
17F600
100600
1FFE00
1FFE00
ENDCHAR
STARTCHAR E711
ENCODING 59153
SWIDTH 1107 0
DWIDTH 20 0
BBX 20 20 0 0
BITMAP
000000
000000
001C00
001800
003800
002000
079F00
0FFF80
1FFF00
1FFE00
1FFE00
1FFE00
1FFE00
1FFF00
1FFF80
0FFF80
0FFF80
07FF00
07FE00
010400
ENDCHAR
STARTCHAR E712
ENCODING 59154
SWIDTH 1107 0
DWIDTH 20 0
BBX 20 20 0 0
BITMAP
000000
000000
00F000
01F800
015800
01F800
000800
001800
010C00
020E00
000600
060700
040700
0C0700
020F00
030A00
010840
003800
10F000
000400
ENDCHAR
STARTCHAR E713
ENCODING 59155
SWIDTH 1107 0
DWIDTH 20 0
BBX 20 20 0 0
BITMAP
000000
000000
000000
004000
002000
002000
003000
009000
00D800
018C00
7FADE0
7B76E0
7776E0
76FB60
0E0300
0C0180
180180
080040
300040
000000
ENDCHAR
STARTCHAR E714
ENCODING 59156
SWIDTH 1107 0
DWIDTH 20 0
BBX 20 20 0 0
BITMAP
000000
000000
7FF0E0
7FF0E0
7FF0E0
000000
000000
000000
000000
7FFFE0
7FFFE0
7FFFE0
000000
000000
000000
000000
7F0FE0
7F0FE0
7F0FE0
000000
ENDCHAR
STARTCHAR E715
ENCODING 59157
SWIDTH 1107 0
DWIDTH 20 0
BBX 20 20 0 0
BITMAP
000000
000000
000000
000000
000000
000000
000000
000000
000000
146020
2C4060
206040
200000
000000
000000
000000
000000
000000
000000
000000
ENDCHAR
STARTCHAR E716
ENCODING 59158
SWIDTH 1107 0
DWIDTH 20 0
BBX 20 20 0 0
BITMAP
000000
000000
000000
00F000
01F800
076E00
0E6700
3861C0
7060E0
70F0E0
7F9FE0
6E0760
7F9FE0
71F8E0
606060
3861C0
0C6300
076E00
01F800
00F000
ENDCHAR
STARTCHAR E717
ENCODING 59159
SWIDTH 1107 0
DWIDTH 20 0
BBX 20 20 0 0
BITMAP
000000
000000
000000
000000
000000
000000
000000
000000
345080
455080
5FF5E0
4D55A0
3DD7E0
000000
000000
000000
000000
000000
000000
000000
ENDCHAR
STARTCHAR E718
ENCODING 59160
SWIDTH 1107 0
DWIDTH 20 0
BBX 20 20 0 0
BITMAP
000000
000000
000000
00F000
039C00
060600
180180
200040
213C40
214640
214240
217C40
210240
214240
217E40
210040
1B0180
0E0700
000C00
00F000
ENDCHAR
STARTCHAR E719
ENCODING 59161
SWIDTH 1107 0
DWIDTH 20 0
BBX 20 20 0 0
BITMAP
000000
000000
000000
000000
000000
000000
000000
000000
002000
002000
7666A0
576A40
5666A0
000000
000000
000000
000000
000000
000000
000000
ENDCHAR
STARTCHAR E71A
ENCODING 59162
SWIDTH 1107 0
DWIDTH 20 0
BBX 20 20 0 0
BITMAP
000000
000000
7FFFE0
600060
600060
600060
630C60
619860
619860
60F060
607060
606060
606060
606060
606060
600060
600060
600060
7FFFE0
7FFFE0
ENDCHAR
STARTCHAR E71B
ENCODING 59163
SWIDTH 1107 0
DWIDTH 20 0
BBX 20 20 0 0
BITMAP
000000
000000
000000
000000
000000
000000
000000
003000
003000
001000
046200
27D6C0
7655E0
3EF700
000000
000000
000000
000000
000000
000000
ENDCHAR
STARTCHAR E71C
ENCODING 59164
SWIDTH 1107 0
DWIDTH 20 0
BBX 20 20 0 0
BITMAP
000000
000000
000000
000000
000000
000000
000000
000800
38E9C0
411A20
401820
451A20
3CEBC0
000800
000000
000000
000000
000000
000000
000000
ENDCHAR
STARTCHAR E71D
ENCODING 59165
SWIDTH 1107 0
DWIDTH 20 0
BBX 20 20 0 0
BITMAP
000000
000000
000000
000000
000000
000000
000000
140000
100000
77F7E0
57DAA0
77D6E0
0C0200
000E00
000000
000000
000000
000000
000000
000000
ENDCHAR
STARTCHAR E71E
ENCODING 59166
SWIDTH 1107 0
DWIDTH 20 0
BBX 20 20 0 0
BITMAP
000000
000000
000000
000000
000000
000000
000000
7FFFE0
421020
4A52A0
4A52A0
4A12A0
7E7FE0
03C000
000000
000000
000000
000000
000000
000000
ENDCHAR
STARTCHAR E71F
ENCODING 59167
SWIDTH 1107 0
DWIDTH 20 0
BBX 20 20 0 0
BITMAP
000000
000000
000000
000000
000000
000000
000000
000000
736DE0
712140
002C80
040000
000000
000000
000000
000000
000000
000000
000000
000000
ENDCHAR
STARTCHAR E720
ENCODING 59168
SWIDTH 1107 0
DWIDTH 20 0
BBX 20 20 0 0
BITMAP
000000
000000
000000
000000
000000
000000
01F000
01FE00
01FF00
0FFF80
0FFFC0
0FFFC0
7FFFE0
7FFFE0
7FFFE0
000000
000000
000000
000000
000000
ENDCHAR
STARTCHAR E721
ENCODING 59169
SWIDTH 1107 0
DWIDTH 20 0
BBX 20 20 0 0
BITMAP
000000
000000
000780
003F80
007BC0
0387C0
0706C0
0E0C60
1C0C60
381840
7FF840
381840
1C0C60
0E0C60
0706C0
0387C0
0073C0
003FC0
000780
000080
ENDCHAR
STARTCHAR E722
ENCODING 59170
SWIDTH 1107 0
DWIDTH 20 0
BBX 20 20 0 0
BITMAP
000000
000000
0C9300
006000
080100
086100
06F600
040200
099900
0E6700
140280
146280
146280
170C80
090900
090100
00F000
030C00
011800
006000
ENDCHAR
STARTCHAR E723
ENCODING 59171
SWIDTH 1107 0
DWIDTH 20 0
BBX 20 20 0 0
BITMAP
000000
000000
000000
000000
3C7800
3E7800
3E7800
0001E0
0003E0
3CF3E0
7CF000
78F380
0003C0
0007C0
01E780
01F000
01E000
000000
000000
000000
ENDCHAR
STARTCHAR E724
ENCODING 59172
SWIDTH 1107 0
DWIDTH 20 0
BBX 20 20 0 0
BITMAP
000000
000000
020600
000200
023500
0A4000
080000
080000
080000
000000
080100
000100
000100
000100
000100
000000
000000
000200
000000
000200
ENDCHAR
STARTCHAR E725
ENCODING 59173
SWIDTH 1107 0
DWIDTH 20 0
BBX 20 20 0 0
BITMAP
000000
000000
0F0000
098000
098600
0F0F00
061900
061900
060F00
060600
060E00
060E00
07FC00
07F800
07C000
0F0000
098000
098000
0F0000
060000
ENDCHAR
STARTCHAR E726
ENCODING 59174
SWIDTH 1107 0
DWIDTH 20 0
BBX 20 20 0 0
BITMAP
000000
000000
002000
0E6000
13FC00
13FE00
1E6700
0C2300
0C0300
0C0300
0C0300
0C0300
0C0300
0C0300
0C0300
0E0700
130C80
130C80
1E0780
0C0300
ENDCHAR
STARTCHAR E727
ENCODING 59175
SWIDTH 1107 0
DWIDTH 20 0
BBX 20 20 0 0
BITMAP
000000
000000
1E0000
320000
320000
1E0000
0E0000
0E0000
0F0000
0F8300
0FE780
0CFCC0
0C7CC0
0C0780
0C0000
1E0000
320000
320000
1E0000
0C0000
ENDCHAR
STARTCHAR E728
ENCODING 59176
SWIDTH 1107 0
DWIDTH 20 0
BBX 20 20 0 0
BITMAP
000000
000000
000000
001000
1C3000
367F00
227F00
1C3380
1C1380
1C0380
1C0380
1C0380
1C0380
1C0380
1C0380
1C8380
0FC640
0FE640
00C380
008000
ENDCHAR
STARTCHAR E729
ENCODING 59177
SWIDTH 1107 0
DWIDTH 20 0
BBX 20 20 0 0
BITMAP
000000
000000
000000
000000
000000
006000
01F800
03FC00
079E00
7F0FE0
7E07E0
7F0FE0
070E00
03FC00
01F800
00F000
000000
000000
000000
000000
ENDCHAR
STARTCHAR E72A
ENCODING 59178
SWIDTH 1107 0
DWIDTH 20 0
BBX 20 20 0 0
BITMAP
000000
000000
03C000
07C000
0F0000
1CF000
3BFC00
37FC00
77FE00
77FE00
7FFE00
77FEE0
77FEE0
37FEC0
3BFDC0
3DF380
1E0780
0FFF00
03FC00
006000
ENDCHAR
STARTCHAR E72B
ENCODING 59179
SWIDTH 1107 0
DWIDTH 20 0
BBX 20 20 0 0
BITMAP
000000
000000
000000
000000
000000
7F8000
0E0000
061F80
070E00
039860
01F060
00E040
00E040
00E040
00E000
03F8C0
000000
000000
000000
000000
ENDCHAR
STARTCHAR E72C
ENCODING 59180
SWIDTH 1107 0
DWIDTH 20 0
BBX 20 20 0 0
BITMAP
000000
000000
000000
000000
000000
000000
7FC7E0
7FC7E0
7FC7E0
0E3800
0E3800
0E3800
0E3FE0
0E3FE0
0E3FE0
000000
000000
000000
000000
000000
ENDCHAR
STARTCHAR E72D
ENCODING 59181
SWIDTH 1107 0
DWIDTH 20 0
BBX 20 20 0 0
BITMAP
000000
000000
000300
000100
380180
787B80
707F80
787F80
383FC0
3807C0
3C03C0
3F01C0
3FC0C0
1FF0E0
1FF0E0
1FF0E0
1800C0
080000
080000
040000
ENDCHAR
STARTCHAR E72E
ENCODING 59182
SWIDTH 1107 0
DWIDTH 20 0
BBX 20 20 0 0
BITMAP
000000
000000
000000
000000
000000
000000
000000
000000
000180
0109E0
1FBDE0
0DE780
0DFFA0
0DE7E0
7DFDE0
000000
000000
000000
000000
000000
ENDCHAR
STARTCHAR E72F
ENCODING 59183
SWIDTH 1107 0
DWIDTH 20 0
BBX 20 20 0 0
BITMAP
000000
000000
03FC00
0FFF00
1FFF80
1FFF80
3FFFC0
3F9FC0
7F0FE0
7E4FE0
7E4FE0
7C07E0
7E47E0
7F0FE0
3F9FC0
3FFFC0
1FFF80
0FFF00
03FC00
00F000
ENDCHAR
STARTCHAR E730
ENCODING 59184
SWIDTH 1107 0
DWIDTH 20 0
BBX 20 20 0 0
BITMAP
000000
000000
007F80
037FC0
07FFC0
1FD840
1DC800
04C000
54C400
04C420
00C420
00E420
40E420
19E420
1B7C20
13F9E0
03FFE0
03BFE0
003FC0
003000
ENDCHAR
STARTCHAR E731
ENCODING 59185
SWIDTH 1107 0
DWIDTH 20 0
BBX 20 20 0 0
BITMAP
000000
000000
000000
00FC00
037C00
037E00
07BE00
0F9F00
0F9F00
1F8F80
1F0FC0
3E07C0
3E07E0
7C0000
3DFFE0
3BFFC0
1BFFC0
17FF80
07FF00
000000
ENDCHAR
STARTCHAR E732
ENCODING 59186
SWIDTH 1107 0
DWIDTH 20 0
BBX 20 20 0 0
BITMAP
000000
000000
000000
000000
3CF3C0
79E780
73CF00
7000E0
7000E0
7000E0
7000E0
7000E0
7000E0
7000E0
7000E0
7FFFE0
7FFFE0
7FFFE0
000000
000000
ENDCHAR
STARTCHAR E733
ENCODING 59187
SWIDTH 1107 0
DWIDTH 20 0
BBX 20 20 0 0
BITMAP
000000
000000
1E0780
0F0F00
079E00
03FC00
7FFFE0
7FFFE0
7FFFE0
7000E0
7000E0
7000E0
7000E0
7060E0
70F0E0
71F8E0
7FFFE0
7F9FE0
7F0FE0
000000
ENDCHAR
STARTCHAR E734
ENCODING 59188
SWIDTH 1107 0
DWIDTH 20 0
BBX 20 20 0 0
BITMAP
000000
000000
000000
000000
3F8000
1FC000
00E200
187700
187780
1CFB80
0FD980
07C980
03E180
007180
030000
03FF80
01FFC0
000000
000000
000000
ENDCHAR
STARTCHAR E735
ENCODING 59189
SWIDTH 1107 0
DWIDTH 20 0
BBX 20 20 0 0
BITMAP
000000
000000
00FC00
00FF80
7C1FE0
7F83E0
7FF8E0
73F0E0
7000E0
7000E0
7000E0
7000E0
7000E0
7C07E0
7FBFE0
1FFF00
03F800
004000
000000
000000
ENDCHAR
STARTCHAR E736
ENCODING 59190
SWIDTH 1107 0
DWIDTH 20 0
BBX 20 20 0 0
BITMAP
000000
000000
000000
3FFFC0
3FFFC0
3FFFC0
3801C0
180180
19FF80
19FF80
180180
1C0380
1FF380
1CF380
1CF380
1C0380
1F0F80
1FFF80
1FFF80
03FC00
ENDCHAR
STARTCHAR E737
ENCODING 59191
SWIDTH 1107 0
DWIDTH 20 0
BBX 20 20 0 0
BITMAP
000000
000000
000200
001E00
07FE00
07FE00
07FC00
07F000
000600
00FE00
07FE00
07FE00
07FC00
078200
001E00
07FE00
07FE00
07FC00
07F000
040000
ENDCHAR
STARTCHAR E738
ENCODING 59192
SWIDTH 1107 0
DWIDTH 20 0
BBX 20 20 0 0
BITMAP
000000
000000
001000
002400
005000
00A000
002000
00B000
005000
000300
041880
000000
03FA00
000000
01F800
000100
07F800
00F800
000000
000000
ENDCHAR
STARTCHAR E739
ENCODING 59193
SWIDTH 1107 0
DWIDTH 20 0
BBX 20 20 0 0
BITMAP
000000
000000
000CC0
0079E0
00EF80
03F1C0
07CFA0
0FFFE0
1FF760
1DF6E0
13BFE0
2DF1E0
2DFBE0
1FEDE0
77DEE0
337FC0
79FF40
03FFC0
01E780
000000
ENDCHAR
STARTCHAR E73A
ENCODING 59194
SWIDTH 1107 0
DWIDTH 20 0
BBX 20 20 0 0
BITMAP
000000
000000
03FC00
0FFF00
1FF380
1F9380
3F0FC0
3CF3C0
79F9E0
69F9E0
65FFE0
61F9E0
79F9E0
7CF3E0
3F0FC0
3F13C0
1FF380
0FFF00
03FC00
006000
ENDCHAR
STARTCHAR E73B
ENCODING 59195
SWIDTH 1107 0
DWIDTH 20 0
BBX 20 20 0 0
BITMAP
000000
000000
004C00
005FC0
007FC0
04FC20
05F000
03F800
03E000
07E000
37D000
0FC000
0FC000
0FD000
1FC000
7FE000
7FE000
1FF800
1FE000
000000
ENDCHAR
STARTCHAR E73C
ENCODING 59196
SWIDTH 1107 0
DWIDTH 20 0
BBX 20 20 0 0
BITMAP
000000
000000
03FC00
02FC00
02FC00
03FC00
1FFDC0
3FFDC0
7FFDE0
7FFFE0
7E07E0
7FFFE0
7BFFE0
3BFFC0
3BFFC0
03FC00
03FC00
03F400
03FC00
006000
ENDCHAR
STARTCHAR E73D
ENCODING 59197
SWIDTH 1107 0
DWIDTH 20 0
BBX 20 20 0 0
BITMAP
000000
000000
000000
000000
000000
000000
00C000
00C000
3EFBC0
339A60
339E60
279E60
7D97C0
600400
600400
000000
000000
000000
000000
000000
ENDCHAR
STARTCHAR E73E
ENCODING 59198
SWIDTH 1107 0
DWIDTH 20 0
BBX 20 20 0 0
BITMAP
000000
000000
000000
000000
000000
7FFFE0
7FFFE0
6398E0
6318E0
6018E0
6018E0
649060
6798E0
679DE0
7FFFE0
7FFFE0
000000
000000
000000
000000
ENDCHAR
STARTCHAR E73F
ENCODING 59199
SWIDTH 1107 0
DWIDTH 20 0
BBX 20 20 0 0
BITMAP
000000
000000
000000
000000
080000
440000
020000
220080
010040
100200
1081E0
084E80
08E000
062040
0020C0
001700
000800
000000
000000
000000
ENDCHAR
STARTCHAR E740
ENCODING 59200
SWIDTH 1107 0
DWIDTH 20 0
BBX 20 20 0 0
BITMAP
000000
000000
000000
006000
01F800
079E00
0F0F00
3C03C0
3090C0
3198C0
339CC0
339CC0
339CC0
339CC0
339CC0
339CC0
139C80
039C00
01F800
00F000
ENDCHAR
STARTCHAR E741
ENCODING 59201
SWIDTH 1107 0
DWIDTH 20 0
BBX 20 20 0 0
BITMAP
000000
000000
3801C0
7C03E0
7FBFE0
3FFFC0
1CF380
19F180
1FFB80
1F9D80
0F0E00
1F9700
1FFB80
19FB80
18F380
3FFFC0
7FFFE0
7F1FE0
7801E0
100080
ENDCHAR
STARTCHAR E742
ENCODING 59202
SWIDTH 1107 0
DWIDTH 20 0
BBX 20 20 0 0
BITMAP
000000
000000
004000
006000
01F800
07FE00
0FFF00
1FFF80
1FFF80
3FFFC0
3FFFC0
3FFFC0
3E1E40
3C0C40
1C0000
1C1C00
0E6A00
07FF00
03C400
006000
ENDCHAR
STARTCHAR E743
ENCODING 59203
SWIDTH 1107 0
DWIDTH 20 0
BBX 20 20 0 0
BITMAP
000000
000000
03FC00
0FFF00
1FFF80
1FFF80
2FFFC0
3F6FC0
77FFE0
79FBE0
79FBE0
7DFBE0
7FFBE0
7EF7E0
3F9FC0
3FEFC0
1FDF80
0FDF00
03BC00
006000
ENDCHAR
STARTCHAR E744
ENCODING 59204
SWIDTH 1107 0
DWIDTH 20 0
BBX 20 20 0 0
BITMAP
000000
000FC0
00FC20
03FF20
07FF80
0DFF80
0B87C0
1703C0
0F03E0
1FFFE0
1FFFE0
3F0000
3F0000
2F83C0
6FCF80
67FF80
63FF00
22FC00
180000
000000
ENDCHAR
STARTCHAR E745
ENCODING 59205
SWIDTH 1107 0
DWIDTH 20 0
BBX 20 20 0 0
BITMAP
000000
000000
010800
000000
210180
3E00C0
3E01C0
3EC0C0
7F00C0
7B01E0
7E01E0
7C21E0
3FE1C0
3E83C0
3F87C0
1FFF80
0FFF80
07FE00
03FC00
000000
ENDCHAR
STARTCHAR E746
ENCODING 59206
SWIDTH 1107 0
DWIDTH 20 0
BBX 20 20 0 0
BITMAP
000000
000000
03FC00
076E00
0E0700
1F0F80
3E07C0
3E07C0
3C03C0
3C03C0
3C03C0
3C03C0
3C03C0
3E07C0
3E07C0
1E0780
1E0780
0F0F00
03FC00
006000
ENDCHAR
STARTCHAR E747
ENCODING 59207
SWIDTH 1107 0
DWIDTH 20 0
BBX 20 20 0 0
BITMAP
000000
000000
3FFFC0
7FFFE0
7FFFE0
7C03E0
7C01E0
7CF1E0
7CF1E0
7CE3E0
7C03E0
7CF1E0
7CF9E0
7CF9E0
7C01E0
7C03E0
7FFFE0
7FFFE0
3FFFC0
1FFF80
ENDCHAR
STARTCHAR E748
ENCODING 59208
SWIDTH 1107 0
DWIDTH 20 0
BBX 20 20 0 0
BITMAP
000000
000000
00E000
03FC00
066600
09F900
17FE80
33B6C0
2FAF40
2F5F40
2FFF40
2F2F40
2F5F40
36FEC0
17FE80
09F900
066600
03FC00
006000
000000
ENDCHAR
STARTCHAR E749
ENCODING 59209
SWIDTH 1107 0
DWIDTH 20 0
BBX 20 20 0 0
BITMAP
000000
000000
000000
3FFFC0
3FFFC0
3FFFC0
3801C0
180180
1FF980
1FF980
1F0180
1F0380
1FF380
1CF380
1CF380
1C0380
1F0F80
1FFF80
1FFF80
03FC00
ENDCHAR
STARTCHAR E74A
ENCODING 59210
SWIDTH 1107 0
DWIDTH 20 0
BBX 20 20 0 0
BITMAP
000000
000000
0FFFE0
1FFFE0
1FFFE0
0001C0
0001C0
1FFFC0
3FFFC0
3FFFC0
000380
000380
380380
380380
7C0F80
7FFF00
3FFE00
07F000
018000
000000
ENDCHAR
STARTCHAR E74B
ENCODING 59211
SWIDTH 1107 0
DWIDTH 20 0
BBX 20 20 0 0
BITMAP
000000
000000
000000
000000
03F000
0E1000
181000
201000
602000
47C000
601400
311200
0AFA20
0E9E00
36C400
250000
380000
000000
000000
000000
ENDCHAR
STARTCHAR E74C
ENCODING 59212
SWIDTH 1107 0
DWIDTH 20 0
BBX 20 20 0 0
BITMAP
000000
000000
0C3300
0DFB00
070E00
020400
000000
080100
0D0B00
129480
080100
040200
040200
0C0300
050A00
01F800
0B9D00
000000
010800
006000
ENDCHAR
STARTCHAR E74D
ENCODING 59213
SWIDTH 1107 0
DWIDTH 20 0
BBX 20 20 0 0
BITMAP
000000
000000
000000
06C080
182000
201100
20A500
41BA00
403400
403F00
404060
400060
4000E0
200180
200A00
183000
1FF000
01F000
004000
000000
ENDCHAR
STARTCHAR E74E
ENCODING 59214
SWIDTH 1107 0
DWIDTH 20 0
BBX 20 20 0 0
BITMAP
000000
000000
000000
000000
070FC0
071FC0
073C40
073800
073C00
071F00
071FC0
0707E0
0701E0
0700E0
0F20E0
7E3FC0
7C3F80
000000
000000
000000
ENDCHAR
STARTCHAR E74F
ENCODING 59215
SWIDTH 1107 0
DWIDTH 20 0
BBX 20 20 0 0
BITMAP
000000
000000
000000
3FFFC0
3FFFC0
3C03C0
3C03C0
1CF380
1CF980
1CFF80
1C0380
1C0380
1FF380
1CF380
1CF380
1C0380
1F0F80
1FFF80
1FFF80
03FC00
ENDCHAR
STARTCHAR E750
ENCODING 59216
SWIDTH 1107 0
DWIDTH 20 0
BBX 20 20 0 0
BITMAP
000000
000000
000000
010000
001000
021000
221800
630C40
630380
618000
61C000
70F040
707F80
380E00
3C0000
1E0000
0F8080
07FF00
01FE00
000000
ENDCHAR
STARTCHAR E751
ENCODING 59217
SWIDTH 1107 0
DWIDTH 20 0
BBX 20 20 0 0
BITMAP
000000
000000
000000
001000
046600
639C20
3801C0
23FC00
3E01E0
1FFFE0
3FFFC0
5FFFC0
4FFF80
67FF00
27FF00
1BFE00
03FE00
00F800
000000
000000
ENDCHAR
STARTCHAR E752
ENCODING 59218
SWIDTH 1107 0
DWIDTH 20 0
BBX 20 20 0 0
BITMAP
000000
000000
000000
100080
1C0380
1F0F80
1FFF80
19F980
19F980
1FFF80
1F0F80
1E0780
1F0F80
1FFF80
19F980
19F980
1FFF80
1F0F80
1C0380
180180
ENDCHAR
STARTCHAR E753
ENCODING 59219
SWIDTH 1107 0
DWIDTH 20 0
BBX 20 20 0 0
BITMAP
000000
000000
000000
01F800
07FF00
3F9FC0
3F9FC0
3F0FC0
3F0FC0
3F6FC0
3E67C0
3EF7C0
3C03C0
3CFBC0
19F980
19F980
1FFF80
0FFF00
03FC00
00F000
ENDCHAR
STARTCHAR E754
ENCODING 59220
SWIDTH 1107 0
DWIDTH 20 0
BBX 20 20 0 0
BITMAP
000000
000000
000000
7FFFE0
7FFFE0
7FFCE0
7FF860
71F8E0
71FEE0
71FFE0
71F8E0
70F0E0
7861E0
3801C0
3E07C0
1F9F80
0FFF00
07FE00
006000
000000
ENDCHAR
STARTCHAR E755
ENCODING 59221
SWIDTH 1107 0
DWIDTH 20 0
BBX 20 20 0 0
BITMAP
000000
000000
000000
000000
000600
020200
090300
048380
06C380
03F380
01FBC0
00FFC0
007FC0
401F80
303FC0
1FFFC0
07FFE0
03FC20
000000
000000
ENDCHAR
STARTCHAR E756
ENCODING 59222
SWIDTH 1107 0
DWIDTH 20 0
BBX 20 20 0 0
BITMAP
000000
000000
000240
0004C0
000C00
071C00
0C5980
0C3880
0E3F00
0E3800
273800
633000
237000
1C7000
006000
006000
00C000
0CC000
0D8000
040000
ENDCHAR
STARTCHAR E757
ENCODING 59223
SWIDTH 1107 0
DWIDTH 20 0
BBX 20 20 0 0
BITMAP
000000
000000
03FC00
0FFF00
1FFF80
1FF580
3FEDC0
3EEFC0
7D89E0
79C3E0
7CCFE0
76DFE0
769FE0
7F9FE0
3FBFC0
3DBFC0
1D7F80
0FFF00
03FC00
006000
ENDCHAR
STARTCHAR E758
ENCODING 59224
SWIDTH 1107 0
DWIDTH 20 0
BBX 20 20 0 0
BITMAP
000000
000000
000000
000000
000000
000000
180080
280040
280040
2AE240
4BF220
2A09C0
2FBBC0
200040
3000C0
000000
000000
000000
000000
000000
ENDCHAR
STARTCHAR E759
ENCODING 59225
SWIDTH 1107 0
DWIDTH 20 0
BBX 20 20 0 0
BITMAP
000000
000000
000300
000400
000000
000000
001000
020000
002000
25A940
208A40
028AA0
000000
000000
000000
000000
000000
000000
180000
000000
ENDCHAR
STARTCHAR E75A
ENCODING 59226
SWIDTH 1107 0
DWIDTH 20 0
BBX 20 20 0 0
BITMAP
000000
000000
7FFFE0
606060
606060
606060
606060
606060
606060
606060
606060
606060
607FE0
607FE0
607FE0
607FE0
7FFFE0
7FFFE0
7FFFE0
7FFFE0
ENDCHAR
STARTCHAR E75B
ENCODING 59227
SWIDTH 1107 0
DWIDTH 20 0
BBX 20 20 0 0
BITMAP
000000
000000
400020
3000C0
0FFF80
03FC00
080000
0E6700
0E6700
070E00
039E00
03FC00
01F800
00F000
007800
01B800
039C00
039C00
039C00
000000
ENDCHAR
STARTCHAR E75C
ENCODING 59228
SWIDTH 1107 0
DWIDTH 20 0
BBX 20 20 0 0
BITMAP
000000
000000
006000
066600
060600
000000
1C0380
1EF780
0E6700
0F0F00
079E00
03FC00
01F800
00F000
007800
013800
03BC00
039C00
039C00
030C00
ENDCHAR
STARTCHAR E75D
ENCODING 59229
SWIDTH 1107 0
DWIDTH 20 0
BBX 20 20 0 0
BITMAP
000000
000000
001F00
003F80
007F80
00FF80
09FF80
19FFC0
13FFC0
33FFC0
33FFC0
3BFFC0
3BFFC0
3FFFC0
1FFF80
1FFF80
0FFF00
07FE00
03FC00
006000
ENDCHAR
STARTCHAR E75E
ENCODING 59230
SWIDTH 1107 0
DWIDTH 20 0
BBX 20 20 0 0
BITMAP
000000
000000
000000
00F000
03FC00
07FE00
070E00
060600
060600
060600
060600
070E00
07FE00
03FC00
03FC00
07FE00
070E00
079E00
03FC00
00F000
ENDCHAR
STARTCHAR E75F
ENCODING 59231
SWIDTH 1107 0
DWIDTH 20 0
BBX 20 20 0 0
BITMAP
000000
000000
01F800
039C00
070E00
0F0F00
1F0F80
3D09C0
35F8C0
658060
448020
64C060
646060
343FC0
1C0F80
0E0300
060600
030C00
01F800
006000
ENDCHAR
STARTCHAR E760
ENCODING 59232
SWIDTH 1107 0
DWIDTH 20 0
BBX 20 20 0 0
BITMAP
000000
000000
7FFFE0
7FFFE0
7FFC60
7FFC60
7FFC20
7FFC80
7FFBE0
63F3E0
63F7E0
61EFE0
400FE0
1F0FE0
3F0FE0
7F9FE0
7FFFE0
7FFFE0
7FFFE0
3FFFC0
ENDCHAR
STARTCHAR E761
ENCODING 59233
SWIDTH 1107 0
DWIDTH 20 0
BBX 20 20 0 0
BITMAP
000000
000000
000FE0
00FFE0
07FFE0
0FFFE0
1FFFE0
3FFFC0
3FFFC0
7DFFC0
7E1FC0
700380
7F3F80
7EDF80
7FFF00
3FFF00
1FFE00
0FFC00
07F800
00C000
ENDCHAR
STARTCHAR E762
ENCODING 59234
SWIDTH 1107 0
DWIDTH 20 0
BBX 20 20 0 0
BITMAP
000000
000000
000000
000000
000000
003000
00FC00
0FFC00
1F7600
1EFB00
3EFF80
7BFF80
7FFFC0
77FFE0
3FFFE0
03FFE0
000000
000000
000000
000000
ENDCHAR
STARTCHAR E763
ENCODING 59235
SWIDTH 1107 0
DWIDTH 20 0
BBX 20 20 0 0
BITMAP
000000
000000
000400
000800
001000
001000
01F800
03FC00
03FC00
02EC00
037C00
01E000
01E800
01F800
01F800
00F800
00F000
00F000
00F000
006000
ENDCHAR
STARTCHAR E764
ENCODING 59236
SWIDTH 1107 0
DWIDTH 20 0
BBX 20 20 0 0
BITMAP
000000
000000
020000
048A00
043100
044100
048000
0FFC00
350180
420040
426420
242020
050240
000200
088200
084000
082000
091200
000C00
000000
ENDCHAR
STARTCHAR E765
ENCODING 59237
SWIDTH 1107 0
DWIDTH 20 0
BBX 20 20 0 0
BITMAP
000000
000000
000000
000000
000000
000000
000000
000000
040200
040200
150A80
550AA0
040200
000000
000000
000000
000000
000000
000000
000000
ENDCHAR
STARTCHAR E766
ENCODING 59238
SWIDTH 1107 0
DWIDTH 20 0
BBX 20 20 0 0
BITMAP
000000
000000
040000
050000
068000
074000
03E000
03E000
03F400
07F200
07FA00
07FA00
0FFE00
07F500
03FD00
03FB00
03FE00
00FC00
00F000
004000
ENDCHAR
STARTCHAR E767
ENCODING 59239
SWIDTH 1107 0
DWIDTH 20 0
BBX 20 20 0 0
BITMAP
000000
000000
000800
000400
000000
040200
030000
080100
003000
010400
12FA80
000600
043C00
082100
00FC00
008200
028700
008000
000800
003000
ENDCHAR
STARTCHAR E768
ENCODING 59240
SWIDTH 1107 0
DWIDTH 20 0
BBX 20 20 0 0
BITMAP
000000
000000
039C00
0C0300
180180
1E6080
3F9840
228400
444220
444220
444220
442220
44A220
429460
219FC0
30F2C0
100080
0C0300
030C00
006000
ENDCHAR
STARTCHAR E769
ENCODING 59241
SWIDTH 1107 0
DWIDTH 20 0
BBX 20 20 0 0
BITMAP
000000
000000
03FC00
0FFF00
1FDF80
1FDF80
3F1FC0
3E87C0
7943E0
72C1E0
7680E0
7680E0
7680E0
7680E0
3280C0
3B41C0
1C8380
0FFF00
03FC00
006000
ENDCHAR
STARTCHAR E76A
ENCODING 59242
SWIDTH 1107 0
DWIDTH 20 0
BBX 20 20 0 0
BITMAP
000000
000000
03FC00
0FFF00
1FFF80
000780
0C73C0
3B7DC0
3BBDE0
77BEE0
77BEE0
77DEE0
7B5DE0
7B4DC0
3CE300
3E0000
1FFF80
0FFF00
03FC00
006000
ENDCHAR
STARTCHAR E76B
ENCODING 59243
SWIDTH 1107 0
DWIDTH 20 0
BBX 20 20 0 0
BITMAP
000000
00F000
010800
010800
070E00
086100
086100
3861C0
430C20
430C20
430C20
384140
086100
086100
060200
010C00
010800
00D000
006000
000000
ENDCHAR
STARTCHAR E76C
ENCODING 59244
SWIDTH 1107 0
DWIDTH 20 0
BBX 20 20 0 0
BITMAP
000000
000000
000000
000000
000000
000000
447DE0
644920
26D800
269000
3A9800
1A8400
190400
194E20
0139C0
000000
000000
000000
000000
000000
ENDCHAR
STARTCHAR E76D
ENCODING 59245
SWIDTH 1107 0
DWIDTH 20 0
BBX 20 20 0 0
BITMAP
000000
000000
000000
00F000
072700
0F0620
70E0E0
3C23C0
0F1F20
63F8E0
3C63C0
0F0F20
73F8E0
3C63C0
0F1F00
03F800
006000
000000
000000
000000
ENDCHAR
STARTCHAR E76E
ENCODING 59246
SWIDTH 1107 0
DWIDTH 20 0
BBX 20 20 0 0
BITMAP
000000
000000
138880
010000
400020
420120
438300
42C500
024540
024100
224380
020100
10C160
138040
0FC200
000200
000200
000200
002000
001800
ENDCHAR
STARTCHAR E76F
ENCODING 59247
SWIDTH 1107 0
DWIDTH 20 0
BBX 20 20 0 0
BITMAP
000000
000000
3801C0
6C0360
6C0360
7C03E0
7C03E0
7C03E0
7C63E0
7CF3E0
7F9FE0
7FFFE0
7FFFE0
7FFFE0
7FFFE0
7F9FE0
6F0F60
6E0760
7C03E0
100080
ENDCHAR
STARTCHAR E770
ENCODING 59248
SWIDTH 1107 0
DWIDTH 20 0
BBX 20 20 0 0
BITMAP
000000
000000
03FC00
079E00
0EF700
1DFB80
1B0D80
1EF780
16F680
16F680
16F680
1B6D80
1BFD80
0CF300
070E00
03FC00
006000
020000
07FE00
020000
ENDCHAR
STARTCHAR E771
ENCODING 59249
SWIDTH 1107 0
DWIDTH 20 0
BBX 20 20 0 0
BITMAP
000000
000000
01F800
07FE00
0FFF00
1FFF80
3FFFC0
3FFFC0
7F0FE0
7E07E0
7E07E0
7E07E0
7E07E0
7F0FE0
3F9FC0
3F0FC0
1F0F80
0F0F00
060600
000000
ENDCHAR
STARTCHAR E772
ENCODING 59250
SWIDTH 1107 0
DWIDTH 20 0
BBX 20 20 0 0
BITMAP
000000
000000
031FC0
1F1FE0
3F0FE0
7F0FE0
7F8FC0
7F87C0
7FC7C0
3FC380
3FC180
3FE000
1FF000
1FF800
0FFC00
0FFC00
07F800
03F000
01E000
008000
ENDCHAR
STARTCHAR E773
ENCODING 59251
SWIDTH 1107 0
DWIDTH 20 0
BBX 20 20 0 0
BITMAP
000000
000000
000000
00E000
01F000
006600
000F80
0007C0
2003C0
3801C0
3801C0
3801C0
3801C0
3801C0
3C03C0
3F0FC0
1FFF80
07FE00
03FC00
00F000
ENDCHAR
STARTCHAR E774
ENCODING 59252
SWIDTH 1107 0
DWIDTH 20 0
BBX 20 20 0 0
BITMAP
000000
000000
038000
03C000
01E000
00F000
01F800
03FC00
071E00
0F0F00
0F8700
1FC380
180180
180180
1FC380
0F8700
0F0F00
079E00
03FC00
006000
ENDCHAR
STARTCHAR E775
ENCODING 59253
SWIDTH 1107 0
DWIDTH 20 0
BBX 20 20 0 0
BITMAP
000000
000000
000000
000000
000000
000000
006000
000000
0BEF00
07DF00
097200
040600
041600
040200
000000
000000
000000
000000
000000
000000
ENDCHAR
STARTCHAR E776
ENCODING 59254
SWIDTH 1107 0
DWIDTH 20 0
BBX 20 20 0 0
BITMAP
000000
000000
000000
000000
000000
000000
000000
000000
000000
000000
4BB7A0
6D96C0
58BAE0
000000
000000
000000
000000
000000
000000
000000
ENDCHAR
STARTCHAR E777
ENCODING 59255
SWIDTH 1107 0
DWIDTH 20 0
BBX 20 20 0 0
BITMAP
000000
000000
000000
000000
778000
3B8000
3DC000
1DE000
0EEFE0
0F77E0
077800
077BE0
0EFDE0
1CFE00
1DCE00
3B8700
738780
000000
000000
000000
ENDCHAR
STARTCHAR E778
ENCODING 59256
SWIDTH 1107 0
DWIDTH 20 0
BBX 20 20 0 0
BITMAP
000000
000000
000000
000000
000000
000000
3FDFE0
3FBFE0
033FC0
061E00
0E3E00
0C3E00
180000
3FB800
7FB000
000000
000000
000000
000000
000000
ENDCHAR
STARTCHAR E779
ENCODING 59257
SWIDTH 1107 0
DWIDTH 20 0
BBX 20 20 0 0
BITMAP
000000
000000
0F0700
100000
300440
21CE00
232640
249D40
184180
084400
010600
002000
124000
000000
001C00
048C00
00C000
005000
003800
000000
ENDCHAR
STARTCHAR E77A
ENCODING 59258
SWIDTH 1107 0
DWIDTH 20 0
BBX 20 20 0 0
BITMAP
000000
000000
07FC00
0FFF00
1FFF80
1FFF80
0FFF00
0FFF00
0F0F00
0FBF00
3FFFC0
3FFFC0
000000
000000
010800
0FFF00
1FFF80
1F9F80
3F0FC0
0C0300
ENDCHAR
STARTCHAR E77B
ENCODING 59259
SWIDTH 1107 0
DWIDTH 20 0
BBX 20 20 0 0
BITMAP
000000
000000
0E0E00
0E0E00
0E1C00
0E0000
0E0000
0FFC00
0FFE00
0F0E00
080E00
000E00
000E00
000E00
080E00
0C0E00
0E0E00
0C0E00
080E00
000E00
ENDCHAR
STARTCHAR E77C
ENCODING 59260
SWIDTH 1107 0
DWIDTH 20 0
BBX 20 20 0 0
BITMAP
000000
000000
020000
008000
074000
020800
010100
003800
013000
018600
03B000
03B000
041000
02D000
06B000
141000
010000
382000
080000
00C000
ENDCHAR
STARTCHAR E77D
ENCODING 59261
SWIDTH 1107 0
DWIDTH 20 0
BBX 20 20 0 0
BITMAP
000000
000000
01F800
038E00
060300
0C0180
080100
104180
100080
108100
108100
100000
102400
100000
080000
080000
040000
020000
010000
006000
ENDCHAR
STARTCHAR E77E
ENCODING 59262
SWIDTH 1107 0
DWIDTH 20 0
BBX 20 20 0 0
BITMAP
000000
000000
7FFFE0
7FFFE0
7000E0
77FEE0
7462E0
7168E0
7F6FE0
7F6FE0
7F6FE0
7F6FE0
7F6FE0
7F6FE0
7E67E0
7EF7E0
7EF7E0
7FFFE0
7FFFE0
7FFFE0
ENDCHAR
STARTCHAR E77F
ENCODING 59263
SWIDTH 1107 0
DWIDTH 20 0
BBX 20 20 0 0
BITMAP
000000
000000
000000
000000
000000
000000
000000
07E1E0
0FE3C0
1CF3C0
3CF780
38F700
38F700
787E00
000000
000000
000000
000000
000000
000000
ENDCHAR
STARTCHAR E780
ENCODING 59264
SWIDTH 1107 0
DWIDTH 20 0
BBX 20 20 0 0
BITMAP
000000
000000
000000
002000
002000
007000
00F000
01E000
03E000
07E000
0FF600
1F7F00
1F3F80
1F0F80
1F8780
1D8380
180380
180180
080300
040200
ENDCHAR
STARTCHAR E781
ENCODING 59265
SWIDTH 1107 0
DWIDTH 20 0
BBX 20 20 0 0
BITMAP
000000
000000
7FFFE0
7FFFE0
7FFFE0
7FFFE0
7FFFE0
7FFFE0
7FFFE0
7FFFE0
7F9860
7F92E0
7F93E0
7F98E0
7F9C60
7F9F60
7C9260
7C3060
7FFFE0
7FFFE0
ENDCHAR
STARTCHAR E782
ENCODING 59266
SWIDTH 1107 0
DWIDTH 20 0
BBX 20 20 0 0
BITMAP
000000
000000
000000
000380
3F07C0
3F87C0
3FCFC0
3FEFC0
1FF7C0
0FF7C0
03FF80
007B80
000F00
003E00
007C00
007C00
00F800
00F800
00F000
00E000
ENDCHAR
STARTCHAR E783
ENCODING 59267
SWIDTH 1107 0
DWIDTH 20 0
BBX 20 20 0 0
BITMAP
000000
000000
000000
148000
000000
051000
000400
000200
000400
1A5000
021000
008800
010E00
028000
012500
010800
005500
07D800
002000
000000
ENDCHAR
STARTCHAR E784
ENCODING 59268
SWIDTH 1107 0
DWIDTH 20 0
BBX 20 20 0 0
BITMAP
000000
000000
000000
00F000
03FC00
0F9F00
3F0FC0
3F0FC0
3E07C0
3E07C0
3C03C0
3C03C0
3402C0
3801C0
3402C0
34F2C0
3BFDC0
0F9F00
03FC00
00F000
ENDCHAR
STARTCHAR E785
ENCODING 59269
SWIDTH 1107 0
DWIDTH 20 0
BBX 20 20 0 0
BITMAP
000000
000000
000000
006000
00F000
00F000
01F800
01F800
0BFD00
03FC00
03FC00
07FE00
0DFB00
17FE80
1FFF80
3FFFC0
479E20
2C0340
180180
060600
ENDCHAR
STARTCHAR E786
ENCODING 59270
SWIDTH 1107 0
DWIDTH 20 0
BBX 20 20 0 0
BITMAP
000000
000000
000000
000000
000000
03F800
0C9C00
190C00
384700
181060
300860
311E20
380FE0
184CC0
183100
0C6000
086000
026000
000000
000000
ENDCHAR
STARTCHAR E787
ENCODING 59271
SWIDTH 1107 0
DWIDTH 20 0
BBX 20 20 0 0
BITMAP
000000
000000
0FFE00
181F80
107E80
100080
100080
100080
180180
1FFF80
10F080
100080
100080
1C0380
17FE80
100080
100080
100080
0F9F00
00F800
ENDCHAR
STARTCHAR E788
ENCODING 59272
SWIDTH 1107 0
DWIDTH 20 0
BBX 20 20 0 0
BITMAP
000000
000000
000000
004000
007C00
07FF80
07FFC0
0FFFC0
7FEFE0
0007E0
0003E0
0001E0
0001E0
0007E0
3F9FC0
1FBF80
07FF00
07FC00
000000
000000
ENDCHAR
STARTCHAR E789
ENCODING 59273
SWIDTH 1107 0
DWIDTH 20 0
BBX 20 20 0 0
BITMAP
000000
000000
03FC00
0F0F00
1C0380
180180
3000C0
200040
639E60
663060
663060
663060
67DE60
600060
3000C0
3800C0
1C0380
0F0700
03FC00
006000
ENDCHAR
STARTCHAR E78A
ENCODING 59274
SWIDTH 1107 0
DWIDTH 20 0
BBX 20 20 0 0
BITMAP
000000
000000
000000
000000
000000
000000
000000
000000
000800
051C00
3CBD00
4C1D40
351E60
000000
000000
000000
000000
000000
000000
000000
ENDCHAR
STARTCHAR E78B
ENCODING 59275
SWIDTH 1107 0
DWIDTH 20 0
BBX 20 20 0 0
BITMAP
000000
000000
039C00
0C0300
100080
100080
200040
0DAF80
4DA220
4DA220
4DA220
4DA220
4AA220
4AA220
200040
200040
100080
080100
030C00
006000
ENDCHAR
STARTCHAR E78C
ENCODING 59276
SWIDTH 1107 0
DWIDTH 20 0
BBX 20 20 0 0
BITMAP
000000
000000
000000
010000
020000
060000
0F0000
0F8000
0FE000
0FF800
0FFC00
07FE00
07FF00
03FF00
00FF00
003F00
000F00
000600
000400
000800
ENDCHAR
STARTCHAR E78D
ENCODING 59277
SWIDTH 1107 0
DWIDTH 20 0
BBX 20 20 0 0
BITMAP
000000
000000
000000
000000
000000
000000
000000
014880
035180
07F500
05FD80
07FDC0
07FFC0
0FFC20
1C1020
139800
000000
000000
000000
000000
ENDCHAR
STARTCHAR E78E
ENCODING 59278
SWIDTH 1107 0
DWIDTH 20 0
BBX 20 20 0 0
BITMAP
000000
000000
006000
00F000
0DFB00
1FFF80
1E0F80
0C0300
1C0380
180180
7801E0
7801E0
3801C0
186180
0CF300
09F900
13FC80
07FE00
0FFF00
000000
ENDCHAR
STARTCHAR E78F
ENCODING 59279
SWIDTH 1107 0
DWIDTH 20 0
BBX 20 20 0 0
BITMAP
000000
000000
003000
009800
019800
01F800
01F800
01F000
01F000
00E000
00E000
00E000
00E000
01E000
01E000
01E000
01E000
012000
014000
008000
ENDCHAR
STARTCHAR E790
ENCODING 59280
SWIDTH 1107 0
DWIDTH 20 0
BBX 20 20 0 0
BITMAP
000000
000000
000000
000000
000000
000000
000000
000000
000000
000080
6A95C0
6A95A0
000000
000000
000000
000000
000000
000000
000000
000000
ENDCHAR
STARTCHAR E791
ENCODING 59281
SWIDTH 1107 0
DWIDTH 20 0
BBX 20 20 0 0
BITMAP
000000
000000
0077C0
01FBE0
03F9E0
07F0E0
0FF060
1FE020
1FEFE0
3FCFE0
3F87E0
3E07E0
7C07C0
4187C0
63F3C0
63FBC0
63F0C0
7FE040
3FFF00
0C0000
ENDCHAR
STARTCHAR E792
ENCODING 59282
SWIDTH 1107 0
DWIDTH 20 0
BBX 20 20 0 0
BITMAP
000000
000000
000000
000000
000000
1F8000
03CC00
5E7D00
43EE80
5F7380
7F7FE0
4F1FE0
43B3E0
404620
0700C0
380000
000000
000000
000000
000000
ENDCHAR
STARTCHAR E793
ENCODING 59283
SWIDTH 1107 0
DWIDTH 20 0
BBX 20 20 0 0
BITMAP
000000
000000
000060
0000C0
007E80
01FD00
07FB80
0FF780
0FFF80
1FEF80
1FDF80
3FBF80
3FFF80
3FFF00
7FFF00
7FFE00
7FFC00
7FF800
7FE000
780000
ENDCHAR
STARTCHAR E794
ENCODING 59284
SWIDTH 1107 0
DWIDTH 20 0
BBX 20 20 0 0
BITMAP
000000
000000
000000
000000
000000
05C000
724000
7F4000
0EB000
38C000
40D000
320000
300000
040000
280000
29AFA0
212B20
39EB40
000000
000000
ENDCHAR
STARTCHAR E795
ENCODING 59285
SWIDTH 1107 0
DWIDTH 20 0
BBX 20 20 0 0
BITMAP
000000
000000
000000
7FFFE0
7FFFE0
7FFFE0
73FFE0
71FFE0
78FFE0
7C7FE0
78FFE0
71FFE0
7383E0
7FFFE0
7FFFE0
7FFFE0
7FFFE0
7FFFE0
000000
000000
ENDCHAR
STARTCHAR E796
ENCODING 59286
SWIDTH 1107 0
DWIDTH 20 0
BBX 20 20 0 0
BITMAP
000000
000000
000000
000000
000000
043200
0C3300
0C3300
183180
3060C0
7060E0
3060C0
18C180
1CC380
0CC300
048200
000000
000000
000000
000000
ENDCHAR
STARTCHAR E797
ENCODING 59287
SWIDTH 1107 0
DWIDTH 20 0
BBX 20 20 0 0
BITMAP
000000
000000
000000
000000
000000
700000
000000
000000
000000
0007E0
7007E0
000000
000000
000000
000000
000000
000000
000000
000000
000000
ENDCHAR
STARTCHAR E798
ENCODING 59288
SWIDTH 1107 0
DWIDTH 20 0
BBX 20 20 0 0
BITMAP
000000
000000
007000
00F800
03FC00
07FA00
0FFD00
1FFF80
1FFFC0
3FFFE0
7FFFE0
7FFFE0
3FFFE0
1FFFE0
0FFFE0
06FFE0
03FF40
01FF00
00FF00
007F00
ENDCHAR
STARTCHAR E799
ENCODING 59289
SWIDTH 1107 0
DWIDTH 20 0
BBX 20 20 0 0
BITMAP
000000
006000
00E000
1CF380
1FFF80
0FFF00
0F0F00
0E0700
7C03E0
7C03E0
7C03E0
0E0700
0E0700
0F9F00
1FFF80
1DFB80
086100
006000
006000
000000
ENDCHAR
STARTCHAR E79A
ENCODING 59290
SWIDTH 1107 0
DWIDTH 20 0
BBX 20 20 0 0
BITMAP
000000
000000
000000
000000
000000
000000
000000
000000
000000
001000
00C000
03C9E0
402800
000000
000000
000000
000000
000000
000000
000000
ENDCHAR
STARTCHAR E79B
ENCODING 59291
SWIDTH 1107 0
DWIDTH 20 0
BBX 20 20 0 0
BITMAP
000000
000000
000000
01F800
070E00
3801C0
7000C0
2C0740
239C40
20F040
206040
206040
206040
206040
206040
206040
3060C0
0C6300
036C00
00F000
ENDCHAR
STARTCHAR E79C
ENCODING 59292
SWIDTH 1107 0
DWIDTH 20 0
BBX 20 20 0 0
BITMAP
000000
000000
7FFFE0
400020
400020
400020
400020
4F0020
488020
48AD20
48AD20
48AD20
499920
4F1220
400020
400020
400020
400020
7FFFE0
7FFFE0
ENDCHAR
STARTCHAR E79D
ENCODING 59293
SWIDTH 1107 0
DWIDTH 20 0
BBX 20 20 0 0
BITMAP
000000
000000
3FFFC0
7FFFE0
600060
600060
6F9F60
6F9F60
6E0760
6E0760
6E0760
6E0760
6E0760
6F9F60
6F9F60
600060
600060
7FFFE0
3FFFC0
000000
ENDCHAR
STARTCHAR E79E
ENCODING 59294
SWIDTH 1107 0
DWIDTH 20 0
BBX 20 20 0 0
BITMAP
000000
000000
010000
05FE00
0BFF00
17FF80
3FFFC0
2FFFC0
600000
7FFFE0
400000
7FFFE0
600000
3FFFE0
2FFFC0
17FF80
1FFF00
05FE00
017000
000000
ENDCHAR
STARTCHAR E79F
ENCODING 59295
SWIDTH 1107 0
DWIDTH 20 0
BBX 20 20 0 0
BITMAP
000000
000000
000000
000000
000000
00F000
01FC00
030C00
1E0400
3E27C0
7F07E0
7F0FE0
7FCFE0
7F9FE0
3F9FC0
1FFF80
000000
000000
000000
000000
ENDCHAR
STARTCHAR E7A0
ENCODING 59296
SWIDTH 1107 0
DWIDTH 20 0
BBX 20 20 0 0
BITMAP
000000
000000
000000
000000
3E0000
620000
43F000
67FC00
2E0C00
1C0600
0C0600
0E0600
0C0600
000C00
003C80
7FFFE0
7FFFC0
000080
000000
000000
ENDCHAR
STARTCHAR E7A1
ENCODING 59297
SWIDTH 1107 0
DWIDTH 20 0
BBX 20 20 0 0
BITMAP
000000
0EF700
0FFF00
0FFF00
007000
006000
242540
248140
3362C0
3861C0
3FFFC0
339CC0
1FFF80
1FFF80
1FFF80
13FE80
079E00
049200
008000
000000
ENDCHAR
STARTCHAR E7A2
ENCODING 59298
SWIDTH 1107 0
DWIDTH 20 0
BBX 20 20 0 0
BITMAP
000000
000000
000000
000000
100000
380000
7C0000
3E0000
1F0000
0F8000
07C000
078000
0F0000
1E0000
3C0000
783FE0
303FE0
000000
000000
000000
ENDCHAR
STARTCHAR E7A3
ENCODING 59299
SWIDTH 1107 0
DWIDTH 20 0
BBX 20 20 0 0
BITMAP
000000
000000
3FFE00
300700
300380
3001C0
3000C0
3000C0
3128C0
3224C0
3462C0
3244C0
3148C0
3148C0
3000C0
3000C0
3000C0
3000C0
3FFFC0
3FFFC0
ENDCHAR
STARTCHAR E7A4
ENCODING 59300
SWIDTH 1107 0
DWIDTH 20 0
BBX 20 20 0 0
BITMAP
000000
000000
000000
000000
004000
00E000
00F000
01F800
01F800
03FC00
03FC00
03FC00
03FC00
03FC00
03FC00
01F800
01F800
00F000
007000
002000
ENDCHAR
STARTCHAR E7A5
ENCODING 59301
SWIDTH 1107 0
DWIDTH 20 0
BBX 20 20 0 0
BITMAP
000000
000000
100000
080000
040000
022000
011000
048800
024480
0926C0
049360
024D80
0126C0
00B360
005980
002CC0
001600
000000
000000
000000
ENDCHAR
STARTCHAR E7A6
ENCODING 59302
SWIDTH 1107 0
DWIDTH 20 0
BBX 20 20 0 0
BITMAP
000000
000000
000000
000000
000000
000000
000000
000000
000000
5DB060
7CB160
5CB020
000000
000000
000000
000000
000000
000000
000000
000000
ENDCHAR
STARTCHAR E7A7
ENCODING 59303
SWIDTH 1107 0
DWIDTH 20 0
BBX 20 20 0 0
BITMAP
000000
000000
006000
00F000
01F800
03FC00
079E00
0F0F00
1E4780
3CC3C0
79C1E0
3DC3C0
1EC780
0F4F00
079E00
03FC00
01F800
00F000
006000
000000
ENDCHAR
STARTCHAR E7A8
ENCODING 59304
SWIDTH 1107 0
DWIDTH 20 0
BBX 20 20 0 0
BITMAP
000000
000000
000000
02F400
07BE00
0E6700
0C0300
1FF980
3FFCC0
2B9F40
33FCC0
63F860
239CC0
7FDFE0
3FCFC0
180180
3E07C0
0E0700
07FE00
02F400
ENDCHAR
STARTCHAR E7A9
ENCODING 59305
SWIDTH 1107 0
DWIDTH 20 0
BBX 20 20 0 0
BITMAP
000000
000000
020400
000180
100180
000080
000000
00F000
41F820
01FC00
03FC00
03FC00
41F820
40F020
000000
200040
100080
080100
000000
006000
ENDCHAR
STARTCHAR E7AA
ENCODING 59306
SWIDTH 1107 0
DWIDTH 20 0
BBX 20 20 0 0
BITMAP
000000
000000
7FFFE0
7FFFE0
7FFFE0
7FFFE0
7F0FE0
7E67E0
7E7FE0
7E7FE0
7F0FE0
7FE7E0
7FF7E0
7E67E0
7F07E0
7FFFE0
7FFFE0
7FFFE0
7FFFE0
7FFFE0
ENDCHAR
STARTCHAR E7AB
ENCODING 59307
SWIDTH 1107 0
DWIDTH 20 0
BBX 20 20 0 0
BITMAP
000000
000000
000000
006000
006000
00F000
00F800
01F800
03FC00
020C00
07E600
07E600
0E0700
1EE780
1EE380
3E01C0
3FFFC0
7FFFE0
000000
000000
ENDCHAR
STARTCHAR E7AC
ENCODING 59308
SWIDTH 1107 0
DWIDTH 20 0
BBX 20 20 0 0
BITMAP
000000
000000
000000
007E00
010180
0200C0
086060
036460
33FC60
21F860
61F860
63FC40
636CC0
606180
306100
380100
1E3F80
0FF080
000000
000000
ENDCHAR
STARTCHAR E7AD
ENCODING 59309
SWIDTH 1107 0
DWIDTH 20 0
BBX 20 20 0 0
BITMAP
000000
000000
000000
000000
0039C0
006F60
006F60
006F60
39C000
5F2000
6F6000
6F6000
296000
0F0000
0F8000
0F8000
0F8000
060000
000000
000000
ENDCHAR
STARTCHAR E7AE
ENCODING 59310
SWIDTH 1107 0
DWIDTH 20 0
BBX 20 20 0 0
BITMAP
000000
000000
000000
000000
000000
000000
000000
07C000
0F2C00
083C00
383280
600060
400A60
600080
2FC080
1F3240
000000
000000
000000
000000
ENDCHAR
STARTCHAR E7AF
ENCODING 59311
SWIDTH 1107 0
DWIDTH 20 0
BBX 20 20 0 0
BITMAP
000000
000000
000000
000000
7FFFE0
7FFFE0
601F60
6000E0
6F80E0
6FC0E0
6FC0E0
6FC7E0
6FC7E0
6E0FE0
601FE0
7FFFE0
7FFFE0
000000
000000
000000
ENDCHAR
STARTCHAR E7B0
ENCODING 59312
SWIDTH 1107 0
DWIDTH 20 0
BBX 20 20 0 0
BITMAP
000000
000000
000000
000000
000000
006000
006000
01A100
01A000
01B100
1FFEC0
289040
100000
000200
000000
01E000
000000
000000
000000
000000
ENDCHAR
STARTCHAR E7B1
ENCODING 59313
SWIDTH 1107 0
DWIDTH 20 0
BBX 20 20 0 0
BITMAP
000000
000000
000000
000000
000000
606060
40F020
40F020
400020
400020
41FFE0
40FFE0
40FFE0
40FE60
607C20
603860
000000
000000
000000
000000
ENDCHAR
STARTCHAR E7B2
ENCODING 59314
SWIDTH 1107 0
DWIDTH 20 0
BBX 20 20 0 0
BITMAP
000000
000000
000000
07FE00
0DFB00
0FFF00
1E0780
1C0380
3C63C0
78F1E0
58F1A0
78F1E0
3C73C0
3C03C0
1E0780
0FFF00
0FFF00
07FE00
03FC00
000000
ENDCHAR
STARTCHAR E7B3
ENCODING 59315
SWIDTH 1107 0
DWIDTH 20 0
BBX 20 20 0 0
BITMAP
000000
000000
03FC00
0FFF00
1FFF80
1FFF80
3FFFC0
3801C0
7801E0
640260
620460
7999E0
7D99E0
7999E0
3999C0
3F0FC0
1FFF80
0FFF00
03FC00
006000
ENDCHAR
STARTCHAR E7B4
ENCODING 59316
SWIDTH 1107 0
DWIDTH 20 0
BBX 20 20 0 0
BITMAP
000000
000000
7FFFE0
400020
400020
400020
418C20
41C020
414C20
414C20
436C20
43EC20
422C20
462C20
400020
400020
400020
400020
7FFFE0
000000
ENDCHAR
STARTCHAR E7B5
ENCODING 59317
SWIDTH 1107 0
DWIDTH 20 0
BBX 20 20 0 0
BITMAP
000000
000000
3FF9C0
7FFBE0
7FFBE0
3FFBE0
00FBE0
00FBE0
38FBE0
7CFBE0
7CFBE0
7CFBE0
3CF3E0
01F3E0
03F3E0
3FE3E0
7FC3E0
7F83E0
7F01C0
180080
ENDCHAR
STARTCHAR E7B6
ENCODING 59318
SWIDTH 1107 0
DWIDTH 20 0
BBX 20 20 0 0
BITMAP
000000
000000
000000
000000
000000
000000
071C00
071800
073800
063800
0E3800
0F38C0
0E31C0
2E71C0
0C7180
000000
000000
000000
000000
000000
ENDCHAR
STARTCHAR E7B7
ENCODING 59319
SWIDTH 1107 0
DWIDTH 20 0
BBX 20 20 0 0
BITMAP
000000
000000
007000
03FE00
07FF00
0F8F80
1E03E0
1C0000
380380
380380
3C03E0
1800E0
1001C0
7001C0
3A03C0
2F0780
07FF00
03FE00
00F800
000000
ENDCHAR
STARTCHAR E7B8
ENCODING 59320
SWIDTH 1107 0
DWIDTH 20 0
BBX 20 20 0 0
BITMAP
000000
000000
7FFFE0
400020
400020
400020
478020
46C020
465C20
46D020
479C20
460620
461C20
400020
400020
400020
400020
400020
7FFFE0
000000
ENDCHAR
STARTCHAR E7B9
ENCODING 59321
SWIDTH 1107 0
DWIDTH 20 0
BBX 20 20 0 0
BITMAP
000000
000000
000000
006000
006000
00F000
01F800
01F800
03FC00
020C00
07E600
07E600
0E0700
1EE780
1EE380
3E01C0
3FFFC0
7FFFE0
000000
000000
ENDCHAR
STARTCHAR E7BA
ENCODING 59322
SWIDTH 1107 0
DWIDTH 20 0
BBX 20 20 0 0
BITMAP
000000
000000
000000
059A00
086000
086100
009000
07FE00
3D0B80
666660
42F420
466620
350AC0
0FFF00
009000
086100
086100
049200
020400
000000
ENDCHAR
STARTCHAR E7BB
ENCODING 59323
SWIDTH 1107 0
DWIDTH 20 0
BBX 20 20 0 0
BITMAP
000000
000000
000000
03FC00
07EE00
1E0F80
1DC380
3C03C0
2201C0
63C0E0
70E060
780060
7A0060
7881E0
447FE0
0003C0
000240
000400
000800
000000
ENDCHAR
STARTCHAR E7BC
ENCODING 59324
SWIDTH 1107 0
DWIDTH 20 0
BBX 20 20 0 0
BITMAP
000000
000000
03FC00
0FFF00
1FFF80
1FFF80
3FFFC0
39B7C0
7FEFE0
77EFE0
77F3E0
77FDE0
77FEE0
7BFFE0
3C71C0
3FFFC0
1FFF80
0FFF00
03FC00
006000
ENDCHAR
STARTCHAR E7BD
ENCODING 59325
SWIDTH 1107 0
DWIDTH 20 0
BBX 20 20 0 0
BITMAP
000000
000000
000000
000000
000000
000000
000000
000000
004000
007800
009000
019000
001000
000000
000000
000000
000000
000000
000000
000000
ENDCHAR
STARTCHAR E7BE
ENCODING 59326
SWIDTH 1107 0
DWIDTH 20 0
BBX 20 20 0 0
BITMAP
000000
000000
000000
000000
000000
000000
000000
000000
000000
005000
001000
00E000
008000
000000
000000
000000
000000
000000
000000
000000
ENDCHAR
STARTCHAR E7BF
ENCODING 59327
SWIDTH 1107 0
DWIDTH 20 0
BBX 20 20 0 0
BITMAP
000000
000000
000000
000000
000000
000000
000000
000000
002000
004000
002000
002000
004000
000000
000000
000000
000000
000000
000000
000000
ENDCHAR
STARTCHAR E7C0
ENCODING 59328
SWIDTH 1107 0
DWIDTH 20 0
BBX 20 20 0 0
BITMAP
000000
000000
000000
000000
000000
000000
000000
000000
000000
006000
009000
006000
000000
000000
000000
000000
000000
000000
000000
000000
ENDCHAR
STARTCHAR E7C1
ENCODING 59329
SWIDTH 1107 0
DWIDTH 20 0
BBX 20 20 0 0
BITMAP
000000
000000
000000
000000
000000
000000
000000
000000
000000
000000
006000
004000
002000
000000
000000
000000
000000
000000
000000
000000
ENDCHAR
STARTCHAR E7C2
ENCODING 59330
SWIDTH 1107 0
DWIDTH 20 0
BBX 20 20 0 0
BITMAP
000000
000000
000000
000000
000000
000000
000000
000000
000000
002000
004000
004000
000000
000000
000000
000000
000000
000000
000000
000000
ENDCHAR
STARTCHAR E7C3
ENCODING 59331
SWIDTH 1107 0
DWIDTH 20 0
BBX 20 20 0 0
BITMAP
000000
000000
000000
000000
000000
000000
000000
000000
000000
000000
006000
000000
000000
000000
000000
000000
000000
000000
000000
000000
ENDCHAR
STARTCHAR E7C4
ENCODING 59332
SWIDTH 1107 0
DWIDTH 20 0
BBX 20 20 0 0
BITMAP
000000
000000
000000
000000
000000
000000
001C00
003C00
006C00
00FC00
00F800
01B800
01B800
01F000
016000
03E000
03C000
028000
010000
000000
ENDCHAR
STARTCHAR E7C5
ENCODING 59333
SWIDTH 1107 0
DWIDTH 20 0
BBX 20 20 0 0
BITMAP
000000
000000
3F9FC0
3F8FC0
1F0F80
1F1F00
1F3E00
1F7C00
1FF800
1FF000
1FE040
1FD880
1FB560
1F37E0
1E3D60
1C2F40
0C3000
002000
000000
000000
ENDCHAR
STARTCHAR EA60
ENCODING 60000
SWIDTH 1107 0
DWIDTH 20 0
BBX 20 20 0 0
BITMAP
000000
000000
006000
006000
006000
006000
006000
006000
006000
006000
7FFFE0
006000
006000
006000
006000
006000
006000
006000
006000
006000
ENDCHAR
STARTCHAR EA61
ENCODING 60001
SWIDTH 1107 0
DWIDTH 20 0
BBX 20 20 0 0
BITMAP
000000
000000
03F800
07FC00
0FFC00
0FFE00
0FFE00
0FFE00
0FFE00
0FFE00
07FC00
07F800
03F800
01F000
011000
011000
011000
01F000
000000
000000
ENDCHAR
STARTCHAR EA62
ENCODING 60002
SWIDTH 1107 0
DWIDTH 20 0
BBX 20 20 0 0
BITMAP
000000
000000
1FFFC0
3800C0
3A00C0
3800C0
3800C0
3A00C0
3800C0
3A00C0
3A00C0
3800C0
3800C0
3FFFC0
3000C0
3000C0
33C0C0
1BDFC0
024000
020000
ENDCHAR
STARTCHAR EA63
ENCODING 60003
SWIDTH 1107 0
DWIDTH 20 0
BBX 20 20 0 0
BITMAP
000000
1E0780
330CC0
3108C0
130C80
1E0780
0C0300
0C0300
060600
039C00
00F000
006000
006000
00E000
00F000
019800
019800
00F000
006000
000000
ENDCHAR
STARTCHAR EA64
ENCODING 60004
SWIDTH 1107 0
DWIDTH 20 0
BBX 20 20 0 0
BITMAP
000000
000000
3E1000
222000
237E00
226300
3E3100
0C1100
080100
080100
080100
080100
080100
080100
3E07C0
220440
230C40
220440
3E07C0
080100
ENDCHAR
STARTCHAR EA65
ENCODING 60005
SWIDTH 1107 0
DWIDTH 20 0
BBX 20 20 0 0
BITMAP
000000
000000
000000
000000
3FFFC0
7FFFE0
400020
496920
496920
400020
4E9720
400020
400020
49F920
400020
7FFFE0
7FFFE0
000000
000000
000000
ENDCHAR
STARTCHAR EA66
ENCODING 60006
SWIDTH 1107 0
DWIDTH 20 0
BBX 20 20 0 0
BITMAP
000000
000000
000000
007F80
008180
010780
020780
0401C0
0801E0
1001A0
200320
400620
600C60
301840
1830C0
0C7F00
06C000
038000
000000
000000
ENDCHAR
STARTCHAR EA67
ENCODING 60007
SWIDTH 1107 0
DWIDTH 20 0
BBX 20 20 0 0
BITMAP
000000
000000
00F000
019800
019800
00F000
007000
000000
03FC00
020400
020400
020400
020400
020400
039C00
019800
019800
019800
01F800
00F000
ENDCHAR
STARTCHAR EA68
ENCODING 60008
SWIDTH 1107 0
DWIDTH 20 0
BBX 20 20 0 0
BITMAP
000000
000000
0F0000
188000
108000
098F00
0F1900
021080
021180
020F00
020600
020C00
03F800
020000
0F0000
098000
108000
188000
0F0000
060000
ENDCHAR
STARTCHAR EA69
ENCODING 60009
SWIDTH 1107 0
DWIDTH 20 0
BBX 20 20 0 0
BITMAP
000000
000000
000000
00F000
03FC00
066600
1C6180
3168C0
430C20
460620
4FFF20
4FFF20
460620
430C20
406020
40F020
430C20
4E0720
5801A0
7000E0
ENDCHAR
STARTCHAR EA6A
ENCODING 60010
SWIDTH 1107 0
DWIDTH 20 0
BBX 20 20 0 0
BITMAP
000000
000000
000000
006000
006000
006000
00F000
00F000
7FFFE0
3F9FC0
0C0300
070E00
030C00
030C00
03FC00
03FC00
079E00
060600
040200
000000
ENDCHAR
STARTCHAR EA6B
ENCODING 60011
SWIDTH 1107 0
DWIDTH 20 0
BBX 20 20 0 0
BITMAP
000000
000000
7FFFE0
7FFFE0
400020
400020
400020
400020
400020
400020
400020
400020
400020
400020
7C7FE0
048000
050000
060000
040000
000000
ENDCHAR
STARTCHAR EA6C
ENCODING 60012
SWIDTH 1107 0
DWIDTH 20 0
BBX 20 20 0 0
BITMAP
000000
000000
006000
006000
00F000
009000
019800
010800
030C00
026400
046200
046200
086100
186180
100080
3060C0
200040
600060
7FFFE0
000000
ENDCHAR
STARTCHAR EA6D
ENCODING 60013
SWIDTH 1107 0
DWIDTH 20 0
BBX 20 20 0 0
BITMAP
000000
000000
000000
007E00
00C180
0100C0
030040
020040
020040
020040
020040
010040
018080
01C300
033E00
060000
0C0000
080000
100000
200000
ENDCHAR
STARTCHAR EA6E
ENCODING 60014
SWIDTH 1107 0
DWIDTH 20 0
BBX 20 20 0 0
BITMAP
000000
000000
7FFE00
7C0600
6F0600
618400
608100
608180
6080C0
60BFE0
6080C0
608180
608300
608400
608600
608600
60FE00
3CFC00
078000
008000
ENDCHAR
STARTCHAR EA6F
ENCODING 60015
SWIDTH 1107 0
DWIDTH 20 0
BBX 20 20 0 0
BITMAP
000000
000000
7FFE00
7C0600
6F0200
618000
608400
608C00
609800
60BFE0
60B000
609800
608C00
608000
608200
608600
60FE00
3CFC00
078000
008000
ENDCHAR
STARTCHAR EA70
ENCODING 60016
SWIDTH 1107 0
DWIDTH 20 0
BBX 20 20 0 0
BITMAP
000000
000000
000000
000000
000000
00F000
07FE00
0C0300
180180
31F8C0
210840
630C60
430C20
010800
01F800
00F000
000000
000000
000000
000000
ENDCHAR
STARTCHAR EA71
ENCODING 60017
SWIDTH 1107 0
DWIDTH 20 0
BBX 20 20 0 0
BITMAP
000000
000000
03FC00
0FFF00
1FFF80
1FFF80
3FFFC0
3FFFC0
7FFFE0
7FFFE0
7FFFE0
7FFFE0
7FFFE0
3FFFE0
3FFFC0
3FFFC0
1FFF80
0FFF00
03FC00
006000
ENDCHAR
STARTCHAR EA72
ENCODING 60018
SWIDTH 1107 0
DWIDTH 20 0
BBX 20 20 0 0
BITMAP
000000
000000
7FFFE0
7FFFE0
600060
600060
600060
600060
600060
600060
600060
600060
600060
600060
600060
600060
600060
600060
7FFFE0
3FFFC0
ENDCHAR
STARTCHAR EA73
ENCODING 60019
SWIDTH 1107 0
DWIDTH 20 0
BBX 20 20 0 0
BITMAP
000000
000000
000000
0003C0
000660
000C20
001860
0030C0
006180
00C300
018600
030C00
061800
0C3000
1C6000
1EC000
338000
270000
7C0000
380000
ENDCHAR
STARTCHAR EA74
ENCODING 60020
SWIDTH 1107 0
DWIDTH 20 0
BBX 20 20 0 0
BITMAP
000000
03FC00
060600
180100
100080
3000C0
206040
600060
406020
406020
406020
606060
206040
200040
100080
180180
0E0700
03FC00
006000
000000
ENDCHAR
STARTCHAR EA75
ENCODING 60021
SWIDTH 1107 0
DWIDTH 20 0
BBX 20 20 0 0
BITMAP
000000
000000
01F800
030C00
060600
040200
040200
040200
040200
1FFF80
3FFFC0
3000C0
3000C0
3000C0
3000C0
3000C0
3000C0
3000C0
3FFFC0
1FFF80
ENDCHAR
STARTCHAR EA76
ENCODING 60022
SWIDTH 1107 0
DWIDTH 20 0
BBX 20 20 0 0
BITMAP
000000
000000
200040
7000E0
3801C0
1C0380
0E0700
070E00
039C00
01F800
00F000
00F000
01F800
039C00
070E00
0E0700
1C0380
3801C0
7000E0
200040
ENDCHAR
STARTCHAR EA77
ENCODING 60023
SWIDTH 1107 0
DWIDTH 20 0
BBX 20 20 0 0
BITMAP
000000
000000
000000
000000
01F800
030C00
040200
000100
000100
1802A0
3C03C0
760180
080000
080000
0C0300
060600
01F800
000000
000000
000000
ENDCHAR
STARTCHAR EA78
ENCODING 60024
SWIDTH 1107 0
DWIDTH 20 0
BBX 20 20 0 0
BITMAP
000000
000000
7FFFE0
7FFFE0
400020
400020
400020
400020
400020
400220
400220
400220
400220
400220
400200
7F9240
01CA80
01E700
07F200
000000
ENDCHAR
STARTCHAR EA79
ENCODING 60025
SWIDTH 1107 0
DWIDTH 20 0
BBX 20 20 0 0
BITMAP
000000
000000
03FC00
019800
019800
019800
019800
019800
019800
010800
030C00
020400
060600
07FE00
0C0100
080100
100080
100080
3FFFC0
1FFF80
ENDCHAR
STARTCHAR EA7A
ENCODING 60026
SWIDTH 1107 0
DWIDTH 20 0
BBX 20 20 0 0
BITMAP
000000
000000
7FFFE0
7FFFE0
400020
400020
400020
400020
400020
400020
400020
400020
400020
400020
400020
7FFFE0
006000
006000
07FE00
000000
ENDCHAR
STARTCHAR EA7B
ENCODING 60027
SWIDTH 1107 0
DWIDTH 20 0
BBX 20 20 0 0
BITMAP
000000
000000
1FF800
101400
101200
101100
101080
101F80
100080
100080
100080
100080
100080
100080
100080
100080
100080
100080
1FFF80
0FFF00
ENDCHAR
STARTCHAR EA7C
ENCODING 60028
SWIDTH 1107 0
DWIDTH 20 0
BBX 20 20 0 0
BITMAP
000000
000000
000000
000000
000000
000000
000000
000000
000000
6060E0
70E0E0
7060E0
000000
000000
000000
000000
000000
000000
000000
000000
ENDCHAR
STARTCHAR EA7D
ENCODING 60029
SWIDTH 1107 0
DWIDTH 20 0
BBX 20 20 0 0
BITMAP
000000
000000
000000
010000
030000
060000
0C0000
180000
1FE000
183C00
0C0600
060300
030180
018080
000080
000080
0000C0
0000C0
0000C0
000000
ENDCHAR
STARTCHAR EA7E
ENCODING 60030
SWIDTH 1107 0
DWIDTH 20 0
BBX 20 20 0 0
BITMAP
000000
00F000
1D9B80
179E80
1EF780
0C6300
39F9C0
7BFDE0
420420
420420
420420
7204E0
3204C0
339CC0
3198C0
3D9BC0
1D9B80
01F800
00F000
000000
ENDCHAR
STARTCHAR EA7F
ENCODING 60031
SWIDTH 1107 0
DWIDTH 20 0
BBX 20 20 0 0
BITMAP
000000
000000
3FE000
205000
204800
204400
207E00
207E00
200200
200000
200000
200200
200200
200200
200200
203FC0
3F0200
000200
000200
000200
ENDCHAR
STARTCHAR EA80
ENCODING 60032
SWIDTH 1107 0
DWIDTH 20 0
BBX 20 20 0 0
BITMAP
000000
000000
7F8000
40FFC0
400040
40FFC0
7F8040
7F0040
400040
400000
400000
400200
400200
400200
400200
7F1FE0
000200
000200
000200
000200
ENDCHAR
STARTCHAR EA81
ENCODING 60033
SWIDTH 1107 0
DWIDTH 20 0
BBX 20 20 0 0
BITMAP
000000
000000
01F800
010800
3FFFC0
3FFFC0
080100
096900
096900
096900
096900
096900
096900
096900
096900
096900
096900
080100
0FFF00
07FE00
ENDCHAR
STARTCHAR EA82
ENCODING 60034
SWIDTH 1107 0
DWIDTH 20 0
BBX 20 20 0 0
BITMAP
000000
03FC00
4E0600
580180
504080
704040
7C4040
004060
004020
004020
006020
003020
001840
000840
3000C0
180180
0E0700
03FC00
006000
000000
ENDCHAR
STARTCHAR EA83
ENCODING 60035
SWIDTH 1107 0
DWIDTH 20 0
BBX 20 20 0 0
BITMAP
000000
000000
000000
7F8000
40FFE0
400020
400020
40FFE0
7F8020
400020
400020
400020
400020
400020
400020
400020
400020
7FFFE0
000000
000000
ENDCHAR
ENDFONT
